<?xml version="1.0" standalone="no"?>
<!DOCTYPE svg PUBLIC "-//W3C//DTD SVG 1.1//EN" "http://www.w3.org/Graphics/SVG/1.1/DTD/svg11.dtd" >
<svg xmlns="http://www.w3.org/2000/svg">
<metadata>
Created by FontForge 20120731 at Wed May  3 18:51:27 2017
 By admin
</metadata>
<defs>
<font id="iconfont" horiz-adv-x="1024" >
  <font-face 
    font-family="iconfont"
    font-weight="500"
    font-stretch="normal"
    units-per-em="1024"
    panose-1="2 0 6 3 0 0 0 0 0 0"
    ascent="896"
    descent="-128"
    x-height="792"
    bbox="-2 -212 2773 922"
    underline-thickness="0"
    underline-position="0"
    unicode-range="U+0078-E7D2"
  />
<missing-glyph 
 />
    <glyph glyph-name=".notdef" 
 />
    <glyph glyph-name=".notdef" 
 />
    <glyph glyph-name=".null" horiz-adv-x="0" 
 />
    <glyph glyph-name="nonmarkingreturn" horiz-adv-x="341" 
 />
    <glyph glyph-name="x" unicode="x" horiz-adv-x="1001" 
d="M281 543q-27 -1 -53 -1h-83q-18 0 -36.5 -6t-32.5 -18.5t-23 -32t-9 -45.5v-76h912v41q0 16 -0.5 30t-0.5 18q0 13 -5 29t-17 29.5t-31.5 22.5t-49.5 9h-133v-97h-438v97zM955 310v-52q0 -23 0.5 -52t0.5 -58t-10.5 -47.5t-26 -30t-33 -16t-31.5 -4.5q-14 -1 -29.5 -0.5
t-29.5 0.5h-32l-45 128h-439l-44 -128h-29h-34q-20 0 -45 1q-25 0 -41 9.5t-25.5 23t-13.5 29.5t-4 30v167h911zM163 247q-12 0 -21 -8.5t-9 -21.5t9 -21.5t21 -8.5q13 0 22 8.5t9 21.5t-9 21.5t-22 8.5zM316 123q-8 -26 -14 -48q-5 -19 -10.5 -37t-7.5 -25t-3 -15t1 -14.5
t9.5 -10.5t21.5 -4h37h67h81h80h64h36q23 0 34 12t2 38q-5 13 -9.5 30.5t-9.5 34.5q-5 19 -11 39h-368zM336 498v228q0 11 2.5 23t10 21.5t20.5 15.5t34 6h188q31 0 51.5 -14.5t20.5 -52.5v-227h-327z" />
    <glyph glyph-name="weixin1" unicode="&#xe63f;" 
d="M782 237q-16 0 -27.5 11.5t-11.5 28t11.5 28t27.5 11.5t27.5 -11.5t11.5 -28t-11.5 -28t-27.5 -11.5zM582 237q-16 0 -27.5 11.5t-11.5 28t11.5 28t27.5 11.5t27.5 -11.5t11.5 -28t-11.5 -28t-27.5 -11.5zM960 181q0 95 -74 164.5t-182 75.5q-12 1 -20 1
q-115 0 -196 -70.5t-81 -170.5q0 -29 8 -58q23 -79 97.5 -131t171.5 -52q65 0 123 25l62 -42l1.5 -1t4 -1.5t4.5 0t3.5 4t1.5 9.5l-18 66q44 34 69 81t25 100zM260 452q-16 0 -27.5 11.5t-11.5 27.5t11.5 27.5t27.5 11.5t27.5 -11.5t11.5 -27.5t-11.5 -27.5t-27.5 -11.5z
M504.5 530q16.5 0 27.5 -11.5t11 -27.5t-11 -27.5t-27.5 -11.5t-27.5 11.5t-11 27.5t11 27.5t27.5 11.5zM684 442q6 0 17 -1q-17 102 -107 170t-209 68q-87 0 -161 -37t-117 -101.5t-43 -139.5q0 -64 30.5 -119.5t84.5 -94.5l-24 -89q0 -1 -0.5 -3t-0.5 -7t2.5 -6.5t7 -3
t14.5 2.5l88 61q57 -20 119 -20h4.5h5.5q-8 29 -8 59q0 108 87 184.5t210 76.5v0z" />
    <glyph glyph-name="tucengmuluguanli" unicode="&#xe630;" 
d="M912 539l-400 277l-401 -277l401 -277zM512 200l-354 236l-47 -49l401 -277l400 277l-47 50zM512 48l-354 235l-47 -49l401 -277l400 277l-47 50z" />
    <glyph glyph-name="shouyi2" unicode="&#xe6ae;" 
d="M89 676h76v-741h770v-83h-770h-76v83v741v0zM205 346l44 -73q2 2 4 3h1q2 2 4 3q24 12 54 18.5t49 7t54 0.5q21 0 41 -0.5t40 2.5t39 7t38 13t36 22t34 33t32.5 46t30.5 62t28 80l58 -18l-23 98l-24 98l-73 -69l-73 -70l54 -15q-14 -44 -29.5 -76.5t-29 -54.5t-33 -36.5
t-33.5 -22t-37 -11t-36.5 -4t-39.5 0.5q-41 0 -64.5 -1t-61.5 -9.5t-70 -25.5q-1 -1 -7 -4q-4 -2 -7 -4v0zM689 -38h142v514l-142 -160v-354v0zM480 -38h142v187h-142v-187v0zM279 -38h142v268h-142v-268z" />
    <glyph glyph-name="duihao1" unicode="&#xe635;" 
d="M512 -212q-139 0 -257 68.5t-186.5 186.5t-68.5 257t68.5 257t186.5 186.5t257 68.5t257 -68.5t186.5 -186.5t68.5 -257t-68.5 -257t-186.5 -186.5t-257 -68.5zM811 457q-14 14 -34 14t-34 -14l-271 -269l-135 134q-14 14 -34 14t-34 -14t-14 -33.5t14 -33.5l170 -168
q14 -14 33.5 -14t33.5 14l305 303q14 14 14 33.5t-14 33.5z" />
    <glyph glyph-name="biaoqian" unicode="&#xe7d2;" 
d="M273 73l239 239l239 -239v743h-478v-743zM193 896v-1024l319 319l319 -319v1024h-638zM751 73l-239 239l-239 -239v743h478v-743v0z" />
    <glyph glyph-name="iconfonticonfonttoggleon" unicode="&#xe623;" horiz-adv-x="1171" 
d="M0 384q0 74 29 142t78 116.5t116.5 78t142.5 29.5h438q75 0 142.5 -29.5t116.5 -78t78 -116.5t29 -142t-29 -142t-78 -116.5t-116.5 -78t-142.5 -29.5h-438q-75 0 -142.5 29.5t-116.5 78t-78 116.5t-29 142v0zM804.5 91q59.5 0 113.5 23.5t93.5 63t62.5 93t23 113
t-23 113.5t-62.5 93.5t-93.5 62.5t-113.5 23t-113.5 -23t-93.5 -62.5t-62.5 -93.5t-23 -113.5t23 -113t62.5 -93t93.5 -63t113.5 -23.5z" />
    <glyph glyph-name="shiti" unicode="&#xe643;" 
d="M115 685q-21 -11 -34.5 -37t-13.5 -50v-487q0 -23 13.5 -30t34.5 4q202 107 354 -38q4 -3 14 -8v599q-10 5 -14 9q-152 145 -354 38zM909 685q-26 14 -53.5 24t-67.5 16.5t-77.5 2.5t-82 -24t-83.5 -57q0 -1 -1.5 -1.5l-1.5 -0.5v-600l1.5 1l1.5 1q39 37 83.5 57t82 24
t77.5 -2.5t67.5 -16.5t54.5 -24q20 -11 33.5 -4t13.5 30v487q0 24 -13.5 50t-34.5 37v0z" />
    <glyph glyph-name="dui2" unicode="&#xe638;" 
d="M938.5 686q-18.5 19 -45 19t-45.5 -19l-431 -431l-244 243q-18 19 -44.5 19t-45.5 -19t-19 -45.5t19 -45.5l269 -268q33 -34 64.5 -34t63.5 32l458 459q19 18 19 44.5t-18.5 45.5z" />
    <glyph glyph-name="gantanhao11-copy" unicode="&#xe67e;" 
d="M512 -128q-139 0 -257 68.5t-186.5 186.5t-68.5 257t68.5 257t186.5 186.5t257 68.5t257 -68.5t186.5 -186.5t68.5 -257t-68.5 -257t-186.5 -186.5t-257 -68.5zM512 828q-90 0 -172.5 -35.5t-141.5 -94.5t-94.5 -141.5t-35.5 -172.5t35.5 -172.5t94.5 -141.5t141.5 -94.5
t172.5 -35.5t172.5 35.5t141.5 94.5t94.5 141.5t35.5 172.5t-35.5 172.5t-94.5 141.5t-141.5 94.5t-172.5 35.5zM512 77q-28 0 -48 20t-20 48t20 48t48 20t48 -20t20 -48t-20 -48t-48 -20zM512 282q-14 0 -24 20t-10 48l-34 307q0 28 20 48t48 20t48 -20t20 -48l-34 -307
q0 -28 -10 -48t-24 -20z" />
    <glyph glyph-name="lock" unicode="&#xe639;" 
d="M334 437h356v133q0 74 -52 126t-126 52t-126 -52t-52 -126v-133zM911 370v-399q0 -28 -19 -47.5t-47 -19.5h-666q-28 0 -47 19.5t-19 47.5v399q0 28 19 47.5t47 19.5h22v133q0 128 91.5 219.5t219.5 91.5t219.5 -91.5t91.5 -219.5v-133h22q28 0 47 -19.5t19 -47.5z" />
    <glyph glyph-name="wodewodeshequ" unicode="&#xe7a8;" 
d="M518 261v7q23 16 40 37t27.5 47t16.5 47t8.5 53t3 50t-0.5 51v15q0 105 -59.5 164.5t-165.5 59.5h-7q-102 0 -156.5 -58t-54.5 -166q0 -33 1 -53.5t6.5 -60.5t16.5 -69t33.5 -62t53.5 -55v-6q-67 -10 -122 -29.5t-91 -52.5t-36 -73q0 -174 352 -174q88 0 155 10.5
t106.5 27.5t64 40.5t33.5 46.5t9 49q0 32 -24 59.5t-62 45.5t-74.5 30t-73.5 19v0zM958 138q-14 0 -24 10t-10 25q0 13 -31 35.5t-82 44t-99 27.5q-13 1 -21.5 11t-8.5 23v71q0 16 13 27q43 35 72.5 102t29.5 133q0 42 -13.5 71.5t-36 44t-46 21t-51.5 6.5q-14 0 -24 10
t-10 24t10 24t24 10q100 0 157.5 -56.5t57.5 -154.5q0 -76 -32 -153.5t-83 -124.5v-26q53 -12 107 -35.5t94.5 -60.5t40.5 -74q0 -15 -10 -25t-24 -10v0v0z" />
    <glyph glyph-name="zhuanqushouyi" unicode="&#xe628;" 
d="M776 695h-91v15q0 24 -3 31.5t-13 7.5q-8 0 -12.5 -6.5t-4.5 -19.5q0 -21 9 -29q8 -9 49 -33q34 -21 46 -32q13 -11 21.5 -31.5t8.5 -50.5q0 -48 -23 -75q-10 -12 -25 -20q-99 19 -158 23q-19 25 -19 76v17h91v-22q0 -36 2.5 -44.5t13.5 -8.5q9 0 13.5 6t4.5 18
q0 30 -4.5 43t-28.5 29q-42 26 -57 38t-25 34q-11 22 -11 50q0 40 23 63t69 29v29h41v-29q42 -6 62.5 -28.5t20.5 -62.5v-17v0zM79 275l173 -339l148 76l-30 58l38 60q32 -2 79.5 -4.5t73 -3.5t59 -0.5t63.5 4.5q33 10 148 99t114 109q0 12 -8 23t-16 16l-8 4
q-4 0 -33.5 -18t-75 -42t-86.5 -36q-63 -19 -114.5 -0.5t-59.5 62.5q-1 5 62 7.5t125 2.5q13 2 21.5 17.5t7 31t-14.5 18.5q-41 8 -63 12t-64.5 9.5t-69 5.5t-63.5 -3t-62.5 -12.5t-52 -27.5t-44.5 -43q-35 -29 -78 -53l-22 43z" />
    <glyph glyph-name="nostoploss" unicode="&#xe609;" 
d="M881 341h-166l-9 -4l-1 -25l5 -17l-2 -42l-5 -15l3 -13h28l5 3h116l9 -4h19l4 6v80l2 21zM847 265h-101v44h101v-44zM828 90l-7 -7l-3 -13l5 -18l18 -13l21 -11l17 -5l17 1l12 10l5 15l-2 6l-19 1l-30 12l-20 14l-5 8h-9zM553 273l5 5h39v73h44v-25l-5 -48h41v-35h-38
v-59l37 12v-32l-38 -14v-104l-10 -15l-13 -11h-41l-13 15l-2 23h11l6 -5l14 2l9 10v69l-38 -12l-8 4v34l7 4l39 7v71h-25l-10 -3l-13 3zM704 207l-8 -11l4 -18v-88h39v82h117v-82h45v83l5 17v6l-19 13h-182zM304 325v-21l2 -16v-219h-67v147l4 17l-5 11h-38l-3 -7l4 -29
v-139h-55l-8 -6v-33h33l24 5h195l82 -11h12l16 18l4 19v10l-16 -3h-138v117h114v34h-114v78l5 13l-4 15h-47zM784 160l-11 -8l-2 -43l-12 -25l-24 -16l-29 -10l-18 -3h-14v-10l12 -17l17 -6h26l26 12l25 20l18 24l10 30l7 22l2 13v12l-6 4zM1023 256q-1 6 -6 68
q-1 8 -1.5 20t-1.5 18q-4 34 -4 41q0 6 2.5 26.5t3.5 37.5q2 25 1 115v50v46q-1 58 -5 89q-4 40 -16 65t-32 38q-20 12 -73 14q-80 5 -150 0q-46 -3 -63 -14q-16 -9 -17 -20q0 -4 2 -7.5t11.5 -7t26.5 -5.5q29 -3 142 -4q52 -1 66 -5q17 -4 25 -23q11 -26 16 -136
q6 -145 8 -389q2 -185 -2 -251q-4 -52 -18 -66q-6 -5 -15 -8t-41.5 -5.5t-94.5 -3.5q-129 -3 -506 -3q-143 0 -155 2q-20 4 -30 16q-11 14 -14 69q-3 56 -5 189q-1 138 -2 157q-2 38 -12 43q-13 7 -27 0q-10 -5 -15 -19q-4 -9 -5 -44q-4 -72 -3 -131q1 -65 7 -150
q4 -65 11 -93q8 -34 23 -54q13 -17 35 -25q16 -6 51 -9q43 -4 85 -5q40 -1 90 1q94 4 102 4q13 0 25.5 -0.5t30 -1t32.5 -1.5q46 -1 140 -1q66 -1 91 1l21 3t26 3t25 1q16 0 49.5 -3t41.5 -4q37 -2 65 3q25 5 36 16q12 13 16 42q4 27 4 81q0 16 -0.5 49.5t-0.5 46.5
q0 19 2 59q3 46 2 75zM605 848q-1 17 -18 26t-75 11q-85 3 -141 -1q-15 -1 -42 -5t-54 -5q-19 -1 -87.5 -2.5t-93.5 -3.5q-22 -2 -34 -5t-15.5 -6t-6.5 -7q-10 -15 -17 -35q-13 -41 -17 -94q-6 -64 -1 -140q4 -64 16 -91q11 -24 30 -28q7 -2 11 3t7 20q5 32 3 107
q0 18 -2 65.5t-2 68.5q0 46 7 71q3 12 10 16.5t28 7.5q14 1 134 4q95 2 120 1q15 -1 63 -5.5t71 -4.5q55 -1 87 11q20 7 19 21zM170 727l-9 -12v-39l31 9l97 3l-45 -69l-45 -46l-29 -21l-25 -10h-13v-11l13 -18l24 -12h22l19 19l51 49l32 45v-148v-30h42v198l-6 7l-20 -2
l14 29l8 20h83l22 -9l26 -4l17 4l9 17l7 20v11h-325zM369 619h18l12 -15l42 -35l34 -12l14 -9l-5 -11l-19 -21h-14h-15l-37 30l-30 41l-9 21v6zM596 730h-7v-29h113v-15h-113l-15 -7v-8l5 -6l-1 -56h33l1 49h90v-61h36v62h93v-50l34 -1v56l6 11l-16 13h-117l2 14h112l1 28
h-257zM628 646h-5v-21h69v21h-64zM628 613l-5 -5v-15h69v20h-64zM758 646l-6 -4v-17h69v21h-63zM758 613l-6 -4v-16h69v20h-63zM560 584l-9 -8v-24h25l10 4h107v-16h-71h-16l-14 -7l4 -16l-2 -85h36v71h39v-71h33v71l35 1v-72h34v71h41v-71h39v83l5 14l-24 12l-13 -3l-90 1
l2 18h88l24 -6h31l16 16v17h-330z" />
    <glyph glyph-name="stoploss" unicode="&#xe60a;" 
d="M881 341h-166l-9 -4l-1 -25l5 -17l-2 -42l-5 -15l3 -13h28l6 2h116l8 -3h20l3 6v80l3 21zM848 265h-101v44h101v-44zM478 602l7 9v38h19v32h-18v27l4 10l-5 15h-27l-2 -4h-45v22l-6 4h-39v-26l-61 1l-9 -7v-24h76v-15h-67l-12 -8l-2 -25h45l5 1l32 -1v-19h-68l-10 -8v-22
h70v-12h-64l-5 -3v-27h69v-14h-63l-6 -5v-25h70v-23h42v23h79v29h-79v16h78v28h-78v13h70zM407 699h38v-15h-38v15zM407 631v20h38v-20h-38v0zM829 90l-8 -7l-3 -13l6 -18l17 -14l22 -11l16 -5l18 1l12 11l4 15l-2 6l-19 1l-30 12l-20 14l-5 7zM553 272l5 6h40v73h43v-26
l-5 -47h41v-35h-38v-59l37 11v-31l-38 -14v-104l-10 -16l-13 -10h-41l-13 15l-2 22h11l6 -4l14 2l9 9v70l-38 -12l-8 4v33l7 5l39 7v71h-25l-10 -3l-13 3zM704 207l-7 -11l3 -19v-87h39v81h118v-82h45v84l5 16l-1 6l-18 14h-182zM304 325v-21l2 -16v-219h-67v147l3 17l-4 11
h-38l-4 -7l4 -30v-138h-55l-7 -7v-32h32l24 5h196l82 -12h12l16 19l4 19v10l-16 -3h-139v116h115v35h-115v78l6 13l-4 15h-47zM784 160l-10 -8l-2 -43l-12 -26l-25 -16l-29 -9l-17 -3h-15v-11l12 -16l17 -6h26l26 11l26 21l17 24l11 29l6 22l2 14v11l-6 5zM726 721l-2 -9
l3 -7l41 -35l5 2l8 13l-3 16l-10 29l-6 4h-12zM595 735l-15 -2l-6 -11l-4 -26l7 -6l30 -3l26 1l13 6l1 11l-13 7l-26 12zM692 685l-19 -14l-3 -10l5 -14l38 -81l26 -43l1 -7l-17 -18l-61 -30h-6v29l-29 -12h-6l4 113l9 14l1 16l-7 9l-12 5l-25 -3l-43 1l-9 -6l-1 -32l52 1
v-117l-13 -14l-4 -12l4 -18l10 -9l13 1l39 16l18 -17l16 -4l21 2l34 19l39 33l5 1l23 -22l33 -22l28 -11l22 -2l21 10l12 20v11l-8 3l-40 5l-40 22l-20 17l-2 11l15 26l18 40l12 35l13 44l2 12l5 9l-1 9l-37 8l-7 -5l-2 -28l-6 -47l-16 -37l-17 -34l-9 -5l-6 5l-28 48
l-18 42l-12 29l-4 8h-11zM465 473l-44 5l-54 10l-94 31l-8 4l8 53l11 29v10l-23 13l-28 -1l21 37l35 28l1 12l-19 18h-107v-34h25l5 3l40 -1l1 -4l-18 -21l-20 -24l-10 -14l-17 -1l-5 -4l5 -29l19 -2l42 7l10 -1v-11l-6 -48l-11 1l-24 13l-10 5l-12 -7l-17 -21l4 -10l43 -12
l6 -2l-5 -12l-22 -17l-12 -9l-21 -5l1 -8l21 -15l24 -1l19 7l21 20l10 23l4 2l51 -20l114 -37l41 -6l30 6l32 21v19h-57zM1023 256q0 7 -5 68q-1 8 -1.5 20t-1.5 18q-5 34 -4 41q0 6 2.5 26.5t3.5 37.5q1 26 1 115q-1 19 -1 50v46q0 59 -4 90q-5 39 -17 64.5t-32 37.5
q-19 12 -72 15q-80 4 -151 0q-46 -3 -63 -14q-15 -10 -17 -20q0 -5 2.5 -8t11.5 -6.5t26 -5.5q29 -4 142 -5q53 0 66 -4q17 -5 25 -24q11 -25 16 -135q7 -149 9 -390q2 -185 -3 -251q-4 -53 -18 -67q-5 -5 -14 -7.5t-42 -5.5t-95 -4q-129 -3 -506 -3q-144 0 -156 3
q-19 3 -29 15q-11 15 -15 69q-3 56 -4 190q-1 138 -2 157q-2 39 -12 44q-13 6 -27 -1q-11 -5 -16 -19q-3 -9 -5 -44q-3 -72 -3 -131q1 -66 7 -150q5 -65 11 -93q8 -35 23 -55q14 -17 35 -25q16 -5 52 -8q43 -4 85 -5q40 -1 89 1q98 4 102 4q17 0 47 -1.5t42 -1.5
q42 -2 140 -2q66 0 91 2q67 6 72 6q16 0 49.5 -3t42.5 -3q37 -2 64 3q25 4 36 16q12 12 17 42q4 26 4 80q-1 17 -1.5 50.5t-0.5 46.5q0 19 3 59q2 44 1 75zM605 849q-1 17 -18 25q-17 9 -75 11q-85 4 -141 0q-15 -1 -42 -5t-54 -5q-20 -2 -88 -3.5t-94 -3.5
q-21 -1 -33.5 -4.5t-16 -6t-6.5 -7.5q-10 -14 -16 -35q-13 -41 -18 -94q-5 -64 -1 -139q5 -65 17 -92q11 -24 29 -28q7 -1 11.5 3.5t6.5 19.5q5 32 4 108q-1 17 -2.5 65t-1.5 68q0 47 6 72q3 11 10 16t29 7q14 2 133 4q95 2 120 1q16 -1 64 -5t71 -5q55 -1 87 11q20 8 19 22
z" />
    <glyph glyph-name="ren" unicode="&#xe640;" 
d="M511 838q-91 0 -174.5 -35.5t-143.5 -95.5t-95.5 -143.5t-35.5 -174.5q0 -157 97 -279q81 -102 204 -145q71 -25 148 -25t148 25q124 43 205 147q96 122 96 277q0 91 -35.5 174.5t-95.5 143.5t-143.5 95.5t-174.5 35.5zM825 136l-164 63q-32 13 -44 25t0 50
q1 6 25.5 41.5t46 81.5t21.5 84q0 101 -58 173t-140 72t-140.5 -72t-58.5 -173q0 -29 13 -64.5t26.5 -60t30 -50t17.5 -26.5q6 -14 5.5 -31t-6.5 -24q-5 -5 -18 -11.5t-23 -9.5l-11 -4l-149 -66q-90 111 -90 255q0 110 54 203t146.5 147t202.5 54t202.5 -54t146.5 -147
t54 -203q0 -143 -89 -253z" />
    <glyph glyph-name="logo2" unicode="&#xe60f;" horiz-adv-x="2775" 
d="M2730 458l-0.5 -0.5l-0.5 -0.5q0 -2 -1.5 -3.5t-1.5 -2.5q-19 -35 -30 -46q-24 -20 -52 -20h-111h-10h-2v-1q0 -2 -0.5 -7t-1.5 -7q0 -5 -2 -14t-3 -14q-2 -10 -5 -28.5t-5 -27.5v-1h-2h-3h-140q-2 0 0 2q0 1 0.5 2t0.5 2q2 10 3 14q2 9 5 27.5t5 27.5q2 11 3 14
q1 1 1 3.5t1 3.5v2q1 2 -1 2h-333q-30 0 -43 -3q-25 -9 -40 -30q-4 -6 -11 -18t-15 -26.5t-10 -18.5q-1 -1 -7 -1h-332h-3q0 1 0.5 2l0.5 1q1 4 2 13q4 17 5 24q6 33 9 50q3 16 9.5 49t9.5 50q24 124 35 186q0 1 0.5 3t0.5 3v2v1v2h-232q-6 0 -6 -1q-1 -1 -2 -3t-2 -3
q-1 -2 -3.5 -6t-3.5 -6q-2 -4 -6.5 -11.5t-6.5 -12.5q-9 -15 -27 -46.5t-27 -47.5q-3 -5 -28 -50t-49.5 -87t-29.5 -49q-30 -40 -76 -55q-22 -6 -46 -8h-147v0h-2q0 1 0.5 2l0.5 1q0 1 1 3t1 3q1 2 2.5 6t1.5 6q3 8 8.5 23.5t8.5 23.5q0 1 1 3t1 3q1 2 6 2h52q26 0 48 14
q15 11 30 36l1 1v1l1 1l1 1v1l1 1v1l1 1v1l1 1l1 1v1l1 1v1l1 1v1l1 1l1 1v1l1 1v1l1 1v1l1 1v1l1 1l1 1v1l1 1v1l1 1v1l1 1l1 1v1l1 1v1l1 1v1l1 1l1 1v1l1 1v1l1 1v1l1 1l1 1v1l1 2v1l1 1v1l1 1l1 1v1l1 1v1l1 1v1l1 1l1 1v1l1 1v1l1 1v1l1 1l1 1v1l1 1v1l1 1v1l1 1l1 1v1
l1 1v1l1 1v1l1 1q47 82 93 164q5 8 6 11v2h-173v2l0.5 1.5l0.5 1.5q0 1 0.5 3t1.5 3q3 9 9 25t7 21q3 7 4 12q0 4 3 4h185q5 0 6 2q1 1 2 3t2 3q2 4 7 12.5t7 12.5q14 23 15 26q1 1 2 3t2 3l0.5 1.5t1.5 1.5h143v0l2 -1q-1 -1 -2 -3t-2 -3q-1 -2 -3.5 -6.5t-3.5 -6.5
q-3 -3 -14 -25q-1 -1 -8 -13l-1.5 -2.5t-2.5 -2.5q0 -2 -2 -3q0 -1 2 -1h352h1v0v-2q0 -2 -0.5 -4.5t-0.5 -3.5l-3 -15q-1 -4 -3 -14l-3 -15q-13 -70 -21 -116q-16 -87 -21 -116q-8 -39 -12 -59q0 -5 -2 -14.5t-3 -14.5q0 -1 -0.5 -3.5t-0.5 -3.5v-2h100h1v0v1l1 1l2 4t3 5
t2 4q26 45 74 67q9 4 17.5 6.5t15 4t16.5 2t14.5 1t17.5 0t17 -0.5h360q6 0 6 2t0.5 6t1.5 6q1 4 2.5 13t1.5 13q7 33 19.5 100t18.5 101q7 33 19 100q0 3 1 6q0 1 6 1h138q1 0 1 -5q0 -2 -2 -6q0 -3 -1 -7t-1 -6q-1 -4 -2.5 -12.5t-2.5 -12.5q-3 -17 -9 -50t-9 -50
t-9.5 -50t-9.5 -50q-5 -31 -9 -51q-1 -4 -2.5 -12.5t-2.5 -12.5q0 -2 -1 -6t-1 -6q0 -1 -0.5 -3t-0.5 -3q0 -2 -1 -3q0 -1 2 -1h191q1 -2 2 -2v-1zM2104 745q-4 0 -13 -2q9 2 13 2zM2109 745h-4h2h2zM2250 672h-2h-3h5zM2257 673h-2h-6h4h4zM790 388q-30 -161 -134.5 -288.5
t-257.5 -188.5q-38 -14 -76 -24q-25 -6 -37 -9q-3 -1 -9.5 -2t-9.5 -2q-2 0 -5 -0.5t-5 -0.5l-1.5 -0.5t-2.5 -0.5h-2v0q0 1 1 1q71 44 129 101q61 59 105 126q2 3 5 9q1 3 3 5v0v0h-1.5h-0.5q-14 -3 -20 -4q-21 -4 -40 -5q-39 -3 -78 3q-111 13 -197.5 79.5t-127 168
t-21.5 212.5q19 110 91 192t175.5 116t212.5 10q82 -17 150 -66q38 -29 63 -57q3 -3 1 -3q0 1 -1 1.5l-1 0.5q-3 1 -4 2t-3.5 2.5t-4.5 2.5q-3 1 -8.5 4t-8.5 4q-14 7 -36 15q-76 27 -156 17t-147 -54q-71 -46 -111 -117q-45 -76 -46 -150q-1 -85 53.5 -149t138.5 -77
q83 -12 154.5 33.5t95 127t-12.5 156.5t-114 107q14 66 111 77q22 3 51 2q13 0 26 -2q3 -1 7.5 -1t6.5 -1q1 0 3 -0.5t3 -0.5q4 0 6 -2q29 -33 49 -69q72 -128 39 -301zM1218 24v-8q0 -14 2 -24q3 -12 7 -19q4 -8 11 -17q13 -13 28 -20q15 -6 33 -6q15 0 32 6q15 7 26 18
t17 27q5 13 5 36v8v115h-55v-123v-5q0 -12 -7 -20q-6 -7 -17 -7q-7 0 -13 3q-6 4 -9 10t-3 20v123h-55q-2 -40 -2 -117v0zM2031 -39q0 -14 10 -22q8 -10 21.5 -10t22.5 10q9 9 9 22q0 8 -4.5 16t-11.5 11q-6 5 -16 5q-9 0 -15 -5q-8 -4 -12 -11q-4 -8 -4 -16zM1603 36
q0 30 15 54q15 25 39 39t53.5 14t52.5 -14q25 -14 40 -39q14 -24 14 -53.5t-14 -53.5q-15 -25 -40 -39q-25 -15 -53 -15q-29 0 -53 14q-26 15 -39 39q-15 25 -15 54zM1658 36q0 -15 8 -25q6 -11 19 -20q14 -7 26 -7q15 0 26 7q12 7 19 20q7 12 7 25q0 15 -7 26q-6 11 -19 20
q-12 6 -26 6t-26 -6q-11 -6 -19 -20q-8 -11 -8 -26zM1841 24v115h55v-123q0 -14 3 -20q4 -6 9 -9q6 -4 13 -4q11 0 17 8q7 7 7 20v5v123h55v-116v-7q0 -22 -5 -37q-7 -16 -17 -27q-11 -11 -26 -18q-13 -6 -32 -6q-18 0 -34 7q-14 6 -27 20q-7 8 -11 16q-5 10 -7 20t-2 24
q2 4 2 9v0zM894 -71h-43h-2q-28 0 -44 20q-3 3 -8 10q-2 4 -5 13q-2 5 -3 16q-1 5 -1 16v7v20h55v-20v-3q0 -15 5 -23q5 -7 14 -7v0h20v0q10 0 14 7t4 23v5v173h55v-172v-9q0 -11 -1 -17q-1 -10 -3 -15q-2 -7 -5 -13t-7 -10q-17 -20 -45 -20v-1zM1409 184h56q47 0 65 -9
q36 -16 49 -54q5 -16 5 -47v-40q0 -48 -29 -75q-27 -25 -65 -25h-51h-20h-10v2v3v23v24v2h2h5h10h20h43q14 0 25 7q8 6 12 15t4 13.5v18.5q0 55 -1 59q-4 15 -18 24q-10 6 -33 6h-39h-20h-10v2v3v48v0zM1964 574q-1 -1 -3 -4t-3 -4q-3 -6 -9 -17t-9 -16q23 39 24 41z
M2255 606q-22 -40 -24 -42q1 2 3 4.5t3 4.5q7 10 18 33zM2255 606h-1h1v0zM2577 53v3v3v3q0 6 2 13t7 10q6 4 13 4q6 0 11 -3q5 -2 7 -8q3 -3 4 -21v-4v-120h55v120v4q0 15 3 21q2 4 8 8q6 3 10 3q6 0 10 -2q6 -5 8 -8q4 -6 4 -20v-6v-120h54v118v8q0 9 -1 21q-3 12 -6 18
q-3 7 -10 16q-8 8 -18 15q-11 7 -22 10q-10 3 -23 3q-25 0 -46 -14q-22 14 -46 14q-17 0 -33 -6q-14 -6 -27 -19q-6 -6 -11 -17q-5 -8 -7 -19t-2 -24v-7v-117h55q1 41 1 120v0zM2263 -12q-53 -4 -65 3q-13 7 -19 19q-7 13 -7 26q0 16 7 27q6 12 19 19q27 11 66 5v55
q-19 1 -49 0q-21 -1 -44 -13q-26 -15 -39 -39q-15 -25 -15 -54q0 -22 9 -42q8 -20 24 -36q14 -12 22 -16q2 -1 4.5 -2.5t4.5 -2.5t3 -1q8 -3 14 -4q12 -3 28 -3q12 0 38 2q-1 20 -1 57zM1409 131h55v-110h-55v110zM2255 606q-2 -6 -8.5 -17t-9.5 -16l-6 -9q-1 -2 -4 -4
q-1 0 -2 -2l-1 -1q-2 -1 -4.5 -3.5l-3.5 -3.5q-1 0 -2.5 -1.5t-2 -1.5t-1.5 -1t-2 -1q-1 -1 -4 -2q-2 -2 -4 -3v0q-1 0 -2 -0.5t-2 -0.5q-3 -2 -5 -2q-4 -1 -9 -2q-1 0 -2 -0.5t-2 -0.5v0h-1h-4h-4h-5h-226q3 5 9.5 16t9.5 16q1 3 6 9q6 9 15 15l1.5 1.5t2.5 1.5t2 1t2 1
q0 1 3 2l5 3v0q1 0 2 0.5t1.5 0.5t2.5 1t3 1q8 3 22 4h4h226v-1zM2175 533q2 0 3 1h-2zM2025 605q-10 0 -22 -4q9 4 22 4zM2029 606h-4h2h2zM2170 533h-1h-3h4zM2178 534h-3h-5h4h4zM2335 745q-3 -6 -9.5 -16.5t-9.5 -16.5l-1 -1.5t-2 -2.5v0q0 -1 -1 -2l-1 -1q0 -1 -1 -1v0
q0 -1 -1 -2l-2 -2l-1.5 -1.5t-1.5 -2.5l-4 -4l-4 -3l-2 -2t-2 -1.5l-2 -1t-2 -1.5q-1 0 -4 -2l-4 -2v0v0q-1 0 -2 -0.5t-2 -1.5q-3 -1 -5 -1q-4 -1 -9 -2q-1 0 -2 -0.5t-2 -0.5h-1q-2 0 -4 -1h-4h-5h-226q3 6 9.5 16.5t9.5 16.5q1 3 3 4q1 2 4 5l1 1.5t2 1.5l2 3l4 4l4 4
q1 0 1 1l1.5 1t2.5 1.5l2 1t2 1.5l1 1t2 1l4 2v0v0q1 1 2 1t2 1q1 0 3 1t3 1t2 0.5t2 0.5h1.5h2.5q9 2 13 2h5h226zM2254 672q2 0 4 1h-3zM2040 709q-1 0 -2 -1.5t-1 -2.5q-3 -6 -9.5 -16.5t-9.5 -16.5q4 6 11 19t11 18zM2335 745q-18 -31 -20 -35l0.5 1l0.5 1q7 11 19 33z
M2335 745h-1v0h1zM981 36q0 30 14 54q15 25 39 39t53.5 14t53.5 -14q25 -14 39 -39q14 -24 14 -53.5t-14 -53.5q-15 -25 -39 -39q-25 -15 -53 -15q-30 0 -54 14q-25 15 -39 39q-14 25 -14 54zM1036 36q0 -15 7 -25q6 -11 20 -20q13 -7 25 -7q16 0 26 7q13 7 20 20q6 12 6 25
q0 15 -6 26t-20 20q-12 6 -25.5 6t-25.5 -6q-11 -6 -20 -20q-7 -11 -7 -26zM2285 36q0 30 14 54q15 25 39 39t53.5 14t53.5 -14q25 -14 39 -39q15 -24 15 -53.5t-15 -53.5q-15 -25 -39 -39q-25 -15 -53 -15q-30 0 -54 14q-25 15 -39 39q-14 25 -14 54zM2340 36q0 -15 7 -25
q6 -11 20 -20q13 -7 26 -7q15 0 25 7q13 7 20 20q6 12 6 25q0 15 -6 26t-20 20q-12 6 -25.5 6t-25.5 -6q-11 -6 -20 -20q-7 -11 -7 -26z" />
    <glyph glyph-name="piao" unicode="&#xe600;" 
d="M62 611v-30q58 -39 123 -46t126 11t123.5 47t125.5 60t123 53t125.5 22t123.5 -30v-524q16 -8 30 -17v553q-60 40 -127.5 46.5t-130 -13.5t-127.5 -51t-130 -62.5t-127.5 -51t-130 -13.5t-127.5 46zM122 641v-30q50 -19 96.5 -17.5t96.5 14.5t96.5 35.5t97 46t97 46.5
t96.5 36.5t97 16t97 -14.5t97 -56v-523q14 -12 30 -27v554q-44 43 -90.5 66.5t-90 28t-90 -2.5t-90 -24.5t-90.5 -38.5t-90 -44t-90 -41.5t-90 -30.5t-90 -11t-90 17zM1 600v-554q44 -43 90.5 -66.5t90 -28t90 2.5t90 24.5t90.5 38.5t90 44t90 41.5t90 30.5t90 11t90 -17
v553q-43 16 -90 17t-90 -10.5t-90 -30t-90 -41.5t-90 -44t-90.5 -39t-90 -25t-90 -2.5t-90 28.5t-90.5 67zM452 89q-57 -26 -102 -14.5t-72.5 53.5t-27.5 100q0 80 57 153t145 118q84 42 143 9t59 -120q0 -83 -59 -169.5t-143 -129.5zM516 329q-14 3 -56 -6v87q25 11 36 -2
q6 -7 7 -19q6 2 16.5 7.5t14.5 7.5q-1 30 -20 39q-18 9 -54 -6v23q-11 -5 -16 -7v-24q-36 -17 -55 -47q-20 -29 -20 -56q0 -31 18 -40q19 -10 57 0v-97q-30 -11 -41 4q-6 9 -8 33q-18 -8 -31 -12q0 -31 10 -45q19 -27 70 -7v-34q3 1 9 4t7 4v34q32 19 49 39q31 35 31 82
q0 33 -24 38zM444 319q-20 -6 -31.5 -1t-11.5 23q0 14 10 32q9 17 33 29v-83zM502 239q-12 -27 -42 -43v94q23 4 32 2q16 -3 16 -26q0 -13 -6 -27z" />
    <glyph glyph-name="tixing1" unicode="&#xe767;" 
d="M919 380q0 106 -52.5 196t-142 142t-195.5 52t-196 -52t-142 -142t-52 -196t52.5 -196t141.5 -142l-80 -79l62 -10l66 66q71 -29 148 -29q88 0 168 38l75 -75l62 10l-91 91q81 53 128.5 139t47.5 187zM529 48q-90 0 -166.5 44.5t-121 121t-44.5 166.5t44.5 166.5t121 121
t166.5 44.5t166.5 -44.5t120.5 -121t44 -166.5t-44 -166.5t-120.5 -121t-166.5 -44.5zM865 756q27 -27 28.5 -65.5t-23.5 -66.5l36 -36q40 43 38.5 102.5t-43.5 101.5t-101.5 43.5t-102.5 -38.5l36 -36q28 25 66.5 23.5t65.5 -28.5zM180 624q-25 28 -23.5 66.5t28.5 65.5
t65 28.5t67 -23.5l36 36q-43 40 -102.5 38.5t-101.5 -43.5t-43.5 -101.5t38.5 -102.5zM536 575h-51v-254h251v51h-200v203z" />
    <glyph glyph-name="gupiao" unicode="&#xe601;" 
d="M901 90h-744v622q0 15 -9.5 24.5t-24.5 9.5t-24.5 -9.5t-9.5 -24.5v-663q0 -15 9.5 -24.5t24.5 -9.5h778q15 0 24.5 9.5t9.5 24.5q0 17 -9.5 29t-24.5 12v0zM259 241h14q24 0 34 20l55 157l266 -136q10 -6 23 -1.5t18 14.5l184 307q7 10 4 23.5t-17 17.5q-10 7 -24.5 4
t-23.5 -17l-164 -280l-266 143h-27q-6 0 -13.5 -7.5t-7.5 -12.5l-75 -185q-9 -28 20 -47v0z" />
    <glyph glyph-name="news" unicode="&#xe602;" 
d="M889 154v0q-10 -10 -23 -10t-23 10l-90 90q-9 9 -9 22.5t9 22.5v0q9 9 22.5 9t22.5 -9l91 -90q9 -10 9 -23t-9 -22zM935 415v0q0 -14 -9 -23t-23 -9h-127q-13 0 -22.5 9t-9.5 23v0q0 13 9.5 22.5t22.5 9.5h127q14 0 23 -9.5t9 -22.5zM753 522v0q9 -9 22.5 -9t22.5 9
l91 90q9 10 9 23t-9 22v0q-10 10 -23 10t-23 -10l-90 -90q-9 -9 -9 -22.5t9 -22.5zM623 -56q-17 0 -33 13l-246 209q-10 9 -11.5 22t7 23t22 11t23.5 -7l216 -183v704l-194 -166q-31 -26 -72 -26h-182v-322h87q13 0 22.5 -9.5t9.5 -22.5t-9.5 -22.5t-22.5 -9.5h-90
q-26 0 -43.5 18t-17.5 43v328q0 25 17.5 43t43.5 18h185q18 0 31 11l224 192q25 21 50 9t25 -44v-784q0 -32 -25 -44q-8 -4 -17 -4z" />
    <glyph glyph-name="angleleft" unicode="&#xe60c;" 
d="M354 384l389 389q10 10 10 24.5t-10 24.5t-24.5 10t-24.5 -10l-413 -413q-5 -6 -8 -12q-8 -21 8 -38l413 -413q10 -10 24.5 -10t24.5 10t10 24.5t-10 24.5z" />
    <glyph glyph-name="angleright" unicode="&#xe60d;" 
d="M751 397q-3 7 -8 12l-413 413q-10 10 -24.5 10t-24.5 -10t-10 -24.5t10 -24.5l389 -389l-389 -389q-10 -10 -10 -24.5t10 -24.5t24.5 -10t24.5 10l413 413q16 17 8 38z" />
    <glyph glyph-name="datafile" unicode="&#xe60e;" 
d="M223 384h180v-60h-180v60zM223 264h180v-60h-180v60zM223 144h180v-60h-180v60zM890 677l-134 134q-22 22 -59.5 37.5t-68.5 15.5h-450q-31 0 -53 -22t-22 -53v-810q0 -31 22 -53t53 -22h690q31 0 53 22t22 53v570q0 31 -15.5 68.5t-37.5 59.5zM847 635q4 -4 9 -11h-153
v153q6 -4 10 -8zM883 -21q0 -6 -4.5 -10.5t-10.5 -4.5h-690q-6 0 -10.5 4.5t-4.5 10.5v810q0 6 4.5 10.5t10.5 4.5h450q6 0 15 -2v-238h238q2 -8 2 -15v-570v0zM583 204h177q-11 -52 -52 -86t-95 -34q-62 0 -106 44t-44 106q0 54 34 95t86 52v-177zM673 444q62 0 106 -44
t44 -106q0 -15 -3 -30h-177v177q15 3 30 3z" />
    <glyph glyph-name="internal" unicode="&#xe611;" 
d="M545 668h-545v-796h256v57h-199v683h488l-187 -188l40 -40l256 256l-256 256l-40 -40zM479 100h545v796h-256v-57h199v-683h-488l187 188l-40 40l-256 -256l256 -256l40 40z" />
    <glyph glyph-name="logo" unicode="&#xe612;" horiz-adv-x="2775" 
d="M2730 458l-0.5 -0.5l-0.5 -0.5q0 -2 -1.5 -3.5t-1.5 -2.5q-19 -35 -30 -46q-24 -20 -52 -20h-111h-10h-2v-1q0 -2 -0.5 -7t-1.5 -7q0 -5 -2 -14t-3 -14q-2 -9 -5 -28t-5 -28v-1h-2h-3h-140q-2 0 0 2q0 1 0.5 2t0.5 2q2 10 3 14q2 9 5 27.5t5 27.5q2 11 3 14q1 1 1 3.5
t1 3.5v2q1 2 -1 2h-333q-30 0 -43 -3q-25 -9 -40 -30q-4 -6 -11 -18t-15 -26.5t-10 -18.5q-1 -1 -7 -1h-332h-3q0 1 0.5 2l0.5 1q1 4 2 13l5 24q6 33 9 50q3 16 9.5 49t9.5 50q24 124 35 186q0 1 0.5 3t0.5 3v2v1v2h-232q-6 0 -6 -1q-1 -1 -2 -3t-2 -3q-1 -2 -3.5 -6
t-3.5 -6q-2 -4 -6.5 -11.5t-6.5 -12.5q-9 -15 -27 -46.5t-27 -47.5q-3 -5 -28 -50t-49.5 -87t-29.5 -49q-30 -40 -76 -55q-22 -6 -46 -8h-147v0h-2q0 1 0.5 2l0.5 1q0 1 1 3t1 3q1 2 2.5 6t1.5 6q3 8 8.5 23.5t8.5 23.5q0 1 1 3t1 3q1 2 6 2h52q26 0 48 14q15 11 30 36
l47 83l93 164q5 8 6 11v2h-173v2l0.5 1.5l0.5 1.5q0 1 0.5 3t1.5 3q3 9 9 25t7 21q3 7 4 12q0 4 3 4h185q5 0 6 2q1 1 2 3t2 3q2 4 7 12.5t7 12.5q14 23 15 26q1 1 2 3t2 3l0.5 1.5t1.5 1.5h143v0l2 -1q-1 -1 -2 -3t-2 -3q-1 -2 -3.5 -6.5t-3.5 -6.5q-3 -3 -14 -25
q-1 -1 -8 -13l-1.5 -2.5t-2.5 -2.5q0 -2 -2 -3q0 -1 2 -1h352h1v0v-2q0 -2 -0.5 -4.5t-0.5 -3.5l-3 -15q-1 -4 -3 -14l-3 -15q-13 -70 -21 -116q-16 -87 -21 -116q-8 -39 -12 -59q0 -5 -2 -14.5t-3 -14.5q0 -1 -0.5 -3.5t-0.5 -3.5v-2h100h1v0v1l1 1l2 4q1 2 3 5t2 4
q26 45 74 67q9 4 17.5 6.5t15 4t16.5 2t14.5 1t17.5 0t17 -0.5h360q6 0 6 2t0.5 6t1.5 6q1 4 2.5 13t1.5 13q7 33 19.5 100.5t18.5 100.5q7 33 19 100q0 3 1 6q0 1 6 1h138q1 0 1 -5q0 -2 -2 -6q0 -3 -1 -7t-1 -6q-1 -4 -2.5 -12.5t-2.5 -12.5q-3 -17 -9 -50t-9 -50
t-9.5 -50t-9.5 -50q-5 -31 -9 -51q-1 -4 -2.5 -12.5t-2.5 -12.5q0 -2 -1 -6t-1 -6q0 -1 -0.5 -3t-0.5 -3q0 -2 -1 -3q0 -1 2 -1h191q1 -2 2 -2v-1zM2104 745q-4 0 -13 -2q9 2 13 2zM2109 745h-4h2h2zM2250 672h-2h-3h5zM2257 673h-2h-6h4h4zM790 388q-30 -161 -134.5 -288.5
t-257.5 -188.5q-38 -14 -76 -24l-37 -9q-3 -1 -9.5 -2t-9.5 -2q-2 0 -5 -0.5t-5 -0.5l-1.5 -0.5t-2.5 -0.5h-2v0q0 1 1 1q71 44 129 101q61 59 105 126q2 3 5 9q1 3 3 5v0v0h-1.5h-0.5q-14 -3 -20 -4q-21 -4 -40 -5q-39 -3 -78 3q-111 13 -197.5 79.5t-127 168t-21.5 212.5
q19 110 91 192t175.5 116t212.5 10q82 -17 150 -66q38 -29 63 -57q3 -3 1 -3q0 1 -1 1.5l-1 0.5q-3 1 -4 2t-3.5 2.5t-4.5 2.5q-3 1 -8.5 4t-8.5 4q-14 7 -36 15q-76 27 -156 17t-147 -54q-71 -46 -111 -117q-45 -76 -46 -150q-1 -85 53.5 -149t138.5 -77q83 -12 154.5 33.5
t95 127t-12.5 156.5t-114 107q14 66 111 77q22 3 51 2q13 0 26 -2q3 -1 7.5 -1t6.5 -1q1 0 3 -0.5t3 -0.5q4 0 6 -2q29 -33 49 -69q72 -128 39 -301zM1218 24v-8q0 -14 2 -24q3 -12 7 -19q4 -8 11 -17q13 -13 28 -20q15 -6 33 -6q15 0 32 6q15 7 26 18t17 27q5 13 5 36v8
v115h-55v-123v-5q0 -12 -7 -20q-6 -7 -17 -7q-7 0 -13 3q-6 4 -9 10t-3 20v123h-55q-2 -40 -2 -117zM2031 -39q0 -14 10 -22q8 -10 21.5 -10t22.5 10q9 9 9 22q0 8 -4.5 16t-11.5 11q-6 5 -16 5q-9 0 -15 -5q-8 -4 -12 -11q-4 -8 -4 -16zM1603 36q0 30 15 54q15 25 39 39
t53.5 14t52.5 -14q25 -14 40 -39q14 -24 14 -53.5t-14 -53.5q-15 -25 -40 -39q-25 -15 -53 -15q-29 0 -53 14q-26 15 -39 39q-15 25 -15 54zM1658 36q0 -15 8 -25q6 -11 19 -20q14 -7 26 -7q15 0 26 7q12 7 19 20q7 12 7 25q0 15 -7 26q-6 11 -19 20q-12 6 -26 6t-26 -6
q-11 -6 -19 -20q-8 -11 -8 -26zM1841 24v115h55v-123q0 -14 3 -20q4 -6 9 -9q6 -4 13 -4q11 0 17 8q7 7 7 20v5v123h55v-116v-7q0 -22 -5 -37q-7 -16 -17 -27q-11 -11 -26 -18q-13 -6 -32 -6q-18 0 -34 7q-14 6 -27 20q-7 8 -11 16q-5 10 -7 20t-2 24q2 4 2 9zM894 -71h-43
h-2q-28 0 -44 20q-3 3 -8 10q-2 4 -5 13q-2 5 -3 16q-1 5 -1 16v7v20h55v-20v-3q0 -15 5 -23q5 -7 14 -7v0h20v0q10 0 14 7t4 23v5v173h55v-172v-9q0 -11 -1 -17q-1 -10 -3 -15q-2 -7 -5 -13t-7 -10q-17 -20 -45 -20v-1zM1409 184h56q47 0 65 -9q36 -16 49 -54q5 -16 5 -47
v-40q0 -48 -29 -75q-27 -26 -65 -26h-51h-20h-10v3v3v23v24v2h2h5h10h20h43q14 0 25 7q8 6 12 15t4 13.5v18.5q0 55 -1 59q-4 15 -18 24q-10 6 -33 6h-39h-20h-10v2v3v48zM1964 574q-1 -1 -3 -4t-3 -4q-3 -6 -9 -17t-9 -16q23 39 24 41zM2255 606q-22 -40 -24 -42q1 2 3 4.5
t3 4.5q7 10 18 33zM2255 606h-1h1v0zM2577 53v3v3v3q0 6 2 13t7 10q6 4 13 4q6 0 11 -3q5 -2 7 -8q3 -3 4 -21v-4v-120h55v120v4q0 15 3 21q2 4 8 8q6 3 10 3q6 0 10 -2q6 -5 8 -8q4 -6 4 -20v-6v-120h54v118v8q0 9 -1 21q-3 12 -6 18q-3 7 -10 16q-8 8 -18 15q-11 7 -22 10
q-10 3 -23 3q-25 0 -46 -14q-22 14 -46 14q-17 0 -33 -6q-14 -6 -27 -19q-6 -6 -11 -17q-5 -8 -7 -19t-2 -24v-7v-117h55q1 41 1 120zM2263 -12q-53 -4 -65 3q-13 7 -19 19q-7 13 -7 26q0 16 7 27q6 12 19 19q27 11 66 5v55q-19 1 -49 0q-21 -1 -44 -13q-26 -15 -39 -39
q-15 -25 -15 -54q0 -22 9 -42q8 -20 24 -36q14 -12 22 -16q2 -1 4.5 -2.5t4.5 -2.5t3 -1q8 -3 14 -4q12 -3 28 -3q12 0 38 2q-1 20 -1 57zM1409 131h55v-110h-55v110zM2255 606q-2 -6 -8.5 -16.5t-9.5 -16.5l-6 -9q-1 -2 -4 -4l-3 -3q-2 -1 -4.5 -3.5l-3.5 -3.5
q-1 0 -2.5 -1.5t-2 -1.5t-1.5 -1t-2 -1q-1 -1 -4 -2l-4 -3v0q-1 0 -2 -0.5t-2 -0.5q-3 -2 -5 -2l-9 -2q-1 0 -2 -0.5t-2 -0.5v0h-1h-4h-4h-5h-226q3 5 9.5 16t9.5 16q1 3 6 9q6 9 15 15l1.5 1.5t2.5 1.5t2 1t2 1q0 1 3 2l5 3v0q1 0 2 0.5t1.5 0.5t2.5 1t3 1q8 3 22 4h4h226
v-1zM2175 533q2 0 3 1h-2zM2025 605q-10 0 -22 -4q9 4 22 4zM2029 606h-4h2h2zM2170 533h-1h-3h4zM2178 534h-3h-5h4q1 -1 3 0h1zM2335 745q-3 -6 -9.5 -16.5t-9.5 -16.5l-1 -1.5t-2 -2.5v0q0 -1 -1 -2l-1 -1q0 -1 -1 -1v0q0 -1 -1 -2l-2 -2l-1.5 -1.5t-1.5 -2.5l-2 -2
l-2 -2l-2 -2l-2 -1l-2 -2t-2 -1.5l-2 -1t-2 -1.5q-1 0 -4 -2l-4 -2v0v0q-1 0 -2 -0.5t-2 -1.5q-3 -1 -5 -1l-9 -2q-1 0 -2 -0.5t-2 -0.5h-1q-2 0 -4 -1h-4h-5h-226q3 6 9.5 16.5t9.5 16.5q1 3 3 4q1 2 4 5l1 1.5t2 1.5v1q1 2 2 2l2 2l2 2l2 2l2 2q1 0 1 1l1.5 1t2.5 1.5l2 1
t2 1.5l1 1t2 1l4 2v0v0q1 1 2 1t2 1q1 0 3 1t3 1t2 0.5t2 0.5h1.5h2.5q9 2 13 2h5h226zM2254 672q2 0 4 1h-3zM2040 709q-1 0 -2 -1.5t-1 -2.5q-3 -6 -9.5 -16.5t-9.5 -16.5q4 6 11 19t11 18zM2335 745q-18 -31 -20 -35l0.5 1l0.5 1q7 11 19 33zM2335 745h-1v0h1zM981 36
q0 30 14 54q15 25 39 39t53.5 14t53.5 -14q25 -14 39 -39q14 -24 14 -53.5t-14 -53.5q-15 -25 -39 -39q-25 -15 -53 -15q-30 0 -54 14q-25 15 -39 39q-14 25 -14 54zM1036 36q0 -15 7 -25q6 -11 20 -20q13 -7 25 -7q16 0 26 7q13 7 20 20q6 12 6 25q0 15 -6 26t-20 20
q-12 6 -25.5 6t-25.5 -6q-11 -6 -20 -20q-7 -11 -7 -26zM2285 36q0 30 14 54q15 25 39 39t53.5 14t53.5 -14q25 -14 39 -39q15 -24 15 -53.5t-15 -53.5q-15 -25 -39 -39q-25 -15 -53 -15q-30 0 -54 14q-25 15 -39 39q-14 25 -14 54zM2340 36q0 -15 7 -25q6 -11 20 -20
q13 -7 26 -7q15 0 25 7q13 7 20 20q6 12 6 25q0 15 -6 26t-20 20q-12 6 -25.5 6t-25.5 -6q-11 -6 -20 -20q-7 -11 -7 -26z" />
    <glyph glyph-name="merger" unicode="&#xe613;" 
d="M512 896q139 0 257 -68.5t186.5 -186.5t68.5 -257t-68.5 -257t-186.5 -186.5t-257 -68.5t-257 68.5t-186.5 186.5t-68.5 257t68.5 257t186.5 186.5t257 68.5zM966 412q-8 138 -92 248q-6 7 -10 13q-3 4 -6 6q0 1 -1 3q-2 5 -4 3l-12 -12l-12 -12q-8 -8 -23.5 -24
t-23.5 -24l-95 -94l-47.5 -47.5l-47.5 -47.5l-3 -3l-3 -3q0 -1 -3 -2q-5 -4 -2 -4h17h33h67h268zM171 685q-76 -86 -102 -195.5t2 -218.5t105 -193.5t183 -122.5t217.5 -22t204.5 84q68 49 113.5 120t62.5 153q4 19 7 39q1 9 2 20q0 6 -3 6h-10h-85h-168h-166q-3 0 -12.5 -1
t-15.5 0t-12 7q-19 20 -29 30l-29.5 29.5l-29.5 29.5l-74 74l-87 87zM813 725q-72 64 -163 93t-186.5 18.5t-177.5 -57.5q-40 -23 -75 -54q0 -2 4 -4l4 -4l1 -1l1 -1l1 -1l2 -1l1 -1l1 -1l1 -1l1 -2l8.5 -8.5l8.5 -8.5l34 -34l42 -42l49.5 -49.5t42.5 -41.5q16 -17 33 -34
l33 -33l7 -7l10 -10l4 -4l4.5 -4.5t4.5 -3.5q0 -1 1 -2q1 -3 3 -1l33 33q29 30 84 84.5t99.5 99z" />
    <glyph glyph-name="money1" unicode="&#xe614;" 
d="M1037 75q-67 37 -143.5 51t-147.5 7.5t-144 -21.5t-142 -32.5t-131.5 -29.5t-122 -8.5t-104.5 27.5v458q43 -29 98.5 -35.5t116 4t127 29t139.5 37.5t145.5 31t154 8t155.5 -30q-1 -54 -1 -496zM601 519q-72 0 -122.5 -50.5t-50.5 -122.5t50.5 -123t122.5 -51t123 51
t51 123t-51 122.5t-123 50.5zM665 354l2 -23l-51 -3l1 -30l51 2l1 -22l-50 -3l2 -44l-28 -2l-3 45l-52 -3l-1 23l52 2l-1 31l-52 -3l-2 23l44 3l-58 99l32 1l41 -78q4 -6 8 -16v0q2 8 7 18l35 80l29 1l-51 -104zM87 127zM1012 637q-16 7 -34 13v66l-8 1q-48 11 -100 12
t-91.5 -3t-92.5 -16.5t-82.5 -21.5t-82.5 -27q-39 -13 -59 -19t-56 -16t-56.5 -13t-52.5 -6t-54 1t-51 11.5t-52 22t-49 36t-50 50.5l-17 20v-528l4 -2q2 -2 18 -17q14 -14 18 -17v-44l5 -3q17 -10 34 -18v22l-20 10v440q66 -58 167 -58q39 0 89 9t84.5 18.5t97.5 27.5
q64 19 98.5 28.5t94 21.5t100 13.5t91 -5t94.5 -25.5v-16l19 -6v35zM959 656q-86 24 -195 10q-84 -10 -249 -59q-58 -17 -89 -25.5t-76 -17.5t-80 -11q-120 -6 -189 68l-17 18v-428q-2 1 -4 4q-13 12 -17 15v465q48 -51 102 -78q56 -29 123 -30h9q37 0 83.5 9t77.5 18.5
t89 28.5q52 17 80 25.5t79 21t89 16.5t87.5 3.5t96.5 -9.5v-44z" />
    <glyph glyph-name="nostoploss1" unicode="&#xe615;" 
d="M881 341h-166l-9 -4l-1 -25l5 -17l-2 -42l-5 -15l3 -13h28l5 3h116l9 -4h19l4 6v80l2 21zM847 265h-101v44h101v-44zM828 90l-7 -7l-3 -13l5 -18l18 -13l21 -11l17 -5l17 1l12 10l5 15l-2 6l-19 1l-30 12l-20 14l-5 8h-9zM553 273l5 5h39v73h44v-25l-5 -48h41v-35h-38
v-59l37 12v-32l-38 -14v-104l-10 -15l-13 -11h-41l-13 15l-2 23h11l6 -5l14 2l9 10v69l-38 -12l-8 4v34l7 4l39 7v71h-25l-10 -3l-13 3zM704 207l-8 -11l4 -18v-88h39v82h117v-82h45v83l5 17v6l-19 13h-182zM304 325v-21l2 -16v-219h-67v147l4 17l-5 11h-38l-3 -7l4 -29
v-139h-55l-8 -6v-33h33l24 5h195l82 -11h12l16 18l4 19v10l-16 -3h-138v117h114v34h-114v78l5 13l-4 15h-47zM784 160l-11 -8l-2 -43l-12 -25l-24 -16l-29 -10l-18 -3h-14v-10l12 -17l17 -6h26l26 12l25 20l18 24l10 30l7 22l2 13v12l-6 4zM1023 256q-1 6 -6 68
q-1 8 -1.5 20t-1.5 18q-4 34 -4 41q0 6 2.5 26.5t3.5 37.5q2 25 1 115v50v46q-1 58 -5 89q-4 40 -16 65t-32 38q-20 12 -73 14q-80 5 -150 0q-46 -3 -63 -14q-16 -9 -17 -20q0 -4 2 -7.5t11.5 -7t26.5 -5.5q29 -3 142 -4q52 -1 66 -5q17 -4 25 -23q11 -26 16 -136
q6 -145 8 -389q2 -185 -2 -251q-4 -52 -18 -66q-6 -5 -15 -8t-41.5 -5.5t-94.5 -3.5q-129 -3 -506 -3q-143 0 -155 2q-20 4 -30 16q-11 14 -14 69q-3 56 -5 189q-1 138 -2 157q-2 38 -12 43q-13 7 -27 0q-10 -5 -15 -19q-4 -9 -5 -44q-4 -72 -3 -131q1 -65 7 -150
q4 -65 11 -93q8 -34 23 -54q13 -17 35 -25q16 -6 51 -9q43 -4 85 -5q40 -1 90 1q94 4 102 4q13 0 25.5 -0.5t30 -1t32.5 -1.5q46 -1 140 -1q66 -1 91 1l21 3t26 3t25 1q16 0 49.5 -3t41.5 -4q37 -2 65 3q25 5 36 16q12 13 16 42q4 27 4 81q0 16 -0.5 49.5t-0.5 46.5
q0 19 2 59q3 46 2 75zM605 848q-1 17 -18 26t-75 11q-85 3 -141 -1q-15 -1 -42 -5t-54 -5q-19 -1 -87.5 -2.5t-93.5 -3.5q-22 -2 -34 -5t-15.5 -6t-6.5 -7q-10 -15 -17 -35q-13 -41 -17 -94q-6 -64 -1 -140q4 -64 16 -91q11 -24 30 -28q7 -2 11 3t7 20q5 32 3 107
q0 18 -2 65.5t-2 68.5q0 46 7 71q3 12 10 16.5t28 7.5q14 1 134 4q95 2 120 1q15 -1 63 -5.5t71 -4.5q55 -1 87 11q20 7 19 21zM170 727l-9 -12v-39l31 9l97 3l-45 -69l-45 -46l-29 -21l-25 -10h-13v-11l13 -18l24 -12h22l19 19l51 49l32 45v-148v-30h42v198l-6 7l-20 -2
l14 29l8 20h83l22 -9l26 -4l17 4l9 17l7 20v11h-325zM369 619h18l12 -15l42 -35l34 -12l14 -9l-5 -11l-19 -21h-14h-15l-37 30l-30 41l-9 21v6zM596 730h-7v-29h113v-15h-113l-15 -7v-8l5 -6l-1 -56h33l1 49h90v-61h36v62h93v-50l34 -1v56l6 11l-16 13h-117l2 14h112l1 28
h-257zM628 646h-5v-21h69v21h-64zM628 613l-5 -5v-15h69v20h-64zM758 646l-6 -4v-17h69v21h-63zM758 613l-6 -4v-16h69v20h-63zM560 584l-9 -8v-24h25l10 4h107v-16h-71h-16l-14 -7l4 -16l-2 -85h36v71h39v-71h33v71l35 1v-72h34v71h41v-71h39v83l5 14l-24 12l-13 -3l-90 1
l2 18h88l24 -6h31l16 16v17h-330z" />
    <glyph glyph-name="percent" unicode="&#xe616;" 
d="M265 63l410 635h76l-410 -635h-76zM175 537q0 78 41.5 124t112.5 46q68 0 106.5 -42t38.5 -118q0 -75 -42 -122t-112 -47q-66 0 -105.5 43.5t-39.5 115.5zM239 537q0 -27 8 -48q4 -10 10 -18q10 -13 24 -21q16 -8 39 -8q13 0 24 3q16 3 28 12q11 7 19 19q13 20 17 50
q5 35 -5 68q-3 12 -8 19q-7 12 -19 19q-16 9 -39 11q-14 1 -28 -2q-13 -2 -23 -6q-9 -4 -16 -11q-15 -13 -23 -34t-8 -53zM555 212q0 78 41.5 124.5t112.5 46.5q68 0 106 -43q38 -42 38 -119q0 -74 -42.5 -120.5t-110.5 -46.5q-66 0 -105.5 44t-39.5 114zM619 212
q0 -27 8 -47q4 -11 11 -19q11 -15 28 -22q16 -7 39 -6q14 1 24 4q18 5 32 19q18 18 25 47q3 11 3 27q1 9 0 19q-1 17 -5 31q-3 13 -8 21q-8 13 -19 21q-15 10 -40 12q-15 1 -29 -2q-17 -3 -29 -10q-20 -13 -31 -39q-9 -22 -9 -56zM0 -128v1024h1024v-1024h-1024zM64 -64h896
v896h-896v-896z" />
    <glyph glyph-name="private" unicode="&#xe617;" 
d="M276 188l651 651h-671v57h768v-768h-57v671l-651 -651l236 -236l-40 -40l-512 512l40 40z" />
    <glyph glyph-name="rmb" unicode="&#xe618;" 
d="M712 741l-200 -274l-198 274h-95l244 -346h-230v-64h240v-107h-240v-64h240v-161h78v161h243v64h-243v107h243v64h-233l245 346h-94zM0 -128v1024h1024v-1024h-1024zM64 -64h896v896h-896v-896z" />
    <glyph glyph-name="stock" unicode="&#xe619;" horiz-adv-x="1490" 
d="M337 17v0h-2h2zM1463 639q-23 11 -59 21v0v74v0q-32 13 -58 21v0v111v0q-57 9 -110 10.5t-103 -5.5t-87.5 -15t-85 -25.5t-73.5 -28.5t-74 -32q-60 -27 -90.5 -39.5t-87.5 -29.5t-96 -17.5t-100 5.5t-116.5 30.5t-128 66.5t-151.5 104v0v-720v0q30 -24 58 -39v0v-91v0
q23 -22 59 -41v0v-58v0q52 -34 115.5 -46.5t130 -6.5t139.5 22.5t148.5 37.5t153 41t157 31t155.5 9t154.5 -27t148.5 -74v0l1 711v0zM101 760v-571q-4 1 -10.5 6t-10.5 7v0v608v0q78 -54 149.5 -90t127 -55t116 -22t99.5 0t94.5 21t85.5 31t87 40q38 18 58 27t57 24.5
t62.5 23t63.5 17t71 12t73.5 2t82.5 -5.5v0v-69v0q-35 6 -70.5 6.5t-73.5 -6t-68 -13t-73 -21.5t-68 -24t-72 -28q-69 -26 -105 -39.5t-102.5 -32t-110 -21.5t-108 -0.5t-116.5 22.5t-115.5 57.5t-123.5 93.5v0zM155 563v-19v-50v-15q0 -61 1 -91v-73v-33v-64v-28v-31v-52v0
v-41v-12q-15 8 -22 15v0v45v54v512q15 -11 24 -17q7 -4 22 -14.5t25 -16.5q30 -19 44 -26q17 -10 41 -19q2 -1 7 -3t6 -3q19 -7 27 -9q2 -1 7 -3t7 -3q4 0 12.5 -3t12.5 -4q2 -1 7.5 -2t7.5 -2l22 -5q5 -2 15 -2q3 -1 10.5 -2t11.5 -2q3 0 7.5 -1t7.5 -1q4 0 11.5 -1
t10.5 -1h15h23h13q15 0 22 2q9 0 13 2q6 0 24 4q2 0 6 1t5 1q15 3 25 3q1 0 4 1t5 1q18 4 26 6q1 0 3.5 1t3.5 1q13 2 30 9h4q64 19 189.5 70.5t188.5 69.5q78 20 128 20v0h30h2q5 0 15 -1t15 -1v0q4 -1 14.5 -2.5t15.5 -2.5v0q9 -2 37 -10q11 -2 20 -7v-2v-39v0v-2v0
q-64 10 -130 7.5t-126 -18t-122 -34.5t-119 -42.5t-117.5 -42t-117 -33t-117 -15.5t-118 10t-120 44.5t-123.5 88.5q8 -23 8 -67zM1426 -3v0q-83 51 -179.5 68.5t-189 5.5t-188 -36.5t-187 -51.5t-175.5 -44.5t-165.5 -11.5t-144.5 44v11v56v0v63v52q0 36 -1 105t-1 104v78
v24v91q12 -9 34 -24l2 -2q5 -4 15.5 -10.5t16.5 -9.5l1 -1t2 -1q15 -9 30 -15l4 -2q4 -2 14.5 -6.5t15.5 -6.5l2 -1t3 -1q17 -6 30 -9q4 0 6 -2q4 -1 14.5 -3.5t14.5 -3.5h6q18 -4 30 -4h3q8 -4 28 -4h4h32h3q6 0 16 1t16 1h2q6 1 16 2t16 2h3q5 1 15 2.5t15 2.5q4 0 6 2
q18 4 29 6q1 0 4 1t4 1q19 3 28 7q1 0 3.5 1t3.5 1q5 1 14.5 3.5t13.5 3.5q2 1 5 2t5 2q4 1 12.5 4t13.5 4q1 1 5 1.5t6 1.5q3 1 11 4t13 4q11 3 15 5q2 1 5.5 2t5.5 2q26 9 86.5 31.5t94.5 33.5t83.5 26t92.5 22t84 8h28q21 0 30 -2v0v0l37 -5v0v0q4 -1 10.5 -2t10.5 -2
l37 -11q4 -1 11.5 -4t10.5 -4v0v-612h2zM1367 667v0v0zM1339 619v0v0zM1205 189l-829 -131l220 231l182 -54l261 192v-63h37v70v56h-22h-15h-80v-37h50l-238 -177l-188 60l-248 -267v332h-37v-389l39 5v0v0l869 129v39q2 1 1 2.5t-2 1.5z" />
    <glyph glyph-name="stoploss1" unicode="&#xe61a;" 
d="M881 341h-166l-9 -4l-1 -25l5 -17l-2 -42l-5 -15l3 -13h28l6 2h116l8 -3h20l3 6v80l3 21zM848 265h-101v44h101v-44zM478 602l7 9v38h19v32h-18v27l4 10l-5 15h-27l-2 -4h-45v22l-6 4h-39v-26l-61 1l-9 -7v-24h76v-15h-67l-12 -8l-2 -25h45l5 1l32 -1v-19h-68l-10 -8v-22
h70v-12h-64l-5 -3v-27h69v-14h-63l-6 -5v-25h70v-23h42v23h79v29h-79v16h78v28h-78v13h70zM407 699h38v-15h-38v15zM407 631v20h38v-20h-38v0zM829 90l-8 -7l-3 -13l6 -18l17 -14l22 -11l16 -5l18 1l12 11l4 15l-2 6l-19 1l-30 12l-20 14l-5 7zM553 272l5 6h40v73h43v-26
l-5 -47h41v-35h-38v-59l37 11v-31l-38 -14v-104l-10 -16l-13 -10h-41l-13 15l-2 22h11l6 -4l14 2l9 9v70l-38 -12l-8 4v33l7 5l39 7v71h-25l-10 -3l-13 3zM704 207l-7 -11l3 -19v-87h39v81h118v-82h45v84l5 16l-1 6l-18 14h-182zM304 325v-21l2 -16v-219h-67v147l3 17l-4 11
h-38l-4 -7l4 -30v-138h-55l-7 -7v-32h32l24 5h196l82 -12h12l16 19l4 19v10l-16 -3h-139v116h115v35h-115v78l6 13l-4 15h-47zM784 160l-10 -8l-2 -43l-12 -26l-25 -16l-29 -9l-17 -3h-15v-11l12 -16l17 -6h26l26 11l26 21l17 24l11 29l6 22l2 14v11l-6 5zM726 721l-2 -9
l3 -7l41 -35l5 2l8 13l-3 16l-10 29l-6 4h-12zM595 735l-15 -2l-6 -11l-4 -26l7 -6l30 -3l26 1l13 6l1 11l-13 7l-26 12zM692 685l-19 -14l-3 -10l5 -14l38 -81l26 -43l1 -7l-17 -18l-61 -30h-6v29l-29 -12h-6l4 113l9 14l1 16l-7 9l-12 5l-25 -3l-43 1l-9 -6l-1 -32l52 1
v-117l-13 -14l-4 -12l4 -18l10 -9l13 1l39 16l18 -17l16 -4l21 2l34 19l39 33l5 1l23 -22l33 -22l28 -11l22 -2l21 10l12 20v11l-8 3l-40 5l-40 22l-20 17l-2 11l15 26l18 40l12 35l13 44l2 12l5 9l-1 9l-37 8l-7 -5l-2 -28l-6 -47l-16 -37l-17 -34l-9 -5l-6 5l-28 48
l-18 42l-12 29l-4 8h-11zM465 473l-44 5l-54 10l-94 31l-8 4l8 53l11 29v10l-23 13l-28 -1l21 37l35 28l1 12l-19 18h-107v-34h25l5 3l40 -1l1 -4l-18 -21l-20 -24l-10 -14l-17 -1l-5 -4l5 -29l19 -2l42 7l10 -1v-11l-6 -48l-11 1l-24 13l-10 5l-12 -7l-17 -21l4 -10l43 -12
l6 -2l-5 -12l-22 -17l-12 -9l-21 -5l1 -8l21 -15l24 -1l19 7l21 20l10 23l4 2l51 -20l114 -37l41 -6l30 6l32 21v19h-57zM1023 256q0 7 -5 68q-1 8 -1.5 20t-1.5 18q-5 34 -4 41q0 6 2.5 26.5t3.5 37.5q1 26 1 115q-1 19 -1 50v46q0 59 -4 90q-5 39 -17 64.5t-32 37.5
q-19 12 -72 15q-80 4 -151 0q-46 -3 -63 -14q-15 -10 -17 -20q0 -5 2.5 -8t11.5 -6.5t26 -5.5q29 -4 142 -5q53 0 66 -4q17 -5 25 -24q11 -25 16 -135q7 -149 9 -390q2 -185 -3 -251q-4 -53 -18 -67q-5 -5 -14 -7.5t-42 -5.5t-95 -4q-129 -3 -506 -3q-144 0 -156 3
q-19 3 -29 15q-11 15 -15 69q-3 56 -4 190q-1 138 -2 157q-2 39 -12 44q-13 6 -27 -1q-11 -5 -16 -19q-3 -9 -5 -44q-3 -72 -3 -131q1 -66 7 -150q5 -65 11 -93q8 -35 23 -55q14 -17 35 -25q16 -5 52 -8q43 -4 85 -5q40 -1 89 1q98 4 102 4q17 0 47 -1.5t42 -1.5
q42 -2 140 -2q66 0 91 2q67 6 72 6q16 0 49.5 -3t42.5 -3q37 -2 64 3q25 4 36 16q12 12 17 42q4 26 4 80q-1 17 -1.5 50.5t-0.5 46.5q0 19 3 59q2 44 1 75zM605 849q-1 17 -18 25q-17 9 -75 11q-85 4 -141 0q-15 -1 -42 -5t-54 -5q-20 -2 -88 -3.5t-94 -3.5
q-21 -1 -33.5 -4.5t-16 -6t-6.5 -7.5q-10 -14 -16 -35q-13 -41 -18 -94q-5 -64 -1 -139q5 -65 17 -92q11 -24 29 -28q7 -1 11.5 3.5t6.5 19.5q5 32 4 108q-1 17 -2.5 65t-1.5 68q0 47 6 72q3 11 10 16t29 7q14 2 133 4q95 2 120 1q16 -1 64 -5t71 -5q55 -1 87 11q20 8 19 22
z" />
    <glyph glyph-name="suspended" unicode="&#xe61b;" horiz-adv-x="2049" 
d="M1574 549v35l21 16l30 -7v-44l12 -9h52l9 -27h-9l-4 -30h-58l-9 -11l4 -47h102l21 19l1 111l-58 63h-35h-104l-25 -18l-55 6v40l41 30h35l17 22l-3 57l28 12l34 -10l3 -51l1 -41l79 1l35 -16l57 -66l6 -39v-84v-49l-32 -32l-35 -9l-100 1q-20 -1 -24 -1q-2 0 -9 -6.5
t-13 -13.5l-6 -6l-44 -54l-23 -22l-47 -8l-6 38l54 47l3 15h-38h-45l-16 20l-28 44v89l20 48l16 31l34 -6l-7 -58l-3 -56l11 -48h75l25 8v58h-32l-34 3l-4 27l11 25zM1638 347l-23 -19v-67l-18 -16h-77l-22 -31l19 -27h92l5 -15l-3 -156l8 -22l28 -9l28 22v180l14 8l113 -4
l38 15v36l-22 12l-136 -1l-13 8v76zM1364 182v-141l-30 -25l-36 6l-15 35l9 42l16 9l4 162l-23 28h-32l-25 -37l-13 -46l-28 -58l-31 -64l-33 -44l-41 -5l-32 16l17 52l29 31l57 72l28 46l-1 240l-25 56l-43 80l-8 42l25 27h35l41 -88l24 -132l60 -1l18 18l-13 81l-2 108
l18 30h33l17 -16l-9 -132l9 -88l-6 -49q-15 -25 -25 -25q-3 0 -40 -5t-45 -4q-3 1 -5 -10t-3 -21l-1 -11l82 -8l43 -13l14 -20l-14 -51l1 -31l60 19l16 -25l-26 -30l-37 -17zM437 718l-47 -20l-110 -136l-14 -84v-52h61l17 -29l-14 -220l-26 -81v-40l57 -21l47 35l11 275
l-11 46l-47 90l-10 26l36 64l50 75l31 29v32zM702 764l-11 -46v-13h-145l-14 -39v-35h57l70 18l206 4l71 -9l29 24v39l-29 5l-147 6l-11 28l-11 33h-30zM674 631l-29 -30l14 -28h69h113l35 -15v-33l-26 -30h-159h-78v68l-28 27l-24 -27v-60l17 -47l46 -16l262 20l20 -9
l30 33l-17 106l-54 31l-20 10h-171zM520 427q32 -10 41 -15q4 -2 36.5 -4.5t63.5 -4.5l30 -2l215 13l72 -13l47 -24v-32v-46l-21 -43l-39 -24l-29 31l29 43v43l-29 16l-230 -5l-123 -6l-22 -9l-20 -39l-21 -59l-20 -15l-32 22v89l17 54zM747 245v-160l-38 -33h-64l-38 33
h-24l-22 -33l33 -37l84 -26h57l43 46l26 50v147l27 20l51 -5v46l-28 15h-187l-39 -15l-28 -30l17 -31zM197 867l-49 29l-58 -14l-70 -53l-19 -51v-64v-42l22 -48l6 -204l-9 -305l-7 -125l23 -83l96 -35l73 22l166 16l-15 29l-205 19l-38 32l-26 41l-13 132l16 461l-8 111
l43 62l57 19l195 -10l52 29l26 -22l124 9l-50 42zM631 826l1258 -13l32 -16l28 -23v-51l16 -598l-16 -119l-28 -51h-71l-166 -16l-1043 7l147 -52h688l185 -22h139h66l128 45l32 70l23 234l-29 118l-13 467l-26 45l-60 32h-356l-883 -2l-89 -58z" />
    <glyph glyph-name="tagl" unicode="&#xe61c;" 
d="M632 896h-106l-179 -179v-666l179 -179h106v51h-85l-149 149v624l149 149h85v51z" />
    <glyph glyph-name="tagr" unicode="&#xe61d;" 
d="M340 844h112l129 -119l-185 -171l185 -170l-185 -171l185 -170l-129 -120h-112v-51h132l184 171l-188 173l188 168l-186 171l186 170l-184 170h-132v-51z" />
    <glyph glyph-name="topdown" unicode="&#xe61e;" horiz-adv-x="2049" 
d="M322 655h99l31 -26v-96l-13 -27h-125l-7 123l-26 26h-34l-9 -45l14 -126l28 -39h65l26 -12l1 -98l19 -16l29 11l7 113l55 24l18 8v142v50l-36 43l-107 7h-46l-21 -22zM397 286l-28 -21v-131l-21 -19h-32l-9 214l-30 31l-21 -12l-7 -52l7 -24l5 -185l31 -48h83l33 28
l105 57l-7 29l-70 -7l-6 119zM500 348h-25l-18 -29l13 -36l30 -18l22 7l21 35v41h-43zM656 562h101l24 17l-7 125l7 56l25 20l35 -30v-168l13 -20l110 6l31 -31l-10 -34h-128l-31 -12l7 -99l5 -18h22h143l20 -26l-8 -29l-35 -12q-119 3 -123 0l-17 -20v-34l118 -128l77 -52
l9 -34l-16 -36h-34h-36l-143 208l-21 23l-26 -2l-17 -50l-52 -83l-52 -48l-50 -48h-35l-34 -7l-15 34v28l110 76l52 42l35 71l7 33l8 27h-30h-115l-14 33l17 34h168h11l17 117l-14 14l-95 -6l-12 -17l-11 -49h-29l-24 28l-14 75l12 74l12 45l30 40l24 13l22 -16l1 -25
l-17 -46zM1251 719l-46 -20l-110 -136l-14 -84v-52h60l18 -29l-15 -220l-26 -81v-41l58 -20l46 35l12 275l-12 46l-46 90l-10 26l36 63l49 75l32 29v32zM1517 764l-11 -45v-13h-146l-13 -39v-35h57l70 17l205 5l71 -9l29 24v39l-29 4l-147 7l-10 28l-11 33h-31zM1488 632
l-28 -30l14 -29h69h113l34 -15v-32l-26 -31h-158h-78v69l-29 27l-23 -27v-60l17 -48l46 -15l262 20l20 -9l29 33l-16 106l-55 30l-19 11h-172zM1334 428q33 -11 42 -15q3 -2 36 -4.5t63 -4.5l31 -2l215 13l71 -13l48 -25v-31v-46l-22 -43l-39 -24l-29 30l29 44v43l-29 15
l-229 -4l-124 -7l-21 -8l-20 -39l-22 -59l-19 -15l-32 21v89l17 55zM1561 246v-161l-38 -32h-63l-39 32h-24l-21 -32l32 -37l85 -26h56l44 46l26 49v148l27 19l51 -4v46l-28 15h-187l-39 -15l-28 -31l17 -30zM197 867l-49 29l-58 -14l-70 -53l-19 -51v-64v-41l22 -49l6 -204
l-9 -305l-7 -125l23 -83l96 -35l73 22l166 16l-15 29l-205 19l-38 32l-26 41l-13 132l16 461l-8 111l43 62l57 19l195 -10l52 29l26 -22l124 9l-50 42zM631 826l1258 -13l32 -16l28 -23v-51l16 -598l-16 -119l-28 -51h-71l-166 -16l-1043 7l147 -52h688l185 -22h139h66
l128 45l32 70l23 234l-29 118l-13 467l-26 45l-60 32h-356l-883 -2l-89 -58z" />
    <glyph glyph-name="topup" unicode="&#xe61f;" horiz-adv-x="2048" 
d="M287 716l31 -32l47 -124v-15l-39 -14l-77 110v46zM226 473l40 17l87 -115v-32l-46 -18l-81 83v65zM327 244l-52 -60l-49 -84v-64l11 -46h39l51 127l26 110zM417 684l-15 -35l29 -26h96l11 -11v-55v-26h-124l-12 -26v-180v-17h110l9 -23l-12 -98l-39 -53l-82 -57l-23 -23
v-38h43h43l87 90l32 75v144l-23 50l-49 -3h-31v104l103 3l20 29v150l-26 26h-37h-110zM723 430h209l17 -22v-42h-263l-47 -16l-34 19v39l49 22l-3 254l26 32h38l11 -32zM828 716l10 -66l-14 -51l-63 -86v-23l16 -26l42 26l69 67l35 83l-23 64l-35 29h-23zM692 325v-260h29
l56 29l33 6v-35l-33 -38l-56 -37h-58l-26 52v263l14 20h41zM761 325l16 -104l33 -63l55 -64l64 -78h40l32 26v40l-29 18l-91 81l-43 63v18l-28 63l-33 12zM1251 719l-47 -20l-110 -136l-14 -84v-52h61l17 -29l-14 -220l-26 -81v-41l57 -20l47 35l11 275l-11 46l-47 90
l-10 26l36 63l50 75l31 29v32zM1516 764l-11 -45v-13h-145l-14 -39v-35h57l70 17l206 5l71 -9l29 24v39l-29 4l-147 7l-11 28l-11 33h-30zM1488 632l-29 -30l14 -29h69h113l35 -15v-32l-26 -31h-159h-78v69l-28 27l-24 -27v-60l17 -48l46 -15l263 20l19 -9l30 33l-17 106
l-54 30l-20 11h-171zM1334 428q32 -11 41 -15q4 -2 36.5 -4.5t63.5 -4.5l30 -2l215 13l72 -13l47 -25v-31v-46l-21 -43l-39 -24l-29 30l29 44v43l-29 15l-230 -4l-123 -7l-22 -8l-20 -39l-21 -59l-20 -15l-32 21v89l17 55zM1561 246v-161l-38 -32h-64l-38 32h-24l-22 -32
l33 -37l84 -26h57l43 46l26 49v148l28 19l50 -4v46l-28 15h-187l-39 -15l-28 -31l17 -30zM196 867l-49 29l-57 -14l-71 -53l-18 -57v-64v-42l21 -42l7 -204l-10 -305l-6 -125l22 -83l96 -35l74 22l165 16l-15 29l-205 19l-38 32l-26 41l-12 132l16 461l-8 111l43 62l56 19
l196 -10l52 29l25 -22l124 9l-50 42zM630 826l1258 -13l32 -16l29 -23v-51l16 -598l-16 -119l-29 -51h-70l-167 -16l-1043 7l147 -52h688l185 -22h139h67l128 45l32 70l22 234l-29 118l-13 467l-25 45l-61 32h-355l-883 -2l-90 -58z" />
    <glyph glyph-name="transfer" unicode="&#xe620;" 
d="M231 521h257h101h26q4 0 5 -2t0 -6.5t-1 -5.5v-21v-10v-6q1 -1 5 1q18 5 23 6q35 9 45 11q41 10 124.5 30.5t123.5 31.5l8 2q2 0 4 1h2l1 1q-2 0 -7.5 1.5t-7.5 2.5q-5 1 -15.5 3.5t-15.5 3.5q-21 5 -63 16l-124 31q-12 3 -40 9.5t-43 10.5q-2 1 -5.5 1.5t-4.5 1.5
q-1 0 -3 0.5t-3 0.5v0l-1 1q-3 1 -3 -1v-19v-20v-9q0 -3 -3 -2q-1 1 -2 1h-95h-256h-13.5t-15.5 -0.5t-12.5 -1t-15 -2t-13.5 -4.5q-37 -16 -53 -54q-4 -9 -6 -25t-2 -27.5t0.5 -31t0.5 -23.5v-27v-11v-3q0 -1 3 -1q4 1 13 4q17 5 25 7q7 2 13 4l11 3v17v47v30q1 13 10.5 23
t22.5 10zM923 458q-16 -4 -47 -12l-3.5 -1t-6.5 -1.5t-6 -1.5t-3 -3v-7v-38v-52q-2 -12 -11 -20t-21 -9h-21.5h-21.5h-257h-46h-23h-11h-6q-3 0 -3 5v38l0.5 1t0.5 2q1 2 0.5 3.5t-2.5 0.5q-4 0 -11 -2q-13 -3 -20 -5q-61 -15 -81 -20q-83 -21 -125 -31q-11 -3 -32 -8
t-30 -8q-12 -3 -31 -7l-1.5 -0.5t-2.5 -0.5v0l-1 -1h2q1 -1 4 -1.5t4 -0.5q8 -2 15 -4q42 -10 125 -30.5t125 -31.5q15 -4 45 -11l12 -3h0.5t0.5 -1q2 -1 2.5 -1t0.5 2v5v21v22q0 1 6 1h6h26h104h129h64q58 0 64 1q46 5 71 44q17 25 17 73v93z" />
    <glyph glyph-name="uploadfile" unicode="&#xe621;" 
d="M848 -62h-672q-47 0 -79.5 33t-32.5 79v672q0 47 32.5 79.5t79.5 32.5h672q46 0 79 -32.5t33 -79.5v-672q0 -46 -33 -79t-79 -33zM904 722q0 24 -16.5 40t-39.5 16h-672q-24 0 -40 -16t-16 -40v-672q0 -23 16 -39.5t40 -16.5h672q23 0 39.5 16.5t16.5 39.5v672zM764 666
h-504q-12 0 -20 8.5t-8 20t8 19.5t20 8h504q11 0 19.5 -8t8.5 -19.5t-8.5 -20t-19.5 -8.5zM491 602q8 8 21 8t21 -8l139 -168q8 -8 8 -20t-8 -20t-20 -8t-20 8l-92 112v-428q0 -11 -8.5 -19.5t-20 -8.5t-19.5 8.5t-8 19.5v427l-92 -111q-8 -8 -19.5 -8t-20 8t-8.5 20t8 20z
" />
    <glyph glyph-name="write" unicode="&#xe622;" 
d="M769 7h-634v708h415l49 73h-488q-22 0 -35.5 -21.5t-13.5 -47.5v-728q0 -24 16.5 -40.5t39.5 -16.5h673q23 0 39.5 16.5t16.5 40.5v412l-78 -54v-342zM989 736q-1 46 -45 88q-38 37 -83 37q-51 0 -90 -40l-102.5 -102.5t-190.5 -190l-94 -93.5q-4 -4 -6 -11
q-2 -6 -5.5 -19t-8 -28t-10 -33t-10.5 -35.5t-10 -33.5t-8.5 -28t-6 -19.5l-2.5 -7.5q-4 -14 6 -24q7 -7 16 -7q4 0 8 1q90 31 201 64q6 2 10 6q388 383 388 384q44 45 43 92zM891 690q-11 -5 -50 -45t-131.5 -135t-184.5 -186q-10 -3 -60 -28t-76 -33q8 27 34 74.5t29 60.5
q18 17 109.5 108.5l171.5 171.5l85 85q24 25 49 25q6 0 9 -3t6 -9.5t9 -12t11.5 -9t7.5 -4.5t3.5 -3.5t1.5 -7.5q1 -23 -24 -49z" />
    <glyph glyph-name="role" unicode="&#xe624;" 
d="M649 789q24 -5 41 -26.5t19 -53.5q0 -9 0.5 -30t0.5 -44t-1 -41.5t-5 -22.5q-7 -8 -13 -7.5t-6 -4.5q0 -4 -2 -23.5t-10 -54.5q-4 -18 -12 -33t-17 -26q-11 -14 -22 -25q-1 -15 -1 -27v-23q0 -11 1 -18q1 -13 6.5 -19t22.5 -10q6 -2 20 -6t33.5 -11t40.5 -15
q20 -7 42 -15q19 -6 34 -13l24 -9q21 -11 28.5 -23t13.5 -31q2 -10 5 -35.5t8 -54.5q4 -28 7 -53t4 -32q1 -14 -5 -23.5t-27 -15.5q-19 -4 -54.5 -9t-82.5 -9.5t-103.5 -7.5t-119 -3t-119 2.5t-104 6.5t-85 9t-57.5 10q-4 1 -11 4.5t-13 8t-9.5 12t-2.5 15.5q2 8 7 35t11 57
q7 29 13 57q5 26 8 33q4 13 12 27t28 30q10 7 36 15.5t54.5 16.5t53.5 13t33 7q17 4 29.5 9t12.5 14v63q-13 9 -24 21q-9 10 -19 23.5t-18 29.5q-15 29 -19.5 53.5t-5.5 29t-8 7t-11 11.5q-9 18 -8.5 38.5t3.5 59.5q3 38 12.5 72.5t41.5 64.5q16 14 43.5 23.5t55.5 14
t54 4.5t39 -4q15 -4 23.5 -9t13.5 -9.5t8.5 -8.5t6.5 -6q6 -5 14 -3t31 -2v0zM548 193l29 -114l48 129l-46 33zM469 243l-43 -35l49 -129l26 115zM858 668q16 -2 25 -15t10 -32q0 -6 1 -18t1 -25.5t-1 -24.5t-3 -13q-3 -5 -7 -4.5t-4 -3.5q0 -2 -0.5 -13.5t-6.5 -33.5
q-2 -11 -6.5 -19.5t-10.5 -15.5q-5 -7 -12 -14q-1 -8 -1 -16v-25q1 -8 4 -11t13 -5q4 -1 20.5 -6.5t35.5 -12t35.5 -13.5t23.5 -10q12 -6 17.5 -13t7.5 -20q1 -5 3 -20t4.5 -32.5t4.5 -32t2 -17.5q1 -9 -2.5 -15t-17.5 -8l-28 -6q-18 -3 -46 -6q-2 14 -7 26q-3 10 -7.5 22.5
t-11.5 21.5q-11 15 -24.5 25t-26.5 17t-26 10t-26 8q-56 20 -90 27.5t-38 12.5q-2 3 -2.5 7.5t-0.5 10t1 12.5q15 4 22.5 5.5l12.5 2.5q9 2 16 4.5t7 7.5v39l-2 1l-4 1q-3 1 -4 6q6 14 13 34q5 17 11.5 42t10.5 60q3 28 4.5 49.5t1.5 37.5v34q12 2 27 2t23 -2q19 -5 23 -11
t9 -9q4 -2 9 -1.5t17 -1.5v0zM802 320l8 -29l20 -7l16 39l-23 19zM767 319l-5 -12l-34 10l-1 4l19 18zM260 692q-4 -26 -4 -53q-1 -24 1.5 -51.5t7.5 -53.5q5 -18 12 -35t15 -30q8 -15 17 -29q-1 -7 -1 -12q-1 -5 -1 -11v-11q0 -10 1 -16t10 -9q5 -2 12 -4l15 -5q9 -3 19 -6
v-4q0 -2 -0.5 -4.5t-0.5 -7.5q-1 -9 -9.5 -11t-19.5 -3l-11 -3q-6 -1 -10.5 -2t-10.5 -2l-18 14l-21 -23q-2 0 -4 -1q-5 -2 -6 -2l-13 -4l-26 28l-24 -18l11 -27q-15 -8 -29 -18l-24 -18q-13 -10 -22 -19q-9 -11 -14.5 -23.5t-8.5 -23.5q-5 -13 -7 -27q-13 2 -24.5 4t-23 3
t-19.5 3q-15 4 -17.5 15.5t-0.5 22.5t8 37q5 27 9 44q6 37 39 52q8 3 23 7.5t30 8.5q9 2 26 7l18 5q12 2 15.5 6t5.5 11v18v14q-7 4 -11.5 9.5t-9 10.5t-7.5 11q-7 9 -13.5 22.5t-7.5 27.5q-2 14 -4 14.5t-5.5 2.5t-4.5 5.5t-3 12.5t-2 20q1 12 3 25q0 7 1 17.5t5 23.5
t11.5 24.5t21.5 20.5q14 11 32 15.5t34 5.5q18 2 35 -1v0z" />
    <glyph glyph-name="date" unicode="&#xe603;" 
d="M335.5 691q12.5 0 20.5 8.5t8 20.5v118q0 12 -8 20.5t-20.5 8.5t-20.5 -8.5t-8 -20.5v-118q0 -12 8 -20.5t20.5 -8.5zM133 574h758v-58h-758v58zM689 691q11 0 19.5 8.5t8.5 20.5v118q0 12 -8 20.5t-20.5 8.5t-20.5 -8.5t-8 -20.5v-118q0 -12 8 -20.5t21 -8.5zM625 809
h-226v-61h226v61zM830 809h-83v-61h57q37 0 62 -25t25 -61v-88h1v-58h-1v-497q0 -37 -25.5 -63.5t-61.5 -26.5h-584q-36 0 -61.5 26.5t-25.5 63.5v497h-1v58h1v88q0 36 25 61t62 25h57v61h-88q-49 0 -83 -34t-34 -83v-703q0 -48 34 -82.5t83 -34.5h641q49 0 83 34.5t34 82.5
v703q0 49 -34.5 83t-82.5 34zM412 36q36 -36 101 -36q59 0 100 36q39 34 39 90v2q-1 36 -20 63q-27 42 -67 42q1 1 2.5 1.5t2.5 0.5q25 10 40 31q16 21 16 51v2q-1 45 -32 75q-32 33 -87 33t-87 -33q-32 -31 -32 -75v-2q0 -30 16 -51q17 -22 44 -31q2 -1 5 -2
q-39 -10 -59 -39q-18 -27 -19 -66v-2q-3 -56 37 -90zM438 323q0 25 19.5 44.5t48.5 19.5q28 0 48 -19q20 -20 20 -52q0 -25 -19.5 -44.5t-48.5 -19.5t-49 19q-19 20 -19 52zM441 187q22 23 64 23q41 0 65 -20q15 -11 22 -28q2 -5 3 -9q1 -2 2 -8q1 -8 1 -17v-2v-2v-4
q0 -5 -1 -13q-3 -21 -24 -43q-20 -19 -65 -19q-24 0 -48 10q-21 11 -32 32q-9 17 -10 40v2q1 36 23 58z" />
    <glyph glyph-name="xiaoxi" unicode="&#xe605;" 
d="M830 708h-636q-49 0 -83.5 -34.5t-34.5 -83.5v-413q0 -48 34.5 -82.5t83.5 -34.5h636q49 0 83.5 34.5t34.5 82.5v413q0 49 -34.5 83.5t-83.5 34.5v0zM194 647h636q23 0 40 -17q6 -6 10 -13l-4 -2l-356 -250l-8 -5l-8 5l-356 250l-4 2q4 7 10 13q17 17 40 17v0zM870 137
q-17 -16 -40 -16h-636q-23 0 -40 16.5t-17 39.5v376l358 -251v0v0h1l1 -1q6 -4 14 -4h2v0q8 0 14 4v0l1 1h1v0v0l358 251v-376q0 -23 -17 -40v0zM870 137z" />
    <glyph glyph-name="xingxing" unicode="&#xe610;" 
d="M416 541q13 34 48 125.5t54 140.5q2 6 8 6t8 -6q81 -211 102 -266q8 -21 31 -22q42 -2 89.5 -4.5t105.5 -6t90 -4.5q5 -1 7 -6t-2 -9q-40 -32 -115 -92.5t-107 -87.5q-17 -14 -12 -36q49 -184 74 -276q1 -5 -3.5 -8t-9.5 0q-20 13 -106 68.5t-133 85.5q-19 13 -38 0
q-80 -51 -239 -154q-5 -3 -9.5 0t-3.5 9q49 183 74 275q6 22 -12 37q-37 30 -110.5 89.5t-110.5 89.5q-5 4 -3 9.5t7 5.5l285 15q23 1 31 22zM518 704q-12 -33 -37.5 -99t-38.5 -99q-8 -21 -31 -23q-146 -7 -213 -11q-5 0 -7 -5.5t2 -8.5q28 -23 83 -68t83 -67
q18 -14 12 -36q-19 -69 -55 -206q-2 -5 3 -8.5t9 -0.5q60 38 179 116q19 12 38 0q119 -78 179 -116q5 -3 9.5 0.5t2.5 8.5q-36 137 -54 206q-6 22 11 36q31 25 87 70.5t79 63.5q4 4 2.5 9.5t-7.5 5.5q-138 7 -213 11q-22 1 -31 23q-10 26 -36 94t-40 104q-2 6 -8 6t-8 -6z
" />
    <glyph glyph-name="xingxingbange" unicode="&#xe608;" 
d="M519 156q-41 -26 -126.5 -84t-124.5 -83q-5 -3 -9.5 0t-3.5 9q49 183 74 275q6 22 -12 37q-37 30 -110.5 89.5t-110.5 89.5q-5 4 -3 9.5t7 5.5l285 15q23 1 31 23q13 33 48 124.5t55 141.5v-652z" />
    <glyph glyph-name="xingxingshixin" unicode="&#xe60b;" 
d="M416 541q13 34 48 125.5t54 140.5q2 6 8 6t8 -6q81 -211 102 -266q8 -21 31 -22q42 -2 89.5 -4.5t105.5 -6t90 -4.5q5 -1 7 -6t-2 -9q-40 -32 -115 -92.5t-107 -87.5q-17 -14 -12 -36q49 -184 74 -276q1 -5 -3.5 -8t-9.5 0q-20 13 -106 68.5t-133 85.5q-19 13 -38 0
q-80 -51 -239 -154q-5 -3 -9.5 0t-3.5 9q49 183 74 275q6 22 -12 37q-37 30 -110.5 89.5t-110.5 89.5q-5 4 -3 9.5t7 5.5l285 15q23 1 31 22z" />
    <glyph glyph-name="211" unicode="&#xe604;" 
d="M11 65v363l273 357l333 -387l235 235l159 -568h-1000v0z" />
    <glyph glyph-name="weibiaoti11" unicode="&#xe606;" 
d="M827 633l-212 -335q34 -9 55 -39l216 340q-35 7 -59 34zM276 500l-133 -210q35 -6 61 -31l129 204q-35 10 -57 37zM443 501q-23 -29 -57 -37l121 -193q25 26 61 31zM128 292q-44 0 -75 -31t-31 -76q0 -38 25 -69q32 -37 81 -37q44 0 75 31t31 75q0 33 -17 60q-6 8 -13 15
q-24 25 -61 31q-10 1 -15 1zM443 500q12 15 18 35q5 15 5 31q0 44 -31 75.5t-76 31.5q-29 0 -54 -15t-39 -41q-13 -24 -13 -50q0 -38 24 -67q22 -27 57 -36q12 -3 26 -3q11 0 27 3q33 7 56 36zM615 299q-14 5 -31 5q-8 0 -16 -2q-35 -5 -60 -31q-14 -14 -22 -33
q-8 -20 -8 -41q0 -45 31.5 -76t75.5 -31q56 0 87 46q19 27 19 60q0 34 -20 62q-22 31 -56 41zM907 809q-32 0 -59 -18q-47 -31 -47 -89q0 -40 26 -69q24 -28 58 -34q10 -3 22 -3q50 0 82 39q24 29 24 68q1 44 -30.5 75t-75.5 31z" />
    <glyph glyph-name="newfile" unicode="&#xe607;" 
d="M902 230v283v3v232q0 35 -24.5 60t-60.5 25h-611q-35 0 -59.5 -25t-24.5 -60v-728q0 -35 24.5 -60t59.5 -25h286q9 0 16 7t7 17t-7 17t-16 7h-286q-15 0 -26 11t-11 26v728q0 16 11 27t26 11h611q16 0 27 -11t11 -27v-502h-213q-21 0 -35.5 -15t-14.5 -36v-232
q0 -28 17 -28q10 0 22 12l260 260q10 10 11 19v4v0v0zM819 200l-181 -182v177q0 5 4 5h177v0v0zM243 578h537q12 0 19.5 7.5t7.5 19t-7.5 19.5t-19.5 8h-537q-12 0 -19.5 -8t-7.5 -19.5t7.5 -19t19.5 -7.5v0v0zM243 377h537v0q12 0 19.5 7.5t7.5 19t-7.5 19.5t-19.5 8h-537
q-12 0 -19.5 -8t-7.5 -19.5t7.5 -19t19.5 -7.5v0v0zM243 377z" />
    <glyph glyph-name="2" unicode="&#xe625;" 
d="M826 732h40v-30h-40v30zM693 852q-21 -27 -58 -50h114q-31 20 -56 50zM436 819h113v-11h-113v11zM218 728h67v-24h-67v24zM244 844h13v-25h-13v25zM277 771h8v35h-15v-27q-1 -4 1 -6.5t6 -1.5zM1014 655v233h-999h-4l16 -19l766 -982q3 -4 8 -4q10 0 10 10q0 3 -2 6v0
l-62 80q108 24 180 108q79 93 79 216q0 137 -97 234.5t-235 97.5q-98 0 -180 -53l-2 -1q-1 -1 -2 -1q-73 -49 -113 -128l-158 203h795zM544 702q-2 -23 -27 -23h-23q-1 6 -3 14q13 -1 26 -1q12 0 12 12q1 6 1 15h-52q-7 -34 -52 -43q-3 5 -9 12q41 6 48 31h-30v10h32
q1 7 1 15h14q-1 -9 -1 -15h63v-27zM981 676q-18 17 -44 36q-12 -22 -46 -38q-3 6 -9 13q36 16 44 38q7 16 6 69h14q1 -50 -4 -69q29 -21 49 -36zM894 857h93v-13h-41l-6 -24h41v-99h-14v85h-56v-85h-13v99h28l5 24h-37v13zM800 846h40q-3 8 -9 18l13 6l12 -24h34v-27h-13v16
h-64v-16h-13v27zM819 781l7 11l22 -11q10 9 18 22h-38q-12 -18 -23 -30q-5 6 -9 10q19 19 31 47l13 -4q-4 -8 -6 -11h47v-11q-7 -16 -20 -29q12 -7 31 -16l-8 -13q-10 6 -34 19q-14 -12 -34 -21h63v-62h-13v8h-40v-10h-13v63q-6 -3 -12 -5q-3 5 -7 12q25 8 44 21
q-4 2 -10.5 5.5t-8.5 4.5zM686 869h21l-4 -6q31 -40 88 -61q-5 -7 -11 -16q-17 7 -29 15v-13h-51v-27h70v-15h-70v-47h83v-15h-181v15h83v47h-70v15h70v27h-51v14q-10 -7 -30 -18q-5 8 -10 15q66 31 92 70zM761 735q-14 -17 -29 -33l-12 10q16 16 27 32zM624 734l11 10
q14 -14 28 -31l-13 -10q-12 16 -26 31zM399 854h58v14h13v-14h44v14h14v-14h57v-11h-57v-10h-14v10h-44v-10h-13v10h-58v11zM439 750h-38v11h51q11 11 13 14h-29v-5h-13v60h139v-60h-13v5h-68q-2 -3 -6 -8t-5 -6h114v-11h-43q20 -14 50 -23q-5 -7 -9 -13q-36 15 -58 36h-65
q-24 -22 -56 -38q-4 6 -9 12q27 12 45 26zM309 859h69v-86h-14v7h-38v-67q0 -16 13 -16h19q11 0 13 12q3 13 4 31q4 -2 14 -6q-1 -16 -4 -30q-3 -21 -25 -21h-25q-23 0 -23 28v83h52v51h-55v14zM198 857h104v-13h-32v-25h28v-140h-13v13h-67v-13h-14v140h27v25h-33v13z
M986 303q0 -33 -6 -64l-290 71l170 243q59 -43 92.5 -109t33.5 -141zM844 565l-171 -244l-161 248q75 46 162 46q92 0 170 -50zM495 558l167 -257l2 -2q2 -4 6 -5l305 -74q-23 -86 -88 -146.5t-154 -77.5l-342 439q35 75 104 123zM231 806h-13v-49q13 15 13 42v7zM218 756
v-16h67v19h-14q-14 0 -14 16v31h-13v-8q0 -31 -16 -52l-4.5 4.5zM436 797h113v-12h-113v12z" />
    <glyph glyph-name="21" unicode="&#xe626;" 
d="M693 852q-21 -27 -58 -50h114q-31 20 -56 50zM348 816h-52q3 -48 28 -80q22 31 24 80zM1014 655v233h-999h-4l16 -19l766 -982q3 -4 8 -4q10 0 10 10q0 3 -2 6v0l-62 80q108 24 180 108q79 93 79 216q0 137 -97 234.5t-235 97.5q-98 0 -180 -53l-2 -1q-1 -1 -2 -1
q-73 -49 -113 -128l-158 203h795zM483 723l-6 13q6 4 10 12q10 25 20 62l15 -3q-11 -34 -23 -67q14 1 35 3l-10 34l14 4q9 -29 17 -59l-15 -4q-2 7 -3 12q-20 -2 -37 -3q-8 -1 -17 -4zM981 676q-18 17 -44 36q-12 -22 -46 -38q-3 6 -9 13q36 16 44 38q7 16 6 69h14
q1 -50 -4 -69q29 -21 49 -36zM894 857h93v-13h-41l-6 -24h41v-99h-14v85h-56v-85h-13v99h28l5 24h-37v13zM800 846h40q-3 8 -9 18l13 6l12 -24h34v-27h-13v16h-64v-16h-13v27zM819 781l7 11l22 -11q10 9 18 22h-38q-12 -18 -23 -30q-5 6 -9 10q19 19 31 47l13 -4
q-4 -8 -6 -11h47v-11q-7 -16 -20 -29q12 -7 31 -16l-8 -13q-10 6 -34 19q-14 -12 -34 -21h63v-62h-13v8h-40v-10h-13v63q-6 -3 -12 -5q-3 5 -7 12q25 8 44 21q-4 2 -10.5 5.5t-8.5 4.5zM686 869h21l-4 -6q31 -40 88 -61q-5 -7 -11 -16q-17 7 -29 15v-13h-51v-27h70v-15h-70
v-47h83v-15h-181v15h83v47h-70v15h70v27h-51v14q-10 -7 -30 -18q-5 8 -10 15q66 31 92 70zM761 735q-14 -17 -29 -33l-12 10q16 16 27 32zM624 734l11 10q14 -14 28 -31l-13 -10q-12 16 -26 31zM406 858h66v-56q20 30 29 67l15 -3q-5 -17 -9 -27h74q-1 -93 -2 -126
q-2 -32 -32 -32q-19 0 -36 1q-1 8 -3 16q19 -2 35 -3q20 1 21 21q2 35 2 109h-65q-6 -14 -15 -31q-6 4 -14 7v-64h-14v107h-38v-108h-14v122zM425 725q7 16 7 57v45h14v-40q0 -38 -5 -59l5 6l36 -38l-13 -10q-13 17 -30 36q-7 -22 -34 -46q-5 7 -10 12q22 17 30 37zM284 794
q-5 -10 -11 -20q-3 5 -10 12q25 43 36 84l15 -5q-6 -19 -13 -34h86v-15h-23q-3 -57 -29 -92q19 -17 56 -30q-7 -9 -11 -16q-35 15 -56 34q-19 -18 -52 -36q-4 7 -10 13q33 17 52 35q-23 28 -30 70zM206 744v97h14v-100q4 2 12 6.5t13 6.5v114h15v-190h-15v60q-12 -7 -24 -15
q-5 -4 -10 -9l-11 13q6 7 6 17zM986 303q0 -33 -6 -64l-290 71l170 243q59 -43 92.5 -109t33.5 -141zM844 565l-171 -244l-161 248q75 46 162 46q92 0 170 -50zM495 558l167 -257l2 -2q2 -4 6 -5l305 -74q-23 -86 -88 -146.5t-154 -77.5l-342 439q35 75 104 123zM826 732h40
v-30h-40v30z" />
    <glyph glyph-name="celveicon" unicode="&#xe716;" 
d="M791 215h112v-56h-112v56zM847 550h112v-56h-112v56zM456 830h112v-56h-112v56zM121 215h112v-56h-112v56zM65 550h112v-56h-112v56zM512 718q-116 0 -197.5 -82t-81.5 -197q0 -85 46 -154t121 -102v-136l7.5 -15t18.5 -24.5t27 -15.5h3v-56h112v56q7 0 13.5 3t12 8
t10 11t8.5 11.5t6.5 10.5t3.5 8l2 3v136q75 33 121 102t46 154q0 115 -81.5 197t-197.5 82zM568 47h-112v56h112v-56z" />
    <glyph glyph-name="jiahao21" unicode="&#xe647;" 
d="M861 370q0 -24 -17 -41.5t-41 -17.5h-583q-24 0 -41 17.5t-17 41.5v28q0 24 17 41.5t41 17.5h583q24 0 41 -17.5t17 -41.5v-28zM526 734q24 0 41 -17.5t17 -40.5v-584q0 -23 -17 -40.5t-41 -17.5h-29q-24 0 -41 17.5t-17 40.5v584q0 23 17 40.5t41 17.5h29z" />
    <glyph glyph-name="tuijian" unicode="&#xe690;" horiz-adv-x="1025" 
d="M512 288q-92 0 -158 65.5t-66 158.5t66 158.5t158.5 65.5t158 -65.5t65.5 -158.5t-65.5 -158.5t-158.5 -65.5v0zM865 338q41 81 41 171q0 105 -53 194t-143.5 141t-197.5 52t-197.5 -52t-143 -141t-52.5 -194q0 -90 41 -171l-160 -272q101 -21 204 -42l137 -152l146 250
q21 -1 25.5 -1t24.5 1l147 -250q68 76 137 152q28 6 60 12.5t56.5 11.5t44.5 9t31.5 6.5l11.5 2.5l-160 272v0zM512 672q-66 0 -113 -47t-47 -113t47 -113t113.5 -47t113 47t46.5 113t-46.5 113t-113.5 47v0z" />
    <glyph glyph-name="xiazai" unicode="&#xe641;" 
d="M949 778h-180v-103h103q22 0 37 -15t15 -36v-566q0 -22 -15 -37t-37 -15h-720q-21 0 -36 15t-15 37v566q0 21 15 36t36 15h103v103h-180q-32 0 -54.5 -22.5t-22.5 -54.5v-720q0 -32 22.5 -55t54.5 -23h874q32 0 55 23t23 55v720q0 32 -23 54.5t-55 22.5v0zM514 161l19 19
l7 -7l275 276l-73 72l-178 -178v499q0 16 -11.5 27.5t-27.5 11.5h-26q-16 0 -27 -11.5t-11 -27.5v-477l-157 156l-75 -75l285 -285v0z" />
    <glyph glyph-name="cuo" unicode="&#xe644;" 
d="M613 386l225 225q21 21 21 51t-21 51.5t-51 21.5t-51 -22l-225 -224l-225 224q-21 22 -51 22t-51 -21.5t-21 -51.5t21 -51l225 -225l-225 -224q-21 -22 -21 -51.5t21 -51.5q9 -8 24 -14.5t27 -6.5v0v0q13 0 28 6.5t23 14.5l225 225l225 -225q9 -8 24 -14.5t27 -6.5v0v0
q13 0 27.5 6.5t23.5 14.5q21 22 21 51.5t-21 51.5z" />
    <glyph glyph-name="jinnang" unicode="&#xe637;" 
d="M919 414q-12 0 -21 7l-140 96q-16 11 -16 30.5t17 30.5l141 95q13 9 28 6t23.5 -15.5t5.5 -27.5t-15 -24l-97 -65l95 -66q13 -9 15.5 -24t-6.5 -27q-11 -16 -30 -16zM288 570h399q13 0 24 9q134 105 97 203q-10 27 -36 43.5t-59 16.5h-1q-41 0 -77 -27q-17 -13 -31 -31
q-5 17 -12 31q-33 69 -98 69q-64 0 -104 -81q-5 -10 -12 -26q-44 62 -104 63q-30 1 -56 -14.5t-39 -41.5q-25 -50 -6 -100q20 -56 93 -106q9 -8 22 -8zM777 454q-19 16 -26 23q-11 11 -27 11h-457q-13 0 -24 -8q-28 -22 -33 -26q-143 -117 -143 -297v-158q0 -48 33.5 -81.5
t80.5 -33.5h625q48 0 81.5 33.5t33.5 81.5v158q0 179 -144 297z" />
    <glyph glyph-name="logo1" unicode="&#xe627;" horiz-adv-x="1489" 
d="M1190 267q-10 0 -25 -8q-16 -9 -20 -20q-7 -13 -7 -30q0 -11 5 -22q2 -8 13 -19q2 -2 5.5 -4.5t5.5 -4.5q1 -1 3 -2t3 -2q1 0 3 -1t4 -1q6 -2 15 -2q11 0 21 2v30q-23 -2 -36 2q-3 2 -11 9q-4 8 -4 15q0 4 4 15q4 7 11 9q17 7 36 4v30q-15 3 -26 0zM1489 233.5
q0 5.5 -3 9.5q-1 1 -3 4t-3 5l-9 9l-11 6q-4 2 -13.5 2t-24.5 -8q-10 8 -24 8q-5 0 -17 -4q-8 -3 -14 -9q-8 -8 -8 -11.5t-4 -11.5q0 -1 -0.5 -5.5t-0.5 -7.5v-67h29v78q0 2 4 6q2 2 8 2q3 0 5 -2q4 0 4 -4q2 -2 2 -11v-67h29v67q0 9 2 11q0 4 4 4q1 0 3 1t3 1q3 0 5 -2
l4 -4q2 -2 2 -11v-69h30v69q1 6 1 11.5zM1115 185q-2 2 -9 2q-6 0 -8 -2l-5 -6q-2 -4 -2 -9q0 -8 6 -11q5 -6 11 -6q8 0 11 6q6 5 6 10.5t-2 9.5q-4 4 -8 6zM1313 261q-13 8 -28 8q-18 0 -28 -8q-15 -9 -21 -20q-7 -13 -7 -30.5t7 -29.5q9 -15 21 -20q12 -8 28 -8q13 0 28 8
q14 8 20 20q8 12 8 29.5t-8 30.5q-6 11 -20 20zM1309 196q-3 -6 -11 -11q-4 -4 -13 -4q-6 0 -13 4l-12 11q-3 7 -3 15q0 4 3 15q2 5 12 11q7 4 12.5 4t13.5 -4l11 -11q4 -8 4 -15.5t-4 -14.5zM821 287q-11 6 -35 6h-30v-90h30v60h7q11 0 17 -4t9 -13q1 -1 1 -8t-0.5 -15
l-0.5 -8q0 -19 -9 -26q-4 -4 -13 -4h-45v-30h45q20 0 35 15q15 13 15 41v20q0 17 -2 26q-3 21 -24 30zM482 200v-2q0 -9 -2 -13t-7 -4h-11q-4 0 -8 4q-2 4 -2 13v13h-29v-24q0 -6 1 -10q0 -1 1 -3.5t1 -3.5q0 -2 4 -6q8 -11 24 -11h23q15 0 24 11q1 1 2 3t2 3q1 2 1 7
q0 2 1 5t1 5v108h-30q4 -41 4 -95zM1465 438l-2 -4q-11 -18 -16 -24q-12 -11 -28 -11h-65q0 -6 -2 -8q0 -2 -1 -7t-1 -7q-1 -5 -3 -15.5t-3 -14.5h-76v3q0 6 2 8q1 5 2.5 15t2.5 15q0 5 2 7v4q2 2 0 2h-179q-14 0 -22 -2q-16 -7 -22 -17q-6 -7 -19 -33h-4h-180v1q0 4 2 8
q0 2 1 6.5t1 6.5q1 5 2.5 13t2.5 13q7 32 9 54q3 17 9.5 50.5t9.5 50.5v5h-128q0 -1 -1 -2t-1 -2q-1 -1 -2 -2.5t-2 -2.5q-1 -2 -3.5 -6.5t-3.5 -6.5q-19 -34 -30 -52q-2 -3 -15.5 -27.5t-26.5 -47.5t-16 -26q-16 -21 -41 -30q-18 -3 -24 -3h-80v1q0 2 2 4q0 1 1 3t1 3
q1 5 9 26q0 2 2 4q0 1 3 1h28q14 0 26 8q9 6 17 20q4 8 12.5 23t11.5 22l51 89q1 1 1.5 3t1.5 3v2h-93v2q0 2 2 3q2 10 10 25q0 1 0.5 2.5t0.5 2.5q0 2 2 2h103q0 1 0.5 2t0.5 2q1 2 4 6.5t4 6.5q1 3 4 7.5t3 5.5t1 2t1 2t2 1h78l-1 -1t-1 -2t-0.5 -2t-1.5 -2.5t-1 -3.5
q-1 -2 -4 -6.5t-4 -6.5q-1 -1 -2 -3.5t-1 -3.5t-1 -2t-1 -2q0 -2 -2 -2h190v0v-5q0 -6 -2 -8q0 -3 -1 -8t-1 -7q-2 -10 -5.5 -31.5t-5.5 -31.5t-5.5 -31.5t-5.5 -31.5q-1 -6 -3 -16t-3 -16q0 -3 -1 -8t-1 -7v-4h54q0 2 2 2q0 1 1 3t1 3q13 24 39 35q15 8 52 8h196q0 3 2 7
q0 2 0.5 6.5t0.5 6.5q4 19 10.5 55t10.5 55q8 39 9 54v4h4h74v-2v-4q0 -4 -1 -7q0 -2 -1 -6.5t-1 -6.5q-8 -39 -10 -54q-7 -39 -9 -54l-6 -28q0 -2 -0.5 -6.5t-0.5 -6.5q0 -4 -2 -8v-5h2l98 -4v0zM1130 594zM1132 594zM1208 555zM1212 555zM424 401q-16 -88 -72 -157
t-138 -102q-9 -4 -41 -13q-4 -1 -10.5 -3t-9.5 -3q-2 0 -5.5 -1t-4.5 -1h-9q39 24 69 54q32 33 56 69q2 2 2 6q0 2 2 2h-2q-2 0 -6 -1t-6 -1q-7 -2 -20 -2q-14 -2 -41 2q-90 10 -145.5 83.5t-38.5 164.5q15 90 91 141t166 32q39 -8 80 -36q22 -16 33 -31q2 -2 0 -2h-2
q-1 0 -1 2q-1 0 -2 1t-2 1q-2 0 -5 2t-5 3q-3 3 -18 8q-41 14 -84 8.5t-78 -29.5q-37 -24 -60 -63q-24 -38 -24 -80q0 -46 29 -81t73 -42q45 -7 83.5 18t51.5 69q12 45 -7 85.5t-62 58.5q7 37 59 41q14 2 28 0q9 0 15 -2h11q2 0 4 -2q15 -18 26 -37q36 -65 20 -162zM653 203
v-3q0 -10 2 -13q0 -4 4 -12q1 -1 3 -4t3 -5q5 -8 15 -11q11 -4 18 -4q6 0 17 4q6 2 13 9q6 7 9 15q2 6 2 21v67h-30v-71q0 -4 -3 -11q-2 -4 -10 -4q-5 0 -7 2l-6 6q-2 1 -2 11v67h-29q1 -23 1 -64zM860 211q0 17 8 30q9 16 20 20q12 8 28 8q18 0 28 -8q15 -9 20 -20
q8 -13 8 -30.5t-8 -29.5q-9 -16 -20 -20q-12 -8 -28 -8q-18 0 -28 8q-16 9 -20 20q-8 19 -8 30zM890 211q0 -4 4 -15q2 -6 11 -11q7 -4 12.5 -4t13.5 4q5 3 11 11q4 7 4 15q0 4 -4 15q-3 5 -11 11q-8 4 -13.5 4t-12.5 -4q-6 -3 -11 -11q-4 -11 -4 -15zM989 203v64h29v-67
q0 -10 2 -11l2 -2.5t4 -3.5q2 -2 7.5 -2t9.5 4q3 7 3 11v71h30v-67q0 -15 -2 -21q-3 -8 -9 -15q-6 -5 -13 -9q-19 -4 -21 -4q-7 0 -18 4q-10 3 -15 11q-1 2 -3 5t-3 4l-3 12q0 1 -1 5.5t-1 7.5q2 0 2 3zM1054 501q-1 -1 -2 -2.5t-2 -2.5q-7 -11 -9 -17q3 4 7 12t6 10z
M1212 518q-7 -15 -13 -22q1 1 2 2.5t2 2.5q2 6 9 17zM1212 518zM1212 518q-7 -11 -9 -17q0 -2 -4 -5l-9 -10q-2 0 -2 -1q-2 0 -2 -2q-2 0 -2 -2h-4q-3 0 -5 -2h-129q8 11 10 17q0 2 3 5l8 8l2 2q2 0 2 1q1 0 1 2q2 0 2 2h2q2 0 2 2q4 2 11 2h2zM1167 479zM1087 518
q-7 0 -11 -2q4 2 11 2zM1089 518zM1165 479zM1169 479zM1253 594q-7 -11 -9 -16l-2 -2q0 -2 -2 -2l-9 -9q-2 0 -2 -2q-2 0 -2 -2q-2 0 -2 -2h-4q-3 0 -5 -2h-129q8 11 10 17q0 2 1 2l4 3q0 2 2 2l6 6q2 0 2 2q1 0 1 2q2 0 2 2h2q2 0 4 1h132zM1210 555zM1095 576l-2 -2
q-8 -11 -9 -17q7 11 11 19zM1253 594q-2 -2 -5.5 -8.5t-5.5 -9.5v2q8 8 11 16zM1253 594zM527 210.5q0 17.5 7 30.5q10 16 21 20q12 8 28 8q18 0 28 -8q16 -12 20 -20q8 -13 8 -30.5t-8 -29.5q-10 -16 -20 -20q-13 -8 -28 -8q-18 0 -28 8q-16 9 -21 20q-7 12 -7 29.5z
M557 211q0 -4 3 -15q3 -6 12 -11q7 -4 12.5 -4t13.5 4q5 3 11 11q4 7 4 15q0 4 -4 15q-3 5 -11 11q-8 4 -13.5 4t-12.5 -4q-6 -3 -12 -11q-3 -6 -3 -15z" />
    <glyph glyph-name="celve1" unicode="&#xe62a;" horiz-adv-x="1488" 
d="M849 788h-567q-15 0 -26 -12.5t-11 -29.5v-801q0 -17 11 -29.5t26 -12.5h567q60 0 102 48.5t42 116.5v555q0 69 -42 117t-102 48zM311 632h600v-76h-600v76zM731 441v-76h-415v76h415zM630 15l-26 31l-140 150l-129 -134l-56 53l182 189l3 -3l3 3l48 -52l2 -1l120 -129
l261 218l49 -58zM951 922h-555v-76h555q44 0 75 -37t31 -90v-736h77v736q0 84 -53.5 143.5t-129.5 59.5z" />
    <glyph glyph-name="icon-test2" unicode="&#xe629;" horiz-adv-x="1488" 
d="M758 723h-105v-286h-287v-106h287v-287h105v287h287v106h-287v286zM1113 904h-815q-47 0 -80 -33t-33 -80v-814q0 -47 33 -80.5t80 -33.5h815q46 0 79.5 33.5t33.5 80.5v814q0 47 -33.5 80t-79.5 33zM1150 -23q0 -16 -11 -27t-26 -11h-815q-16 0 -27 11t-11 27v814
q0 16 11 27t27 11h815q15 0 26 -11t11 -27v-814z" />
    <glyph glyph-name="icon-test3" unicode="&#xe62f;" horiz-adv-x="1488" 
d="M1067 880h-764q-44 0 -75 -31t-31 -75v-764q0 -44 31 -75t75 -31h764q44 0 75 31.5t31 74.5v764q0 44 -31 75t-75 31zM1003 343h-268v-269h-99v269h-269v99h269v268h99v-268h268v-99z" />
    <glyph glyph-name="dui" unicode="&#xe62c;" horiz-adv-x="1488" 
d="M1121 917h-815q-47 0 -80 -33t-33 -80v-815q0 -46 33 -79.5t80 -33.5h815q46 0 79.5 33.5t33.5 79.5v815q0 47 -33 80t-80 33zM1158 -11q0 -15 -11 -26t-26 -11h-815q-16 0 -27 11t-11 26v815q0 16 11 27t27 11h815q15 0 26 -11t11 -27v-815zM1027 685l-424 -426
l-203 203l-75 -74l203 -203l-2 -2l74 -74l2 1l75 75l425 425z" />
    <glyph glyph-name="zhiding" unicode="&#xe631;" horiz-adv-x="1488" 
d="M262 -37v815q0 16 11 26.5t27 10.5h815q15 0 26 -10.5t11 -26.5v-460h76v460q0 47 -33 80t-80 33h-815q-47 0 -80 -33t-33 -80v-815q0 -47 33 -80t80 -33h468v76h-468q-16 0 -27 10.5t-11 26.5v0zM1008 415l-338 -400h172v-168h331v168h172zM1098 90v-167h-181v167h-84
l175 208l174 -208h-84z" />
    <glyph glyph-name="dui1" unicode="&#xe632;" horiz-adv-x="1487" 
d="M1044 662l-349 -351l-167 167l-62 -61l167 -167l-2 -1l62 -62l2 1l61 62l350 350z" />
    <glyph glyph-name="angleleft-copy" unicode="&#xe7a9;" 
d="M512 226l-389 389q-10 10 -24.5 10t-24.5 -10t-10 -24.5t10 -24.5l413 -413q6 -5 12 -8q21 -8 38 8l413 413q10 10 10 24.5t-10 24.5t-24.5 10t-24.5 -10z" />
    <glyph glyph-name="angleleft-copy-copy" unicode="&#xe7aa;" 
d="M512 542l389 -389q10 -10 24.5 -10t24.5 10t10 24.5t-10 24.5l-413 413q-6 5 -12 8q-21 8 -38 -8l-413 -413q-10 -10 -10 -24.5t10 -24.5t24.5 -10t24.5 10z" />
    <glyph glyph-name="ku" unicode="&#xe645;" 
d="M512 896q-139 0 -257 -68.5t-186.5 -186.5t-68.5 -257t68.5 -257t186.5 -186.5t257 -68.5t257 68.5t186.5 186.5t68.5 257t-68.5 257t-186.5 186.5t-257 68.5zM256 490.5q0 26.5 19 45.5t45 19t45 -19t19 -45.5t-19 -45t-45 -18.5t-45 18.5t-19 45zM708 139
q-14 -11 -31.5 -8.5t-28.5 15.5q-51 66 -134 66q-85 0 -136 -67q-13 -17 -34 -17q-15 0 -26 9q-14 11 -16.5 28.5t8.5 31.5q37 48 90 74.5t114 26.5q59 0 112 -26t90 -73q10 -14 8 -31.5t-16 -28.5zM704 427q-26 0 -45 18.5t-19 45t19 45.5t45 19t45 -19t19 -45.5t-19 -45
t-45 -18.5z" />
    <glyph glyph-name="celue" unicode="&#xe63a;" 
d="M676 755h-552q-15 0 -25.5 -12.5t-10.5 -29.5v-779q0 -17 10.5 -29.5t25.5 -12.5h552q59 0 100 47.5t41 114.5v540q0 67 -41.5 114t-99.5 47zM152 603h585v-74h-585v74zM561 417v-74h-404v74h404zM462 2l-25 30l-136 146l-126 -130l-54 51l177 184l3 -3l3 3l47 -51l1 -1
l118 -126l254 213l48 -56zM776 886h-541v-74h541q42 0 72.5 -36.5t30.5 -87.5v-718h74v718q0 81 -52 139.5t-125 58.5z" />
    <glyph glyph-name="icon-test6" unicode="&#xe63d;" 
d="M512 -128q-139 0 -257 68.5t-186.5 186.5t-68.5 257t68.5 257t186.5 186.5t257 68.5t257 -68.5t186.5 -186.5t68.5 -257t-68.5 -257t-186.5 -186.5t-257 -68.5zM512 828q-90 0 -172.5 -35t-142 -94.5t-94.5 -142t-35 -172.5t35 -172.5t94.5 -142t142 -94.5t172.5 -35
t172.5 35t142 94.5t94.5 142t35 172.5t-35 172.5t-94.5 142t-142 94.5t-172.5 35zM762 592l-338 -338l-161 161l-60 -59l162 -161l-3 -1l60 -60l2 1l59 60l338 338z" />
    <glyph glyph-name="guizheng" unicode="&#xe63b;" 
d="M555 652h-85v-230h-230v-85h230v-230h85v230h230v85h-230v230zM838 798h-650q-37 0 -63.5 -26.5t-26.5 -63.5v-650q0 -37 26.5 -63.5t63.5 -26.5h650q37 0 63.5 26.5t26.5 63.5v650q0 37 -26.5 63.5t-63.5 26.5zM868 58q0 -13 -8.5 -21.5t-21.5 -8.5h-650
q-13 0 -21.5 8.5t-8.5 21.5v650q0 12 8.5 21t21.5 9h650q12 0 21 -9t9 -21v-650v0z" />
    <glyph glyph-name="guizheng1" unicode="&#xe63c;" 
d="M838 798h-650q-37 0 -63.5 -26.5t-26.5 -63.5v-650q0 -38 26.5 -64t63.5 -26h650q37 0 63.5 26.5t26.5 63.5v650q0 37 -26.5 63.5t-63.5 26.5zM868 58q0 -13 -8.5 -21.5t-21.5 -8.5h-650q-12 0 -21 8.5t-9 21.5v650q0 12 9 21t21 9h650q13 0 21.5 -9t8.5 -21v-650z
M763 613l-338 -340l-162 162l-60 -59l162 -162l-2 -2l60 -59l2 1l59 60l339 339z" />
    <glyph glyph-name="sc" unicode="&#xe62b;" 
d="M64 393q0 69 42.5 124.5t106.5 73.5q36 91 118 148t183 57t181.5 -57t116.5 -148q66 -19 107 -74t41 -124q0 -86 -61 -147t-148 -61q-17 0 -29.5 12.5t-12.5 29.5q0 18 12.5 30t29.5 12q53 0 89.5 36t36.5 88q0 58 -44 93l-7 7q-2 3 -10 7q-1 2 -4.5 3t-4.5 2l-2 1l-4 2
l-4 2l-2 1q-4 1 -7.5 2t-5.5 2l-5 1q-2 1 -4.5 1t-4.5 1h-20q-3 10 -5 21q0 1 -1 2.5t-1 2.5q-1 3 -2.5 8t-2.5 7q0 1 -2 5q-1 2 -2.5 7t-3.5 7l-2 5q-1 3 -4.5 7.5t-5.5 7.5q-31 52 -85 83.5t-117 31.5q-65 0 -119.5 -31.5t-85.5 -83.5l-7 -15l-2 -2v-1l-1 -2l-8 -14l-1 -5
l-6 -15l-1 -5q-4 -11 -4 -21h-22q-5 -2 -7 -3l-4 -1h-4l-2 -1q-1 0 -3.5 -0.5t-3.5 -0.5l-5 -2q-1 -1 -3.5 -2t-3.5 -2l-3 -1l-8 -4l-2 -1q-4 -3 -7 -6q-3 -2 -6.5 -5l-3.5 -3q-41 -33 -41 -93q0 -52 36.5 -88t87.5 -36q19 0 31.5 -12t12.5 -30q0 -17 -12.5 -29.5
t-31.5 -12.5q-86 0 -148 61t-62 147zM345 254q0 13 10 29l127 139q12 13 31 13q17 0 32 -13l125 -139q12 -12 12 -29t-12.5 -29t-31.5 -12q-15 0 -29 14l-54 58v-210q0 -18 -12 -29.5t-30 -11.5t-29.5 11.5t-11.5 29.5v210l-53 -58q-15 -14 -32 -14t-29.5 12t-12.5 29z" />
    <glyph glyph-name="icon-test5" unicode="&#xe62d;" 
d="M147 277q33 0 57 25t24 62q0 9 -3 21l185 196q11 -3 20 -3t21 3l104 -109q-3 -16 -3 -23q0 -36 24 -61.5t57.5 -25.5t58 26t24.5 61q0 7 -4 23l145 153q11 -3 20 -3q34 0 58 26t24 61t-24 61t-58 26q-33 0 -57 -25.5t-24 -61.5q0 -9 3 -21l-144 -154q-12 3 -21 3t-21 -3
l-104 110q3 15 3 22q0 36 -24 61.5t-58 25.5q-33 0 -57 -25t-24 -62q0 -7 3 -22l-186 -198q-12 3 -21 3q-34 0 -58 -25.5t-24 -61.5q1 -34 25.5 -59.5t58.5 -25.5zM65 140h891v76h-891v-76z" />
    <glyph glyph-name="icon-test7" unicode="&#xe62e;" 
d="M946 118l-6 -7q-22 -12 -40 7l-100 152q-11 24 7 44l7 7q22 12 40 -7l99 -152q9 -11 6.5 -24.5t-13.5 -19.5zM807 328q-60 -43 -129.5 -28.5t-109.5 79.5q-44 60 -29 134.5t75 118.5t133.5 29t112.5 -80q41 -64 26 -139.5t-79 -113.5zM820 560q-29 48 -85 58.5
t-101 -22.5q-44 -32 -53.5 -89.5t20.5 -105.5q30 -49 86 -59.5t100 22.5q45 33 54 90t-21 106zM721 574q-45 0 -76 -32t-31 -76q0 -23 11.5 -37.5t8.5 -28.5q0 -9 -15 0q-30 23 -31 73q0 49 34 86t79 37q44 0 41 -18l-1 -4v0q2 -3 1 -3t-6 1q-10 2 -15 2zM637 249v-145
q0 -16 -9 -26t-24 -10h-43q-15 0 -24 10t-9 26v246q8 -13 19.5 -34.5t17 -30t16 -19t23.5 -14t33 -3.5zM365 68h-36q-15 0 -24 10t-9 26v506q0 17 9 27t24 10h36q14 0 23.5 -12t9.5 -25v-506q0 -16 -9 -26t-24 -10zM129 68h-33q-15 0 -24 10t-9 26v658q0 17 9 26.5t24 9.5
h33q15 0 24 -9.5t9 -26.5v-658q0 -16 -9 -26t-24 -10z" />
    <glyph glyph-name="zhong" unicode="&#xe633;" horiz-adv-x="2049" 
d="M197 867l-49 29l-58 -14l-70 -53l-19 -51v-105l22 -49l6 -204l-9 -305l-7 -125l23 -83l96 -35l73 23l166 15l-15 29l-205 20l-38 31l-26 41l-13 132l16 461l-8 111l43 62l57 19l195 -10l53 29l25 -22l124 9l-51 42zM2020 339l-13 467l-26 45l-60 32h-356l-883 -2l-90 -58
l39 3l1258 -13l32 -16l28 -22v-52l17 -598l-17 -118l-28 -52h-71l-166 -16l-1043 7l147 -51h688l185 -23h205l128 45l32 70l23 234zM672 468q-12 -177 -21 -274q-7 -35 5.5 -50.5t43.5 -11.5q107 0 194 7h11q69 3 72 -59v-66q0 -49 49 -49q52 4 56 63q0 50 7 72q7 31 38 49
q39 21 39 35t-49 45q-24 20 -38 73q0 8 -10 62q-4 26 -4 31q-7 52 -24 52q-21 0 -35 -48q-1 -7 -4.5 -24.5l-5.5 -27.5q-5 -29 -7 -39q-21 -56 -87 -72h-59q-77 10 -84 79v132q0 105 63 136q38 21 38 39q2 13 -11 23.5t-41 17.5q-65 17 -146 17q-59 -24 -31 -72
q48 -32 41 -140zM1398 667q-31 3 -107 7q-122 3 -136 10q-45 25 -66 59q-21 45 -52 41q-16 4 -26.5 -7.5t-15.5 -37.5q-13 -51 -72 -72q-30 -9 -43 -18.5t-10 -20.5q0 -24 63 -48q52 -21 66 -63q14 -52 35 -52q24 7 41 59q21 56 94 59q146 -11 146 -105q3 -37 3 -142
q0 -97 -72 -115q-39 -7 -56 -16.5t-14 -21.5q-4 -28 76 -45q29 -3 119 -7q59 0 52 55q-7 27 -18 150v14q-3 23 -3 156q0 59 31 111q14 39 -35 50z" />
    <glyph glyph-name="di" unicode="&#xe634;" horiz-adv-x="2049" 
d="M197 867l-49 29l-58 -14l-70 -53l-19 -51v-105l22 -49l6 -204l-9 -305l-7 -125l23 -83l96 -35l73 23l166 15l-15 29l-205 20l-38 31l-26 41l-13 132l16 461l-8 111l43 62l57 19l195 -10l53 29l25 -22l124 9l-51 42zM2020 339l-13 467l-26 45l-60 32h-356l-883 -2l-90 -58
l39 3l1258 -13l32 -16l28 -22v-52l17 -598l-17 -118l-28 -52h-71l-166 -16l-1043 7l147 -51h688l185 -23h205l128 45l32 70l23 234zM775 736q17 40 47 37q34 0 24 -63q-7 -53 -37 -141q-20 -61 -20 -81q3 -30 -17 -36q-20 -4 -43 20q-7 6 -31 6q-46 0 -60 37q-20 61 20 57
q36 7 77 74q16 30 40 90zM788 398q17 -56 11 -171q0 -12 -4 -37q-3 -96 -10 -134q-3 -47 -47 -44q-50 3 -47 50q10 104 26 181q7 40 20 94q11 39 14 57q7 37 16 37q12 0 21 -33zM909 713q48 0 93 -7q16 -4 20 -4q47 -19 7 -56q-60 -40 -47 -94q13 -67 77 -80q67 -7 94 56
q7 17 24 20q13 -3 20 -20q12 -31 43 -67q27 -26 10 -40q-34 -50 4 -171q4 -10 7 -20q32 -113 54 -111q9 1 16 17q13 24 13 70v27q3 37 40 37q34 -3 37 -41q3 -51 -6 -113q-13 -104 -91 -104q-78 7 -114 113q-17 45 -33 151q-6 75 -25.5 108t-51.5 23q-80 6 -110 -54
q-37 -87 -20 -154q26 -74 141 -4q36 20 56 -13q13 -37 -23 -61q-47 -23 -41 -77q0 -20 -17 -30q-17 -3 -33 13q-23 27 -87 24q-38 -7 -84 -7q-73 17 -26 77q40 61 56 232q4 51 4 150q0 71 -40 134q-3 7 -14 17q-13 14 -13 24q6 28 60 35zM1318 756q50 20 70 -20
q13 -40 -24 -54q-32 -14 -76 -19q-60 -13 -81 -57q-13 -37 -30 -41q-17 3 -30 50q-7 18 -47 37q-3 1 -7 3.5t-7 3.5q-20 10 -23 23q0 10 20 20q34 14 104 20q87 10 131 34zM1291 472l6 3q51 13 77 10q34 0 37 -40q-3 -41 -37 -41q-8 0 -26 4q-21 2 -51 7q-33 10 -36 26
q0 14 30 31z" />
    <glyph glyph-name="gao" unicode="&#xe636;" horiz-adv-x="2049" 
d="M197 867l-49 29l-58 -14l-70 -53l-19 -51v-105l22 -49l6 -204l-9 -305l-7 -125l23 -83l96 -35l73 23l166 15l-15 29l-205 20l-38 31l-26 41l-13 132l16 461l-8 111l43 62l57 19l195 -10l53 29l25 -22l124 9l-51 42zM2020 339l-13 467l-26 45l-60 32h-356l-883 -2l-90 -58
l39 3l1258 -13l32 -16l28 -22v-52l17 -598l-17 -118l-28 -52h-71l-166 -16l-1043 7l147 -51h688l185 -23h205l128 45l32 70l23 234zM720 702q150 -3 168 -44q-6 -18 -68 -37q-63 -15 -97 -6q-52 12 -49 40q3 44 46 47zM1116 366q81 -9 87 -34q-10 -19 -66 -25q-47 -3 -115 0
q-81 6 -150 0q-45 -5 -67.5 -20.5t-22.5 -41.5q-3 -119 -3 -125q-9 -99 -52 -99q-27 -3 -39.5 8.5t-10.5 38.5q0 15 12 43q22 76 22 140q0 28 -15 62q-16 28 -6 49q3 7 40 7q53 0 96 3q66 3 290 -6zM745 584q10 13 47 6q18 -3 31 -3h13q83 9 196 6q46 0 67 -7.5t17 -23.5
q-12 -15 -72 -25h-128q-61 -12 -61 -43q3 -16 37 -26q34 -12 37 -28q-3 -28 -71 -37h-3q-50 -3 -78 0q-28 6 -22 43q0 4 3 13q9 59 -6 78l-3 3q-25 19 -4 44zM1047 276h96q21 -3 53 -6q44 -3 47 -12q9 -13 3 -35q-3 -15 -3 -28q0 -22 3 -47q0 -22 -3 -28q-16 -25 -84 -25
h-109q-69 3 -113 0q-87 -6 -102 6q-6 7 -3 44q3 24 3 31q-3 41 -15 62q-3 6 -3 9q-4 22 34 25h69q40 -3 52 -18q3 -16 -34 -28q-22 -7 -28 -12q-22 -16 -12 -32q9 -19 37 -22h193q37 6 47 31q-13 32 -44 35h-78q-59 3 -68 25q-2 9 13.5 15.5t48.5 9.5zM1022 736
q62 -31 99 -28h19q102 -6 193 -3q46 -9 52 -40q0 -32 -22 -44q-56 -6 -112 0q-80 6 -190 6q-149 6 -155 31q0 19 37 35q20 10 44 34q14 12 35 9zM1200 587q87 3 99 -18q6 -12 0 -31t-6 -32q12 -77 -3 -99q-6 -9 -90 -6q-100 3 -174 3q-75 3 -81 43q25 23 146 26q84 3 102 12
q38 15 32 34q-6 12 -47 22q-47 9 -53 25q6 21 75 21zM1374 342q3 -10 -3 -26q-10 -31 -7 -68q4 -51 7 -90q3 -47 0 -75q-3 -72 -69 -72q-93 0 -106 44q6 50 59 43q30 -9 37 40q4 28 0 76q-6 71 -34 87q-10 6 -25 12q-25 6 -28 22q9 25 74 31q63 0 95 -24z" />
    <glyph glyph-name="jiaogao" unicode="&#xe63e;" horiz-adv-x="2049" 
d="M197 867l-49 29l-58 -14l-70 -53l-19 -51v-105l22 -49l6 -204l-9 -305l-7 -125l23 -83l96 -35l73 23l166 15l-15 29l-205 20l-38 31l-26 41l-13 132l16 461l-8 111l43 62l57 19l195 -10l53 29l25 -22l124 9l-51 42zM2020 339l-13 467l-26 45l-60 32h-356l-883 -2l-90 -58
l39 3l1258 -13l32 -16l28 -22v-52l17 -598l-17 -118l-28 -52h-71l-166 -16l-1043 7l147 -51h688l185 -23h205l128 45l32 70l23 234zM398 723q21 -3 27 -18q3 -19 18 -27q22 -12 61 -15q27 -3 40 -10q34 -48 -34 -67q-15 -3 -51 0h-30q-20 -8 -46 -27q-15 -12 -22 -12
q-3 0 -12 12q-18 22 -33 25q-39 0 -46 39q3 40 27 40q28 0 40 6q12 9 27 30q19 27 34 24zM443 288q16 0 25 -12q12 -18 33 -15q42 12 67 12q30 0 40 -30q6 -34 -22 -40q-85 -18 -94 -79v-9q6 -88 -42 -88q-22 -1 -33 15.5t-13 51.5q-3 16 -3 27q-3 24 -36 40q-58 3 -61 3
q-28 0 -25 39q6 34 36 34q91 0 116 42q6 9 12 9zM352 538q16 -10 19 -37v-61q18 -42 58 31v15q0 45 33 42q15 -3 21 -39q3 -19 6 -27q16 -25 37 -27q33 -6 36 -37q-3 -30 -42 -36q-22 -6 -31 -12q-6 -6 -15 -22q-15 -28 -27 -24q-6 0 -18 12q-31 33 -77 33q-76 -3 -61 61
q28 84 61 128zM851 374q12 27 42 24q27 -9 25 -42q-3 -17 -30 -73q-40 -82 -33 -107q15 -46 85 -64h6q24 2 34 -6.5t5 -26.5q-15 -88 -140 -12q-3 3 -18 12q-34 21 -46 21q-15 0 -61 -21q-76 -46 -128 -43q-42 0 -42 46q9 46 49 30q48 0 109 52q18 21 15 48q-3 16 4 22
q3 3 15 0q33 -9 55 18q24 30 51 113q0 -2 1 1q1 2 2 8zM681 581q42 24 46 -25q-37 -116 -104 -149q-61 0 -55 64q13 12 22 15t21 13q3 0 16 18q29 39 54 64zM763 727q21 3 42 -19q25 -25 49 -27h36q34 0 55 -3q37 -6 33 -43q-6 -30 -48 -33q-158 6 -289 3q-49 0 -49 3
q-51 34 7 70h70q42 3 61 31q12 18 33 18zM659 398q34 3 49 -33q3 -12 6 -37q19 -70 6 -70q-36 -9 -85 79q-21 52 24 61zM882 578q58 -38 88 -110q9 -43 -13 -64q-27 -18 -51 6q-6 6 -19 33q-28 60 -54 88q-19 19 0 40q24 18 49 7zM1116 699q145 -3 164 -43q-6 -18 -67 -36
q-61 -15 -94 -6q-52 12 -49 39q3 43 46 46zM1502 371q79 -9 85 -34q-9 -18 -64 -24q-45 -3 -112 0q-80 6 -146 0q-88 -9 -88 -61q-3 -116 -3 -122q-10 -97 -52 -97q-52 -6 -49 45q0 16 12 43q22 73 22 137q0 27 -15 60q-16 28 -7 49q4 6 40 6q52 0 94 3q64 3 283 -5z
M1140 583q9 12 46 6q18 -3 30 -3h12q83 9 192 6q91 0 82 -30q-13 -15 -70 -24h-125q-61 -13 -61 -43q3 -15 36 -24q33 -13 36 -28q-3 -27 -70 -36h-3q-48 -3 -76 0q-28 6 -22 43q0 3 3 12q10 58 -6 76l-3 3q-22 19 -1 42zM1435 282h94q23 -3 52 -6q43 -3 46 -12q9 -13 3 -34
q-3 -15 -3 -27q0 -21 3 -45q0 -22 -3 -27q-16 -25 -82 -25h-107q-66 3 -109 0q-85 -6 -101 6q-6 6 -3 43q3 24 3 30q-3 39 -15 61q-3 6 -3 9q-3 21 33 25h67q40 -4 52 -19q3 -15 -33 -27q-22 -6 -27 -12q-22 -16 -13 -31q9 -18 37 -21h188q36 6 46 30q-13 30 -43 33h-76
q-58 4 -67 25q-1 9 14 15t47 9zM1411 733q60 -31 97 -27h19q100 -7 188 -4q46 -9 52 -39q0 -30 -22 -42q-54 -7 -109 0q-79 6 -186 6q-145 6 -152 30q0 18 37 33q17 9 42 33q13 13 34 10zM1584 586q85 3 97 -18q7 -13 0 -30q-6 -19 -6 -31q13 -75 -3 -97q-6 -9 -88 -6
q-97 3 -170 3q-74 3 -79 43q24 21 143 24q82 3 100 12q36 16 30 34q-6 12 -45 21q-46 9 -52 25q7 20 73 20zM1755 346q3 -9 -3 -24q-10 -31 -7 -68q4 -47 7 -88q3 -45 0 -73q-4 -70 -68 -70q-91 0 -103 43q6 48 58 42q45 -15 36 113q-6 69 -33 85q-9 6 -25 12q-24 6 -27 21
q9 25 73 31q60 1 92 -24z" />
    <glyph glyph-name="jiudou" unicode="&#xe642;" 
d="M600 685q15 65 111 77q23 2 49 1q14 0 27 -2q4 0 14 -2h3t4 -1q4 0 5 -2q27 -30 48 -68q70 -126 38 -298q-30 -160 -133 -286t-255 -186q-33 -13 -75 -24q-23 -6 -37 -9q-7 -2 -19 -3q-2 -1 -5 -1.5t-4 -0.5h-2.5h-2.5l-1 -0.5l-1 -0.5h-1l0.5 0.5l0.5 0.5q70 43 128 100
q58 56 103 125q1 1 3 4t2 5q1 0 3 4l0.5 0.5l0.5 0.5h-1h-1t-1 -1q-12 -2 -20 -3q-16 -3 -39 -5q-41 -3 -77 2q-110 13 -195.5 79t-125.5 166.5t-21 209.5t90.5 190.5t174.5 115t210 10.5q81 -18 148 -66q36 -26 63 -56l1 -1l1 -1q-1 1 -2 1l-2 2t-2 1q-2 1 -4.5 2.5
t-3.5 2.5q-6 3 -17 8q-20 10 -36 15q-76 26 -155 16t-145 -53q-70 -46 -110 -116q-44 -77 -45 -149q-1 -83 53 -146.5t137 -76.5q82 -12 152.5 33t94.5 126q23 80 -12.5 154t-113.5 106z" />
    <glyph glyph-name="biaoqian1" unicode="&#xe646;" horiz-adv-x="1109" 
d="M0 864v-960q0 -13 11.5 -22t27.5 -9h120v1023h-120q-16 0 -27.5 -9.5t-11.5 -22.5zM1070 896h-119v-576l-119 128h-79l-119 -128v576h-396v-1024h832q16 0 27.5 9.5t11.5 22.5v960q0 13 -11.5 22.5t-27.5 9.5z" />
    <glyph glyph-name="renqun" unicode="&#xe648;" 
d="M512 896q-104 0 -199 -40.5t-163.5 -109t-109 -163.5t-40.5 -199q0 -178 111 -318q93 -116 232 -165q82 -28 169 -28t169 28q141 50 234 167q109 139 109 316q0 104 -40.5 199t-109 163.5t-163.5 109t-199 40.5zM870 95l-186 73q-37 14 -51 28q-14 13 -1 57
q3 8 20.5 34.5t36 56t34.5 70.5t16 75q0 116 -66.5 197.5t-160 81.5t-159.5 -81.5t-66 -197.5q0 -33 14.5 -73.5t30 -68.5t34 -57t19.5 -30q8 -16 7.5 -35.5t-7.5 -26.5q-6 -7 -21 -14t-27 -11l-12 -4l-169 -75q-104 126 -104 290q0 94 36.5 179t98 146.5t147 98t179 36.5
t178.5 -36.5t146.5 -98t98 -146.5t36.5 -179q0 -162 -102 -289z" />
    <glyph glyph-name="yaodian1" unicode="&#xe649;" 
d="M63 806v-841q0 -12 9.5 -20t22.5 -8h97v897h-97q-13 0 -22.5 -8.5t-9.5 -19.5zM928 834h-96v-505l-96 112h-64l-96 -112v505h-320v-897h672q14 0 23 8t9 20v840q1 12 -8.5 20.5t-23.5 8.5z" />
    <glyph glyph-name="weixin2" unicode="&#xe64a;" 
d="M820.5 312q-18.5 0 -31.5 13.5t-13 32t13 31.5t31.5 13t31.5 -13t13 -31.5t-13 -32t-31.5 -13.5zM592 312q-18 0 -31 13.5t-13 32t13 31.5t31 13t31 -13t13 -31.5t-13 -32t-31 -13.5zM1024 248q0 109 -85 188t-208 87q-13 1 -23 1q-131 0 -223.5 -81t-92.5 -194
q0 -34 9 -67q26 -91 111.5 -150t195.5 -59q74 0 140 29l71 -48q1 -1 2.5 -2t4.5 -1.5t5.5 0t4 4.5t0.5 11l-20 76q51 38 79.5 92t28.5 114zM223.5 558q-18.5 0 -31.5 13t-13 31.5t13 32t31.5 13.5t31.5 -13.5t13 -32t-13 -31.5t-31.5 -13zM503.5 648q18.5 0 31.5 -13.5
t13 -32t-13 -31.5t-31.5 -13t-31.5 13t-13 31.5t13 32t31.5 13.5zM708 546h20q-20 116 -122.5 194t-239.5 78q-99 0 -183.5 -42.5t-133.5 -116t-49 -160.5q0 -72 35 -135.5t96 -108.5l-27 -102q0 -1 -0.5 -3t-0.5 -7.5t2.5 -8t8 -4t16.5 4.5l101 68q65 -22 135 -22h6h6
q-9 34 -9 68q0 80 45.5 149t123.5 108.5t170 39.5v0z" />
    <glyph glyph-name="mulu" unicode="&#xe64b;" 
d="M991 565l-477 329l-477 -329l477 -330zM514 162l-421 280l-56 -59l477 -330l477 330l-57 60zM514 -20l-421 280l-56 -58l477 -330l477 330l-57 60z" />
    <glyph glyph-name="tuijian1" unicode="&#xe64c;" horiz-adv-x="1025" 
d="M512.5 288q-92.5 0 -158.5 65.5t-66 158.5t66 158.5t158.5 65.5t158 -65.5t65.5 -158.5t-65.5 -158.5t-158 -65.5zM865 338q40 81 40 171q0 105 -52.5 194t-143 141t-197 52t-197.5 -52t-143.5 -141t-52.5 -194q0 -90 41 -171l-160 -272q101 -20 204 -42l136 -152
l147 251q20 -2 25 -2t25 2l147 -251q68 76 137 152l203 42zM512.5 672q-66.5 0 -113.5 -47t-47 -113t47 -113t113.5 -47t113 47t46.5 113t-46.5 113t-113 47z" />
    <glyph glyph-name="ti" unicode="&#xe64d;" horiz-adv-x="1027" 
d="M55 731q-23 -12 -39 -41.5t-16 -57.5v-562q0 -26 15.5 -34.5t39.5 4.5q234 124 409 -43q5 -5 16 -11v692q-11 6 -16 10q-175 167 -409 43zM972 731q-31 17 -62.5 28.5t-77.5 19t-89.5 3t-94.5 -27.5t-96 -66q-1 0 -2 -1t-2 -1v-692q1 1 2 1.5t2 1.5q45 42 96 65.5
t94.5 28t89.5 -3t77.5 -19.5t62.5 -28q24 -13 39.5 -4.5t15.5 35.5v561q0 28 -16 57.5t-39 41.5v0z" />
    <glyph glyph-name="viptaolunqun" unicode="&#xe64e;" 
d="M768 -64h-512l-178 499q-33 3 -55.5 31t-22.5 67q0 41 25 70.5t60.5 29.5t60.5 -29.5t25 -70.5q0 -31 -15 -57q23 -42 60.5 -67t82.5 -25q59 0 104.5 42t59.5 107h6v113q-42 30 -42 86q0 41 25 70.5t60 29.5t60 -29.5t25 -70.5q0 -57 -42 -86v-113h6q14 -65 59.5 -107
t104.5 -42q45 0 83 25t61 67q-16 26 -16 57q0 41 25 70.5t60.5 29.5t60.5 -29.5t25 -70.5q0 -38 -22.5 -66.5t-55.5 -31.5z" />
  </font>
</defs>
</svg>
