<?xml version="1.0" encoding="utf-8"?>
<!-- Generator: Adobe Illustrator 19.0.0, SVG Export Plug-In . SVG Version: 6.00 Build 0)  -->
<svg version="1.1" id="图层_1" xmlns="http://www.w3.org/2000/svg" xmlns:xlink="http://www.w3.org/1999/xlink" x="0px" y="0px"
	 viewBox="0 0 374.4 138.2" style="enable-background:new 0 0 374.4 138.2;" xml:space="preserve">
<style type="text/css">
	.st0{fill:#1A264B;}
	.st1{fill:#F5A73B;}
</style>
<path id="XMLID_24_" class="st0" d="M250,69.9c2.3-4,5.8-7.1,10-9c4.9-2.1,8.2-1.8,13.3-1.8c9.1,0,18.2,0,27.3,0c4.5,0,9.1,0,13.6,0
	c2.3,0,4.5,0,6.8,0c0.3,0,0.6,0,0.9,0c0.1,0,0.7,0.1,0.7-0.2c0.1-0.6,0.2-1.1,0.3-1.7c0.2-1.1,0.4-2.3,0.6-3.4
	c1.7-9.1,3.4-18.1,5.1-27.2c0.8-4.5,1.7-9,2.5-13.5c0.1-0.3,0.1-0.6,0.2-0.8c0-0.3,0.6-0.1,0.8-0.1c0.6,0,1.1,0,1.7,0
	c1.1,0,2.3,0,3.4,0c2.3,0,4.5,0,6.8,0c2.3,0,4.5,0,6.8,0c0.4,0,0.1,0.4,0.1,0.6c-0.1,0.3-0.1,0.6-0.2,0.8c-0.1,0.6-0.2,1.1-0.3,1.7
	c-0.2,1.1-0.4,2.3-0.6,3.4c-0.8,4.5-1.7,9-2.5,13.5c-0.8,4.5-1.7,9-2.5,13.5c-0.4,2.3-0.8,4.5-1.3,6.8c-0.2,1.1-0.4,2.3-0.6,3.4
	c-0.1,0.6-0.2,1.1-0.3,1.7c-0.1,0.3-0.1,0.6-0.2,0.8c0,0.1-0.1,0.3-0.1,0.4c0,0.1,0.2,0.1,0.3,0.1c4.5,0,9,0,13.5,0
	c2.3,0,4.5,0,6.8,0c1.1,0,2.3,0,3.4,0c0.6,0,1.1,0,1.7,0c0.1,0,0.3,0,0.4,0c0.1,0,0.3-0.1,0.2,0c0,0.1-0.1,0.1-0.1,0.2
	c-0.1,0.2-0.3,0.5-0.4,0.7c-1.2,2.2-2.2,4.4-4.1,6.2c-2.1,1.9-4.1,2.7-6.9,2.7c-5,0.1-10,0-15,0c-0.3,0-0.6,0-0.9,0
	c-0.2,0-0.3,0-0.5,0c-0.1,0-0.2,0-0.2,0c0,0.1,0,0.2,0,0.2c-0.1,0.6-0.2,1.3-0.4,1.9c-0.2,1.3-0.5,2.5-0.7,3.8
	c-0.5,2.5-0.9,5-1.4,7.5c0,0.1,0,0.2-0.1,0.2c0,0.1-0.1,0-0.2,0.1c-0.2,0-0.3,0-0.5,0c-0.3,0-0.6,0-0.9,0c-0.6,0-1.3,0-1.9,0
	c-1.3,0-2.5,0-3.8,0c-2.5,0-5,0-7.5,0c-1.3,0-2.5,0-3.8,0c-0.3,0-0.6,0-0.9,0c-0.2,0-0.1-0.2-0.1-0.4c0-0.2,0.1-0.3,0.1-0.5
	c0.1-0.6,0.2-1.3,0.3-1.9c0.5-2.5,0.9-5,1.4-7.5c0.1-0.6,0.2-1.3,0.4-1.9c0.1-0.3,0.1-0.6,0.2-0.9c0-0.2,0.3-0.6-0.1-0.6
	c-0.9,0-1.8,0-2.7,0c-1.8,0-3.6,0-5.5,0c-7.3,0-14.6,0-21.9,0c-3.3,0-6.6,0-9.9,0c-1.6,0-3.3,0-4.9,0c-2,0-3.8-0.1-5.8,0.5
	c-2.3,0.8-4,2-5.4,4c-1.3,1.8-3.8,6.6-4.9,8.5c-0.3,0.3-0.6,0.2-0.9,0.2c-0.3,0-0.6,0-0.9,0c-0.6,0-1.2,0-1.9,0c-1.2,0-2.5,0-3.7,0
	c-2.5,0-5,0-7.5,0c-10,0-19.9,0-29.9,0c-0.3,0-0.6,0-0.9,0c-0.1,0-0.3,0.1-0.3-0.1c0-0.1,0.1-0.3,0.1-0.4c0.1-0.6,0.2-1.1,0.3-1.7
	c0.2-1.1,0.4-2.2,0.6-3.3c0.4-2.2,0.8-4.4,1.2-6.7c0.8-4.4,1.7-8.9,2.5-13.3c1.6-8.4,3.1-16.8,4.7-25.2c0-0.3,0.1-0.5,0.1-0.8
	c0-0.1,0-0.3,0.1-0.4c0-0.1,0.1-0.2,0-0.2c-0.1,0-0.1,0-0.2,0c-0.5,0-1.1,0-1.6,0c-1.1,0-2.2,0-3.3,0c-2.2,0-4.4,0-6.6,0
	c-4.4,0-8.8,0-13.1,0c-2.2,0-4.4,0-6.6,0c-0.1,0-0.7-0.1-0.8,0.1c-0.2,0.3-0.3,0.5-0.5,0.8c-0.3,0.5-0.6,1.1-0.9,1.6
	c-0.6,1.1-1.2,2.1-1.8,3.2c-2.4,4.3-4.9,8.5-7.3,12.8c-1.3,2.2-12.9,23-14.5,25.1c-2.6,3.5-6.2,6.1-10.3,7.4
	c-2.2,0.6-2.8,0.8-6.2,1.1c-2.6,0-4.9,0-7.7,0c-2.6,0-5.3,0-7.9,0c-1.3,0-2.6,0-3.9,0c-0.1,0-0.4,0.1-0.3-0.1c0-0.1,0.1-0.3,0.1-0.4
	c0.1-0.3,0.2-0.5,0.3-0.8c0.2-0.5,0.4-1.1,0.6-1.6c0.7-2.1,1.5-4.2,2.2-6.3c0.1-0.3,0.2-0.5,0.3-0.8c0.1-0.3,0.3-0.4,0.8-0.4
	c0.8,0,1.6,0,2.4,0c1.6,0,3.2,0,4.8,0c1.4,0,4.4-0.6,6.4-1.9c1.9-1.3,3-3,4.1-4.9c2.1-3.7,4.2-7.4,6.3-11.1
	c4.2-7.4,8.4-14.8,12.6-22.2c0.3-0.5,0.6-1,0.8-1.5c0.1-0.1,0.2-0.3,0-0.3c-0.1,0-0.3,0-0.4,0c-0.3,0-0.6,0-0.9,0
	c-1.1,0-2.3,0-3.4,0c-2.3,0-4.5,0-6.8,0c-2.2,0-4.5,0-6.7,0c-1.1,0-2.2,0-3.3,0c-0.6,0-1.1,0-1.7,0c-0.1,0-0.1,0-0.2,0
	c-0.1,0,0-0.1,0-0.2c0-0.1,0.1-0.3,0.1-0.4c0.1-0.3,0.2-0.5,0.3-0.8c0.7-2.1,1.5-4.2,2.2-6.2c0.2-0.5,0.4-1,0.5-1.6
	c0-0.1,0.2-0.6,0.4-0.6c0.3,0,0.5,0,0.8,0c1.1,0,2.1,0,3.2,0c4.3,0,8.6,0,12.8,0c2.2,0,4.3,0,6.5,0c0.5,0,1.1,0,1.6,0
	c0.3,0,0.6,0.1,0.7-0.2c0.2-0.3,0.3-0.6,0.5-0.9c0.6-1.1,1.3-2.3,1.9-3.4c0.6-1.1,1.3-2.3,1.9-3.4c0.2-0.3,0.3-0.6,0.5-0.9
	c0.1-0.1,0-0.4,0.3-0.4c0.1,0,0.3,0,0.4,0c0.5,0,1.1,0,1.6,0c2.2,0,4.4,0,6.6,0c2.2,0,4.5,0,6.7,0c1.1,0,2.3,0,3.4,0
	c0.1,0,0.3,0,0.4,0c0.1,0,0.4-0.1,0.3,0.1c-0.2,0.3-0.3,0.6-0.5,0.9c-0.3,0.6-0.6,1.1-1,1.7c-0.6,1.1-1.3,2.3-1.9,3.4
	c-0.3,0.6-0.6,1.1-1,1.7c-0.2,0.3-0.3,0.6-0.5,0.9c-0.1,0.1-0.2,0.3-0.2,0.4c-0.1,0.2,0.2,0.1,0.3,0.1c2.3,0,4.6,0,6.9,0
	c10.7,0,21.4,0,32,0c2.7,0,5.3,0,8,0c0.2,0,0.3,0,0.5,0c0.1,0,0.3-0.2,0.2,0c0,0.1,0,0.2,0,0.2c-0.1,0.3-0.1,0.7-0.2,1
	c-0.1,0.7-0.2,1.3-0.4,2c-0.2,1.3-0.5,2.6-0.7,3.9c-1,5.2-2,10.5-2.9,15.7c-1,5.2-2,10.5-2.9,15.7c-0.5,2.6-1,5.2-1.5,7.9
	c-0.2,1.3-0.5,2.6-0.7,3.9c-0.1,0.3-0.1,0.7-0.2,1c0,0.1,0,0.2,0.1,0.2c0.2,0,0.3,0,0.5,0c0.3,0,0.6,0,1,0c1.3,0,2.6,0,3.8,0
	c2.6,0,5.1,0,7.7,0c0.2,0,0.3,0,0.5,0c0.1,0,0.1,0,0.2,0c0,0,0,0,0,0c0,0,0-0.1,0-0.1c0-0.1,0.1-0.1,0.1-0.2
	c0.1-0.2,0.2-0.4,0.3-0.6C249.5,70.7,249.7,70.3,250,69.9z"/>
<path id="XMLID_23_" class="st0" d="M272.5,30.2c10.3,0,20.6,0,30.9,0c3.8,0,7.3-2.1,9.2-5.4c0.8-1.5,1.7-2.9,2.5-4.4
	c-10.3,0-20.6,0-30.9,0c-3.8,0-7.4,2.1-9.2,5.4C274.1,27.3,273.3,28.7,272.5,30.2z"/>
<path id="XMLID_22_" class="st0" d="M65.9,28.2c1.6-7.2,9-9.7,15.1-10.4c2.3-0.3,4.5-0.3,6.8-0.2c1.2,0,2.4,0.1,3.6,0.3
	c0.6,0.1,1.2,0.1,1.8,0.2c0.3,0,0.6,0.1,0.9,0.1c0.3,0,0.5,0,0.8,0.3c2.5,2.9,4.7,6,6.6,9.4c7.3,13.2,7.8,26.4,5.2,40.7
	c-5.4,29.1-25.4,53.4-52.9,64.4c-3.3,1.3-6.7,2.4-10.2,3.3c-1.7,0.4-3.4,0.8-5.1,1.2c-0.8,0.2-1.7,0.3-2.5,0.5
	c-0.4,0.1-0.8,0.1-1.3,0.2c-0.2,0-0.4,0.1-0.6,0.1c-0.1,0-0.2,0-0.3,0c0,0-0.1,0-0.1,0c0,0,0.1-0.1,0.1-0.1
	c6.3-3.9,12.1-8.4,17.4-13.6c5.3-5.2,10-10.9,14.1-17.1c0.3-0.4,0.5-0.8,0.7-1.2c0.1-0.2,0.2-0.4,0.4-0.6c0,0,0.1-0.1,0.1-0.1
	c0-0.1-0.1,0-0.1,0c-0.1,0-0.2,0.1-0.3,0.1c-0.9,0.2-1.8,0.4-2.7,0.5c-1.8,0.3-3.5,0.5-5.3,0.6c-3.5,0.3-7,0.2-10.5-0.3
	c-30.4-3.7-52-31.7-46.7-62.1C6.1,14,35.8-5.2,65.6,1.3c7.5,1.6,14,4.5,20.2,9c3.1,2.3,6,4.8,8.6,7.7c0.1,0.1,0.4,0.4,0.2,0.2
	c-0.1-0.1-0.2-0.1-0.3-0.2c-0.2-0.1-0.4-0.2-0.6-0.3c-0.4-0.2-0.7-0.4-1.1-0.6c-0.8-0.4-1.5-0.8-2.3-1.2c-1.6-0.8-3.2-1.4-4.9-2
	C71.8,9.2,56.6,11,44.5,19c-6.4,4.2-11.2,9.2-15,15.8c-3.3,5.7-6,13.6-6.1,20.3c-0.2,15.2,10.8,28.2,25.8,30.4
	c15.1,2.3,29.5-7,33.7-21.6C87.2,49.2,80,34,65.9,28.2z"/>
<path id="XMLID_21_" class="st0" d="M164.4,117.7c0,0.3,0,0.7,0,1c0,1.3,0.1,2.4,0.3,3.3c0.2,1,0.5,1.9,0.9,2.6
	c0.4,0.8,0.9,1.5,1.5,2.2c1.1,1.2,2.3,2.1,3.7,2.7c1.4,0.6,2.9,0.9,4.5,0.9c1.5,0,2.9-0.3,4.3-0.8c1.3-0.6,2.5-1.4,3.5-2.4
	c1.1-1.1,1.8-2.3,2.3-3.7c0.5-1.3,0.7-3,0.7-4.9c0-0.3,0-0.7,0-1c0-5.2,0-10.4,0-15.6c-2.5,0-5,0-7.4,0c0,5.5,0,11.1,0,16.6
	c0,0.2,0,0.5,0,0.7c0,1.1-0.3,2-0.9,2.7c-0.6,0.7-1.4,1-2.4,1c-0.6,0-1.2-0.2-1.7-0.5c-0.5-0.3-0.9-0.7-1.2-1.3
	c-0.3-0.6-0.4-1.4-0.4-2.7c0-5.5,0-11.1,0-16.6c-2.5,0-5,0-7.4,0C164.4,107.3,164.4,112.5,164.4,117.7z"/>
<path id="XMLID_20_" class="st1" d="M274.1,126.2c0,1.2,0.4,2.2,1.3,3c0.8,0.9,1.8,1.3,3,1.3c1.2,0,2.2-0.4,3-1.3
	c0.8-0.8,1.2-1.8,1.2-3c0-0.8-0.2-1.5-0.6-2.2c-0.4-0.7-0.9-1.2-1.5-1.5c-0.6-0.4-1.4-0.6-2.2-0.6c-0.8,0-1.5,0.2-2.1,0.6
	c-0.7,0.4-1.2,0.9-1.5,1.5C274.3,124.7,274.1,125.4,274.1,126.2z"/>
<path id="XMLID_17_" class="st0" d="M216.4,116c0-2.6,0.6-5,1.9-7.2c1.3-2.2,3-4,5.3-5.3c2.2-1.3,4.6-1.9,7.2-1.9
	c2.6,0,5,0.6,7.2,1.9c2.2,1.3,4,3.1,5.3,5.3c1.3,2.2,1.9,4.6,1.9,7.2c0,2.6-0.6,5-1.9,7.2c-1.3,2.2-3,4-5.3,5.3
	c-2.2,1.3-4.6,2-7.2,2c-2.6,0-5-0.6-7.2-1.9c-2.2-1.3-4-3-5.3-5.3C217,121,216.4,118.6,216.4,116z M223.8,116c0,1.3,0.3,2.5,1,3.5
	c0.6,1.1,1.5,1.9,2.6,2.6c1.1,0.6,2.3,1,3.5,1c1.3,0,2.5-0.3,3.5-1c1.1-0.6,2-1.5,2.6-2.6c0.6-1.1,0.9-2.3,0.9-3.5
	c0-1.3-0.3-2.5-0.9-3.5c-0.6-1.1-1.5-1.9-2.6-2.6c-1.1-0.6-2.3-0.9-3.5-0.9c-1.3,0-2.4,0.3-3.5,0.9c-1.1,0.6-1.9,1.5-2.6,2.6
	C224.1,113.6,223.8,114.7,223.8,116z"/>
<path id="XMLID_16_" class="st0" d="M248.5,117.7c0-5.2,0-10.4,0-15.6c2.5,0,5,0,7.4,0c0,5.5,0,11.1,0,16.6c0,1.2,0.1,2.1,0.4,2.7
	c0.3,0.5,0.7,1,1.2,1.3c0.5,0.3,1.1,0.5,1.7,0.5c1,0,1.8-0.3,2.4-1c0.6-0.7,0.9-1.6,0.9-2.7c0-0.2,0-0.5,0-0.7c0-5.5,0-11.1,0-16.6
	c2.5,0,5,0,7.4,0c0,5.2,0,10.4,0,15.6c0,0.3,0,0.7,0,1c0,1.9-0.2,3.5-0.7,4.9c-0.5,1.3-1.2,2.6-2.3,3.7c-1,1-2.2,1.8-3.5,2.4
	c-1.3,0.6-2.8,0.8-4.3,0.8c-1.6,0-3.1-0.3-4.5-0.9c-1.4-0.6-2.6-1.5-3.7-2.7c-0.6-0.7-1.1-1.4-1.5-2.2c-0.4-0.8-0.7-1.6-0.9-2.6
	c-0.2-0.9-0.3-2-0.3-3.3C248.5,118.4,248.5,118,248.5,117.7z"/>
<path id="XMLID_15_" class="st1" d="M120.6,130.5c-1.9,0-3.9,0-5.8,0c-0.1,0-0.1,0-0.2,0c-2.5,0-4.5-0.9-6-2.7
	c-0.4-0.4-0.7-0.9-1-1.4c-0.3-0.5-0.5-1.1-0.7-1.7c-0.2-0.6-0.3-1.3-0.4-2.1c-0.1-0.7-0.1-1.5-0.1-2.2c0-0.4,0-0.7,0-1
	c0-0.2,0-1.1,0-2.7c2.5,0,5,0,7.4,0c0,1.7,0,2.6,0,2.7c0,0.1,0,0.2,0,0.4c0,1.4,0.2,2.4,0.6,3.1c0.4,0.6,1,1,1.9,1c0,0,0,0,0,0
	c0.9,0,1.8,0,2.7,0c0,0,0,0,0,0c0.9,0,1.5-0.3,1.9-1c0.4-0.6,0.6-1.7,0.6-3.1c0-0.2,0-0.4,0-0.6c0-5.7,0-13.5,0-23.4
	c2.5,0,5,0,7.4,0c0,9.8,0,17.5,0,23.2c0,0.4,0,0.9,0,1.3c0,0.7,0,1.4-0.1,2.2c-0.1,0.7-0.2,1.4-0.4,2.1c-0.2,0.6-0.4,1.1-0.7,1.7
	c-0.3,0.6-0.6,1-1,1.4c-1.5,1.8-3.5,2.7-6,2.7C120.7,130.5,120.7,130.5,120.6,130.5z"/>
<path id="XMLID_14_" class="st1" d="M190.2,96.1c2.5,0,5,0,7.5,0c3,0,5.9-0.2,8.8,1.2c3.1,1.4,5.5,4.1,6.6,7.3
	c0.7,2.1,0.7,4.2,0.7,6.4c0,1.8,0,3.6,0,5.3c0,4.1-0.8,7.2-3.9,10.1c-2.4,2.3-5.5,3.5-8.8,3.5c-2.3,0-4.6,0-6.9,0
	c-0.9,0-1.8,0-2.7,0c-0.4,0-0.9,0-1.3,0c-0.2,0-0.1-0.2-0.1-0.3c0-0.1,0-0.3,0-0.4c0-1.1,0-2.1,0-3.2c0-1.1,0-2.1,0-3.2
	c0-0.1,0-0.1,0-0.2c0-0.2,0.2,0,0.3,0c0.2,0,0.4,0,0.7,0c0.4,0,0.9,0,1.3,0c0.9,0,1.8,0,2.7,0c2,0,3.9,0,5.9,0c1.3,0,2.3-0.3,3.3-1
	c2.4-1.8,2.2-3.9,2.2-6.4c0-0.9,0.1-7-0.2-7.9c-0.4-1.5-1.1-2.4-2.4-3.2c-1.5-0.9-2.9-0.8-4.4-0.8c-1.8,0-3.6,0-5.3,0
	c-0.9,0-1.8,0-2.7,0c-0.4,0-0.9,0-1.3,0c-0.2,0-0.1-0.2-0.1-0.3c0-0.1,0-0.3,0-0.4C190.2,100.3,190.2,98.2,190.2,96.1z"/>
<path id="XMLID_13_" class="st0" d="M261.8,49c2-3.5,3.2-7,7.4-8.9c1.6-0.7,3.1-0.9,4.8-0.9c2.3,0,4.6,0,6.9,0c3.9,0,7.9,0,11.8,0
	c2,0,3.9,0,5.9,0c1,0,2,0,3,0c0.5,0,1,0,1.5,0c0.2,0,0.5,0,0.7,0c0.1,0,0.2,0,0.4,0c0.1,0,0.1,0,0.2,0c0.1,0,0.2-0.1,0.2,0
	c-2,3.5-3.2,7-7.4,8.9c-1.6,0.7-3.1,0.9-4.8,0.9c-2.3,0-4.6,0-6.9,0C277.5,49,269.6,49,261.8,49z"/>
<path id="XMLID_12_" class="st1" d="M347.8,113.8c0-0.2,0-0.3,0-0.5c0-0.2,0-0.3,0-0.4c0-0.1,0-0.2,0-0.3c0-0.8,0.1-1.3,0.2-1.8
	c0.2-0.6,0.5-1.1,1-1.4c0.5-0.3,1-0.5,1.7-0.5c0.6,0,1,0.1,1.5,0.4c0.4,0.2,0.8,0.6,1,1.1c0.3,0.4,0.4,1.4,0.5,2.8
	c0,0.2,0,0.4,0,0.6c0,5.4,0,10.7,0,16.1c2.5,0,4.9,0,7.4,0c0-5.4,0-10.7,0-16.1c0-0.2,0-0.4,0-0.6c0-1.4,0.2-2.3,0.5-2.8
	c0.2-0.4,0.6-0.8,1-1.1c0.4-0.2,0.9-0.4,1.4-0.4c0.5,0,1,0.1,1.4,0.3c0.4,0.3,0.8,0.6,1,1c0.3,0.5,0.5,1.4,0.5,2.7
	c0,0.3,0,0.6,0,0.9c0,5.4,0,10.7,0,16.1c2.5,0,4.9,0,7.4,0c0-5.3,0-10.6,0-15.8c0-0.4,0-0.8,0-1.2c0-1-0.1-2-0.2-2.8
	c-0.2-0.9-0.4-1.7-0.8-2.4c-0.3-0.7-0.8-1.4-1.4-2.1c-0.7-0.8-1.5-1.5-2.4-2.1c-0.9-0.6-1.9-1.1-2.9-1.4c-1-0.3-2.1-0.4-3.2-0.4
	c-2.2,0-4.3,0.7-6.2,2c-1.9-1.3-4-2-6.2-2c-1.5,0-3,0.3-4.4,0.9c-1.4,0.6-2.6,1.5-3.6,2.5c-0.7,0.7-1.2,1.5-1.6,2.3
	c-0.4,0.8-0.7,1.7-0.9,2.6c-0.2,1-0.3,2-0.3,3.2c0,0.3,0,0.6,0,1c0,5.3,0,10.6,0,15.8c2.5,0,5,0,7.4,0
	C347.8,124.5,347.8,119.2,347.8,113.8z"/>
<path id="XMLID_11_" class="st1" d="M305.4,122.6c-4.7,0.3-7.6,0.2-8.7-0.5c-1.1-0.6-2-1.4-2.6-2.5c-0.6-1.1-1-2.3-1-3.6
	c0-1.3,0.3-2.5,1-3.6c0.6-1.1,1.5-1.9,2.6-2.5c2.4-1,5.4-1.2,8.8-0.7c0-2.5,0-5,0-7.5c-2.4-0.1-4.5,0-6.5,0.1c-2,0.1-4,0.7-6,1.7
	c-2.2,1.3-4,3-5.3,5.3c-1.3,2.2-2,4.6-2,7.3c0,2,0.4,3.9,1.2,5.7c0.7,1.8,1.8,3.4,3.3,4.8c0.9,0.8,1.8,1.6,3,2.2
	c0.6,0.3,1.1,0.6,1.6,0.8c0.5,0.2,1,0.4,1.8,0.5c1.2,0.3,2.5,0.4,3.8,0.4c1.1,0,2.8-0.1,5.1-0.3
	C305.4,127.6,305.4,125.1,305.4,122.6z"/>
<rect id="XMLID_10_" x="190.2" y="103.2" class="st1" width="7.4" height="14.9"/>
<path id="XMLID_9_" class="st0" d="M261.8,49c10.3,0,20.6,0,30.9,0c3.8,0,7.3-2.1,9.2-5.4c0.8-1.5,1.7-2.9,2.5-4.4
	c-10.3,0-20.6,0-30.9,0c-3.8,0-7.4,2.1-9.2,5.4C263.4,46.1,262.6,47.6,261.8,49z"/>
<path id="XMLID_8_" class="st0" d="M272.5,30.2c2-3.5,3.2-7,7.4-8.9c1.6-0.7,3.1-0.9,4.8-0.9c2.3,0,4.6,0,6.9,0c3.9,0,7.9,0,11.8,0
	c2,0,3.9,0,5.9,0c1,0,2,0,3,0c0.5,0,1,0,1.5,0c0.2,0,0.5,0,0.7,0c0.1,0,0.2,0,0.4,0c0.1,0,0.1,0,0.2,0c0.1,0,0.2-0.1,0.2,0
	c-2,3.4-3.2,7-7.4,8.9c-1.6,0.7-3.1,0.9-4.8,0.9c-2.3,0-4.6,0-6.9,0C288.2,30.2,280.3,30.2,272.5,30.2z"/>
<path id="XMLID_5_" class="st0" d="M132.4,116c0-2.6,0.6-5,1.9-7.2c1.3-2.2,3-4,5.3-5.3c2.2-1.3,4.6-1.9,7.2-1.9
	c2.6,0,5,0.6,7.2,1.9c2.2,1.3,4,3.1,5.3,5.3c1.3,2.2,1.9,4.6,1.9,7.2c0,2.6-0.6,5-1.9,7.2c-1.3,2.2-3,4-5.3,5.3
	c-2.2,1.3-4.6,2-7.2,2c-2.6,0-5-0.6-7.2-1.9c-2.2-1.3-4-3-5.3-5.3C133,121,132.4,118.6,132.4,116z M139.8,116c0,1.3,0.3,2.5,1,3.5
	c0.6,1.1,1.5,1.9,2.6,2.6c1.1,0.6,2.3,1,3.5,1c1.3,0,2.5-0.3,3.5-1c1.1-0.6,2-1.5,2.6-2.6c0.6-1.1,0.9-2.3,0.9-3.5
	c0-1.3-0.3-2.5-0.9-3.5c-0.6-1.1-1.5-1.9-2.6-2.6c-1.1-0.6-2.3-0.9-3.5-0.9c-1.3,0-2.4,0.3-3.5,0.9c-1.1,0.6-1.9,1.5-2.6,2.6
	C140.1,113.6,139.8,114.7,139.8,116z"/>
<path id="XMLID_2_" class="st1" d="M308.4,116c0-2.6,0.6-5,1.9-7.2c1.3-2.2,3-4,5.3-5.3c2.2-1.3,4.6-1.9,7.2-1.9
	c2.6,0,5,0.6,7.2,1.9c2.2,1.3,4,3.1,5.3,5.3c1.3,2.2,1.9,4.6,1.9,7.2c0,2.6-0.6,5-1.9,7.2c-1.3,2.2-3,4-5.3,5.3
	c-2.2,1.3-4.6,2-7.2,2c-2.6,0-5-0.6-7.2-1.9c-2.2-1.3-4-3-5.3-5.3C309,121,308.4,118.6,308.4,116z M315.8,116c0,1.3,0.3,2.5,1,3.5
	c0.6,1.1,1.5,1.9,2.6,2.6c1.1,0.6,2.3,1,3.5,1c1.3,0,2.5-0.3,3.5-1c1.1-0.6,2-1.5,2.6-2.6c0.6-1.1,0.9-2.3,0.9-3.5
	c0-1.3-0.3-2.5-0.9-3.5c-0.6-1.1-1.5-1.9-2.6-2.6c-1.1-0.6-2.3-0.9-3.5-0.9c-1.3,0-2.4,0.3-3.5,0.9c-1.1,0.6-1.9,1.5-2.6,2.6
	C316.1,113.6,315.8,114.7,315.8,116z"/>
</svg>
