<?xml version="1.0" encoding="utf-8"?>
<!-- Generator: Adobe Illustrator 19.0.0, SVG Export Plug-In . SVG Version: 6.00 Build 0)  -->
<svg version="1.1" id="图层_1" xmlns="http://www.w3.org/2000/svg" xmlns:xlink="http://www.w3.org/1999/xlink" x="0px" y="0px"
	 viewBox="0 0 256 256" style="enable-background:new 0 0 256 256;" xml:space="preserve">
<style type="text/css">
	.st0{fill:#FFFFFF;stroke:#757776;stroke-width:2;stroke-miterlimit:10;}
	.st1{fill:#757776;stroke:#757776;stroke-miterlimit:10;}
</style>
<g id="XMLID_1_">
	<g id="XMLID_2_">
		<path id="XMLID_9_" class="st0" d="M170.3,174.4c-45.8,45.8-103.4,62.3-128.8,36.9s-8.9-83.1,36.9-128.8
			c37.9-37.9,84.1-56.8,113.2-47.3c6,2,11.3,6.1,15.6,10.4c7.8,7.8-7.9,31.6-7.1,44.2c0.8,13.5,17.5,15.9,10.1,31.9
			C201.8,139.5,187,157.7,170.3,174.4z"/>
		<g id="XMLID_3_">
			<path id="XMLID_40_" class="st1" d="M119.5,86.3c6.4,0,5.3,0,11.6,0c0,9.9,0,19.6,0,29.8c12.1,0,27.9,0,39.7,0
				c0.6,6.4-2.8,10.3-8.7,10.4c-7.8,0.1-15.7,0-23.5,0c-1,0-6,0-7.4,0c0,1.4,0,2.6,0,3.8c0,8.6,0,17.2,0,25.8c0,1.2,0,2.5-0.1,3.7
				c-0.5,11.3,0.3,16.7-11.4,15.6c0-16.2,0-32.3,0-48.8c-11.5,0-25.7,0-37.1,0c0-3.5,0-6.8,0-10.3c11.2,0,25.4,0,36.9,0
				C119.5,106.2,119.5,96.4,119.5,86.3z"/>
			<path id="XMLID_38_" class="st1" d="M142,136c5.7,0,4.8,0,10.2,0c3.9,14.6,6.7,23.9,10.8,38.6c-8.8,1.7-11.9-2.7-14.2-10.9
				C146.3,153,143.8,144.7,142,136z"/>
			<path id="XMLID_36_" class="st1" d="M108.6,110.6c-3.9,0-4.2,0.1-7.5,0c-3.3-0.1-5-1.6-6.2-4.6c-3.8-7-6.4-11.6-10-19
				c4.5,0.6,6.5,0.8,10.2,1.7c1.7,0.4,3.7,2,4.4,3.6C102.4,98.1,105.8,104.2,108.6,110.6z"/>
		</g>
		<path id="XMLID_4_" class="st1" d="M109.5,136c-5.7,0-4.8,0-10.2,0c-3.9,14.6-6.7,23.9-10.8,38.6c8.8,1.7,11.9-2.7,14.2-10.9
			C105.1,153,107.7,144.7,109.5,136z"/>
	</g>
	<path id="XMLID_5_" class="st1" d="M140.9,110.6c3.9,0,4.2,0.1,7.5,0c3.3-0.1,5-1.6,6.2-4.6c3.8-7,6.4-11.6,10-19
		c-4.5,0.6-6.5,0.8-10.2,1.7c-1.7,0.4-3.7,2-4.4,3.6C147.1,98.1,143.7,104.2,140.9,110.6z"/>
</g>
</svg>
