<?xml version="1.0" encoding="utf-8"?>
<!-- Generator: Adobe Illustrator 19.0.0, SVG Export Plug-In . SVG Version: 6.00 Build 0)  -->
<svg version="1.1" id="图层_1" xmlns="http://www.w3.org/2000/svg" xmlns:xlink="http://www.w3.org/1999/xlink" x="0px" y="0px"
	 viewBox="-23 12 32 32" style="enable-background:new -23 12 32 32;" xml:space="preserve">
<style type="text/css">
	.st0{fill:#272636;}
</style>
<text transform="matrix(1 0 0 1 -28.7918 0.5835)" style="font-family:'MicrosoftYaHei'; font-size:6px;">配募金额</text>
<g>
	<rect x="2.3" y="16.8" class="st0" width="1.2" height="0.9"/>
	<path class="st0" d="M-1.7,13.2c-0.4,0.5-1,1-1.7,1.5H0C-0.6,14.3-1.1,13.8-1.7,13.2z"/>
	<path class="st0" d="M-13.6,14.3c0.1,1,0.3,1.8,0.8,2.4c0.4-0.6,0.7-1.4,0.7-2.4H-13.6z"/>
	<path class="st0" d="M8.5,12.1h-29.9h-1.2l10.9,14.1L-11,27l9.7,12.6l0.6,0.8L2,43.8l0.6-0.5l-2.4-3.1C1,40,1.8,39.8,2.5,39.4
		c2.3-1.1,4-2.9,4.9-5l0.1-0.3l0.2-0.4c1.1-3,0.8-6.4-1.1-9.3c-3.1-4.7-9.3-6.1-14.1-3.2l-0.7,0.5c-1.4,1-2.5,2.3-3.2,3.8l-4.9-6.5
		H8.5V12.1z M6.2,25.1c1,1.7,1.8,3.3,1.3,7l-8.7-1.9L4,22.8C4.9,23.5,5.6,24.2,6.2,25.1z M3.3,22.2l-5.1,7.4l-5-7.6
		C-3.6,20.2,0.3,20.3,3.3,22.2z M-7.5,22.5l5.4,8.2l6,1.5L7.2,33c-0.7,2.3-2.4,4.1-3.9,5.3c-0.9,0.7-1.8,1-3.7,1.4l-10.4-13.3
		C-10,24.9-8.9,23.6-7.5,22.5z M4.4,13h2.8v0.4H5.9l-0.2,0.7H7v2.9H6.6v-2.5H4.9v2.5H4.5v-2.9h0.9l0.1-0.7H4.4V13z M1.6,13.4h1.2
		c-0.1-0.2-0.2-0.4-0.3-0.5l0.4-0.2c0.1,0.3,0.3,0.5,0.4,0.7h1v0.8H3.9v-0.5H2v0.5H1.6V13.4z M-14.6,18.4h-0.4v-1.8
		c-0.2,0.1-0.5,0.3-0.7,0.4c-0.1,0.1-0.2,0.2-0.3,0.3l-0.3-0.4c0.1-0.1,0.2-0.3,0.2-0.5v-2.9h0.4v3c0.2-0.1,0.5-0.3,0.7-0.4v-3.4
		h0.4V18.4z M-11,18.4c-0.7-0.3-1.3-0.6-1.7-1c-0.4,0.4-0.9,0.7-1.6,1.1c-0.1-0.1-0.2-0.3-0.3-0.4c0.7-0.3,1.2-0.7,1.5-1
		c-0.5-0.6-0.7-1.3-0.9-2.1c-0.1,0.2-0.2,0.4-0.3,0.6c-0.1-0.1-0.2-0.2-0.3-0.4c0.5-0.9,0.9-1.7,1.1-2.5l0.5,0.1
		c-0.1,0.4-0.3,0.7-0.4,1h2.6v0.4h-0.7c-0.1,1.1-0.3,2.1-0.9,2.8c0.4,0.4,1,0.7,1.7,0.9C-10.8,18.1-10.9,18.3-11,18.4z M-8.4,18.2
		c-0.3-0.4-0.6-0.7-0.9-1.1c-0.1,0.4-0.5,0.9-1,1.4c-0.1-0.1-0.2-0.2-0.3-0.4c0.5-0.3,0.8-0.7,0.9-1.1c0.1-0.3,0.2-0.9,0.2-1.7V14
		h0.4v1.2c0,0.8-0.1,1.3-0.2,1.8l0.2-0.2c0.4,0.4,0.7,0.8,1,1.1L-8.4,18.2z M-8,17.1l-0.2-0.4c0.1-0.1,0.2-0.2,0.3-0.4
		c0.2-0.5,0.4-1.1,0.6-1.9l0.4,0.1c-0.2,0.7-0.5,1.4-0.7,2c0.3,0,0.7,0,1.1-0.1c-0.1-0.3-0.2-0.7-0.3-1l0.4-0.1
		c0.2,0.6,0.4,1.2,0.5,1.8l-0.4,0.1c0-0.1-0.1-0.2-0.1-0.4c-0.4,0-0.8,0.1-1.1,0.1C-7.6,17-7.8,17-8,17.1z M-5.1,17.4
		c0,0.6-0.4,0.9-1,0.9c-0.3,0-0.7,0-1.1,0c0-0.2-0.1-0.3-0.1-0.5c0.4,0,0.7,0.1,1,0.1c0.4,0,0.6-0.2,0.7-0.6c0-0.7,0-1.8,0.1-3.3h-2
		c-0.1,0.3-0.3,0.7-0.5,0.9c-0.1-0.1-0.3-0.1-0.4-0.2v1.9h-0.4v-3.2h-1.1v3.2h-0.4V13h2v1.7c0.4-0.6,0.7-1.3,0.9-2l0.5,0.1
		c-0.1,0.3-0.2,0.5-0.3,0.8H-5C-5,15.5-5,16.8-5.1,17.4z M0.7,15.9v0.4h-2.1v1.4h2.5v0.4h-5.4v-0.4h2.5v-1.4H-4v-0.4h2.1v-0.8h-1.5
		v-0.4c-0.3,0.2-0.6,0.4-0.9,0.5c-0.1-0.1-0.2-0.3-0.3-0.4c1.3-0.6,2.2-1.3,2.8-2.1h0.6l-0.1,0.2c0.6,0.8,1.5,1.4,2.6,1.9
		C1.2,14.9,1.1,15,1,15.2c-0.3-0.1-0.6-0.3-0.9-0.5v0.4h-1.5v0.8H0.7z M0.4,16.7c-0.3,0.3-0.6,0.7-0.9,1l-0.4-0.3
		c0.3-0.3,0.6-0.6,0.8-1L0.4,16.7z M-3.7,16.7l0.3-0.3c0.3,0.3,0.6,0.6,0.8,0.9l-0.4,0.3C-3.2,17.4-3.4,17-3.7,16.7z M3.9,18.3H3.5
		v-0.3H2.3v0.3H1.9v-1.9c-0.1,0-0.2,0.1-0.4,0.1c-0.1-0.1-0.1-0.2-0.2-0.4c0.5-0.2,0.9-0.4,1.3-0.6c-0.2-0.1-0.4-0.2-0.5-0.3L2.4,15
		c0.2,0.1,0.4,0.2,0.7,0.3c0.2-0.2,0.4-0.4,0.5-0.7H2.4C2.2,15,2,15.3,1.7,15.6c-0.1-0.1-0.2-0.2-0.3-0.3c0.4-0.4,0.7-0.9,0.9-1.4
		L2.8,14c-0.1,0.1-0.1,0.2-0.2,0.3H4v0.3c-0.2,0.3-0.4,0.6-0.6,0.9C3.7,15.7,4,15.9,4.3,16l-0.2,0.4c-0.3-0.2-0.7-0.4-1-0.6
		c-0.3,0.2-0.6,0.4-1,0.6h1.9V18.3z M7,18.5c-0.4-0.3-0.8-0.7-1.3-1.1c-0.2,0.4-0.7,0.8-1.4,1.1c-0.1-0.1-0.2-0.2-0.3-0.4
		c0.7-0.3,1.2-0.7,1.3-1.2c0.1-0.3,0.2-1,0.2-2.1H6c0,1,0,1.7-0.1,2.1c0.6,0.4,1.1,0.8,1.5,1.1L7,18.5z"/>
</g>
</svg>
