<?xml version="1.0" standalone="no"?><!DOCTYPE svg PUBLIC "-//W3C//DTD SVG 1.1//EN" "http://www.w3.org/Graphics/SVG/1.1/DTD/svg11.dtd"><svg width="200" height="200" viewBox="0 0 200 200" version="1.1" xmlns="http://www.w3.org/2000/svg" xmlns:xlink="http://www.w3.org/1999/xlink"><defs><style type="text/css"><![CDATA[
@font-face { font-family: ifont; src: url("//at.alicdn.com/t/font_1442373896_4754455.eot?#iefix") format("embedded-opentype"), url("//at.alicdn.com/t/font_1442373896_4754455.woff") format("woff"), url("//at.alicdn.com/t/font_1442373896_4754455.ttf") format("truetype"), url("//at.alicdn.com/t/font_1442373896_4754455.svg#ifont") format("svg"); }

]]></style></defs><g class="transform-group"><g transform="scale(0.1953125, 0.1953125)"><path d="M222.656 512l180.032 0 0 60.032L222.656 572.032 222.656 512zM222.656 632l180.032 0 0 60.032L222.656 692.032 222.656 632zM222.656 752l180.032 0 0 60.032L222.656 812.032 222.656 752zM889.664 218.944l-134.016-133.952c-29.12-29.184-86.72-53.056-128-53.056L177.664 31.936c-41.28 0-75.008 33.728-75.008 75.008l0 809.984c0 41.28 33.728 75.008 75.008 75.008l689.984 0c41.28 0 75.008-33.728 75.008-75.008L942.656 347.008C942.656 305.728 918.784 248.128 889.664 218.944zM847.232 261.376c2.944 2.88 5.824 6.528 8.704 10.624l-153.28 0L702.656 118.72c4.096 2.88 7.68 5.76 10.624 8.704L847.232 261.376zM882.688 916.992c0 8.128-6.848 14.976-14.976 14.976L177.664 931.968c-8.128 0-14.976-6.848-14.976-14.976L162.688 107.008c0-8.128 6.848-14.976 14.976-14.976l449.984 0c4.544 0 9.6 0.576 14.976 1.6l0 238.4 238.464 0c1.024 5.376 1.536 10.496 1.536 14.976L882.624 916.992zM582.656 692.032l177.024 0c-13.952 68.416-74.432 120-147.008 120-82.88 0-150.016-67.136-150.016-150.016 0-72.576 51.584-133.056 120-147.008L582.656 692.032zM672.704 452.032c82.88 0 150.016 67.2 150.016 150.016 0 10.24-1.088 20.224-3.008 30.016l-177.024 0L642.688 454.976C652.416 453.056 662.464 452.032 672.704 452.032z" fill="#272636"></path></g></g></svg>