<?xml version="1.0" standalone="no"?><!DOCTYPE svg PUBLIC "-//W3C//DTD SVG 1.1//EN" "http://www.w3.org/Graphics/SVG/1.1/DTD/svg11.dtd"><svg xmlns:xlink="http://www.w3.org/1999/xlink" xmlns="http://www.w3.org/2000/svg" version="1.1" width="32" height="32" viewBox="0 0 32 32"><defs><style type="text/css"><![CDATA[
@font-face {
  font-family: "ifont";
  src: url("//at.alicdn.com/t/font_1442373896_4754455.eot?#iefix") format("embedded-opentype"), url("//at.alicdn.com/t/font_1442373896_4754455.woff") format("woff"), url("//at.alicdn.com/t/font_1442373896_4754455.ttf") format("truetype"), url("//at.alicdn.com/t/font_1442373896_4754455.svg#ifont") format("svg");
}

]]></style></defs><g class="transform-group"><g transform="scale(0.03125, 0.03125)"><path d="M438.4 89.6l108.8 0 0 12.8-108.8 0 0-12.8ZM284.8 115.2l6.4 0 0-35.2-16 0 0 25.6C278.4 112 281.6 115.2 284.8 115.2zM438.4 67.2l108.8 0 0 12.8-108.8 0 0-12.8ZM684.8 35.2c-12.8 16-32 32-54.4 48l108.8 0C720 70.4 700.8 54.4 684.8 35.2zM230.4 128l0 16 64 0 0-19.2-12.8 0c-9.6 0-12.8-6.4-12.8-16l0-28.8L256 80l0 6.4c0 19.2-6.4 35.2-16 51.2C236.8 134.4 233.6 131.2 230.4 128zM256 44.8l12.8 0 0 25.6-12.8 0 0-25.6ZM230.4 153.6l64 0 0 22.4-64 0 0-22.4ZM1008 3.2l-956.8 0-38.4 0 348.8 451.2 19.2 25.6 310.4 403.2 19.2 25.6L800 1020.8l19.2-16-76.8-99.2c25.6-6.4 51.2-12.8 76.8-25.6 73.6-35.2 121.6-86.4 153.6-153.6l3.2-6.4 6.4-22.4c35.2-96 25.6-204.8-35.2-297.6-99.2-150.4-291.2-188.8-451.2-102.4l-22.4 16c-44.8 32-80 73.6-102.4 121.6l-156.8-208L1008 227.2 1008 3.2zM934.4 419.2c38.4 67.2 51.2 108.8 41.6 224l-278.4-60.8L864 345.6C892.8 368 915.2 390.4 934.4 419.2zM841.6 326.4l-163.2 236.8-160-243.2C620.8 262.4 745.6 265.6 841.6 326.4zM496 336l172.8 262.4 192 48L966.4 672c-22.4 73.6-73.6 134.4-124.8 169.6-32 22.4-57.6 32-118.4 44.8l-332.8-425.6C416 412.8 444.8 364.8 496 336zM880 32l89.6 0 0 12.8L928 44.8l-6.4 22.4 38.4 0L960 160 950.4 160l0-80L896 80 896 160 883.2 160l0-92.8 28.8 0 3.2-22.4L880 44.8 880 32zM790.4 41.6l38.4 0c-3.2-6.4-6.4-12.8-9.6-16L832 19.2c3.2 9.6 9.6 16 12.8 22.4l32 0 0 25.6L864 67.2l0-16L800 51.2l0 16L790.4 67.2 790.4 41.6zM403.2 32l54.4 0 0-12.8 12.8 0L470.4 32l41.6 0 0-12.8 12.8 0L524.8 32l54.4 0 0 9.6-54.4 0 0 9.6-12.8 0 0-9.6-41.6 0 0 9.6-12.8 0 0-9.6-54.4 0L403.2 32zM310.4 44.8l-32 0 0 25.6 25.6 0 0 134.4-12.8 0 0-12.8-64 0 0 12.8-12.8 0 0-134.4 25.6 0 0-25.6-32 0L208 32l99.2 0L307.2 44.8zM390.4 179.2c-3.2 12.8-9.6 19.2-22.4 19.2l-25.6 0c-16 0-22.4-9.6-22.4-25.6l0-80 51.2 0 0-48-54.4 0 0-12.8 67.2 0 0 83.2-12.8 0 0-6.4-35.2 0 0 64c0 9.6 3.2 16 12.8 16l19.2 0c6.4 0 12.8-3.2 12.8-9.6 3.2-9.6 3.2-19.2 3.2-28.8 3.2 3.2 9.6 3.2 12.8 6.4C393.6 160 393.6 169.6 390.4 179.2zM544 179.2c0 16-9.6 22.4-25.6 22.4l-22.4 0c0-3.2 0-9.6-3.2-12.8 6.4 0 16 0 25.6 0 6.4 0 12.8-3.2 12.8-9.6 0-3.2 0-9.6 0-12.8L480 166.4c-6.4 22.4-22.4 35.2-51.2 41.6-3.2-3.2-3.2-6.4-9.6-12.8 25.6-3.2 41.6-12.8 44.8-28.8l-28.8 0 0-9.6 32 0c0-3.2 0-9.6 0-12.8l12.8 0c0 6.4 0 9.6 0 12.8L544 156.8C544 160 544 169.6 544 179.2zM579.2 169.6c-22.4-9.6-41.6-19.2-54.4-35.2l-64 0c-16 12.8-32 25.6-54.4 35.2-3.2-3.2-6.4-6.4-9.6-12.8 16-6.4 32-16 41.6-25.6l-35.2 0 0-9.6 48 0c3.2-3.2 9.6-9.6 12.8-12.8l-28.8 0 0 3.2-12.8 0 0-57.6 134.4 0 0 57.6-12.8 0 0-3.2-64 0c-3.2 3.2-6.4 9.6-9.6 12.8l108.8 0 0 9.6-41.6 0c12.8 9.6 28.8 16 48 22.4C585.6 160 582.4 163.2 579.2 169.6zM758.4 124.8l0 12.8-67.2 0 0 44.8 80 0 0 12.8-172.8 0 0-12.8 80 0 0-44.8-67.2 0 0-12.8 67.2 0L678.4 96l-48 0 0-12.8c-9.6 6.4-19.2 12.8-28.8 16-3.2-3.2-6.4-9.6-9.6-12.8 41.6-19.2 70.4-41.6 89.6-67.2l19.2 0-3.2 6.4c19.2 25.6 48 44.8 83.2 60.8-3.2 3.2-6.4 9.6-9.6 16-9.6-3.2-19.2-9.6-28.8-16L742.4 96l-48 0 0 25.6L758.4 121.6zM752 147.2c-9.6 9.6-19.2 22.4-28.8 32l-12.8-9.6c9.6-9.6 19.2-19.2 25.6-32L752 147.2zM620.8 147.2l9.6-9.6c9.6 9.6 19.2 19.2 25.6 28.8l-12.8 9.6C636.8 169.6 627.2 160 620.8 147.2zM864 198.4 851.2 198.4 851.2 192 812.8 192l0 9.6L800 201.6l0-60.8c-3.2 0-6.4 3.2-12.8 3.2-3.2-3.2-3.2-6.4-6.4-12.8C800 128 812.8 121.6 825.6 112c-6.4-3.2-12.8-6.4-16-9.6l6.4-9.6c6.4 3.2 12.8 6.4 22.4 9.6 6.4-6.4 12.8-12.8 16-22.4L816 80c-6.4 9.6-12.8 19.2-22.4 28.8-3.2-3.2-6.4-6.4-9.6-9.6 12.8-12.8 22.4-28.8 28.8-44.8l12.8 3.2c-3.2 3.2-3.2 6.4-6.4 9.6l44.8 0 0 9.6c-6.4 9.6-12.8 19.2-19.2 28.8 9.6 6.4 22.4 9.6 28.8 16l-6.4 12.8c-9.6-6.4-22.4-12.8-32-19.2-9.6 6.4-19.2 12.8-32 19.2L864 134.4 864 198.4zM963.2 204.8c-12.8-9.6-25.6-22.4-41.6-35.2-6.4 12.8-22.4 25.6-44.8 35.2-3.2-3.2-6.4-6.4-9.6-12.8 22.4-9.6 38.4-22.4 41.6-38.4 3.2-9.6 6.4-32 6.4-67.2L928 86.4c0 32 0 54.4-3.2 67.2C944 169.6 960 182.4 972.8 192L963.2 204.8zM243.2 80l-12.8 0L230.4 128c9.6-9.6 12.8-22.4 12.8-41.6L243.2 80zM812.8 150.4l38.4 0 0 28.8-38.4 0 0-28.8Z" fill="#272636"></path></g></g></svg>