<?xml version="1.0" standalone="no"?><!DOCTYPE svg PUBLIC "-//W3C//DTD SVG 1.1//EN" "http://www.w3.org/Graphics/SVG/1.1/DTD/svg11.dtd"><svg width="200" height="200" viewBox="0 0 200 200" version="1.1" xmlns="http://www.w3.org/2000/svg" xmlns:xlink="http://www.w3.org/1999/xlink"><defs><style type="text/css"><![CDATA[
@font-face { font-family: ifont; src: url(http://at.alicdn.com/t/font_1442373896_4754455.eot?#iefix) format(embedded-opentype), url(http://at.alicdn.com/t/font_1442373896_4754455.woff) format(woff), url(http://at.alicdn.com/t/font_1442373896_4754455.ttf) format(truetype), url(http://at.alicdn.com/t/font_1442373896_4754455.svg#ifont) format(svg); }

]]></style></defs><g class="transform-group"><g transform="scale(0.1953125, 0.1953125)"><path d="M423.9 354.8m-15.7 0a15.7 15.7 0 1 0 31.4 0 15.7 15.7 0 1 0-31.4 0ZM454.13484 294.34761l8.443 5.358-36.80946 58.00341-8.443-5.358 36.80946-58.00341ZM529.84401 283.67136l8.443 5.358-36.80946 58.00341-8.443-5.358 36.80946-58.00341ZM452.79755 298.93548l8.465-5.324 36.57588 58.15455-8.465 5.324-36.57588-58.15455ZM457.9 297.8m-15.7 0a15.7 15.7 0 1 0 31.4 0 15.7 15.7 0 1 0-31.4 0ZM490.9 352.8m-15.7 0a15.7 15.7 0 1 0 31.4 0 15.7 15.7 0 1 0-31.4 0ZM538.9 277.8m-15.7 0a15.7 15.7 0 1 0 31.4 0 15.7 15.7 0 1 0-31.4 0Z" fill="#272636"></path></g></g></svg>