<?xml version="1.0" standalone="no"?><!DOCTYPE svg PUBLIC "-//W3C//DTD SVG 1.1//EN" "http://www.w3.org/Graphics/SVG/1.1/DTD/svg11.dtd"><svg width="541.9921875" height="200" viewBox="0 0 541.9921875 200" version="1.1" xmlns="http://www.w3.org/2000/svg" xmlns:xlink="http://www.w3.org/1999/xlink"><defs><style type="text/css"><![CDATA[
@font-face { font-family: ifont; src: url("//at.alicdn.com/t/font_1442373896_4754455.eot?#iefix") format("embedded-opentype"), url("//at.alicdn.com/t/font_1442373896_4754455.woff") format("woff"), url("//at.alicdn.com/t/font_1442373896_4754455.ttf") format("truetype"), url("//at.alicdn.com/t/font_1442373896_4754455.svg#ifont") format("svg"); }

]]></style></defs><g class="transform-group"><g transform="scale(0.1953125, 0.1953125)"><path d="M2729.678726 437.904486c0 0.740955-0.740955 0.740955-0.740955 1.48191-0.740955 2.222865-2.222865 3.704776-2.963821 5.186686-8.891462 16.301013-16.301013 32.602026-30.379161 45.939219-15.560058 13.337192-30.379161 20.005789-51.125904 20.005789-37.047757 0.740955-74.095514 0-111.143271 0l-10.373372 0c-0.740955 0-1.48191 0-1.48191 0 0 0.740955 0 1.48191 0 1.48191-0.740955 4.445731-1.48191 9.632417-2.222865 14.078148-1.48191 9.632417-3.704776 18.523878-5.186686 28.156295-3.704776 18.523878-6.668596 37.047757-10.373372 55.571635 0 0.740955 0 1.48191 0 1.48191 0 0-0.740955 0-1.48191 0-1.48191 0-2.222865 0-3.704776 0l-139.299566 0c-1.48191 0-0.740955-1.48191 0-2.222865 0-1.48191 0.740955-2.222865 0.740955-3.704776 0.740955-4.445731 1.48191-9.632417 2.963821-14.078148 3.704776-18.523878 6.668596-37.047757 10.373372-55.571635 0.740955-4.445731 1.48191-9.632417 2.963821-14.078148 0.740955-2.222865 0.740955-4.445731 1.48191-6.668596 0-1.48191 2.222865-4.445731-0.740955-4.445731l-332.688857 0c-14.819103 0-28.156295-0.740955-42.975398 3.704776-17.041968 5.927641-29.638205 14.819103-40.011577 29.638205-9.632417 13.337192-28.156295 48.903039-36.306802 62.981187-2.222865 2.222865-4.445731 1.48191-6.668596 1.48191l-332.688857 0c-0.740955 0-2.222865 0.740955-2.222865-0.740955 0-0.740955 0.740955-2.222865 0.740955-2.963821 0.740955-3.704776 1.48191-8.150507 2.222865-12.596237 1.48191-8.150507 2.963821-16.301013 4.445731-24.45152 2.963821-16.301013 5.927641-32.602026 9.632417-49.643994 5.927641-32.602026 12.596237-65.945007 18.523878-98.547033 11.855282-62.240232 23.710564-124.480463 34.824891-186.720695 0-2.222865 0.740955-3.704776 0.740955-5.927641 0-0.740955 0.740955-2.222865 0.740955-2.963821 0-0.740955 0.740955-1.48191 0-1.48191l-232.659913 0c-0.740955 0-5.186686 0-5.927641 0.740955-1.48191 2.222865-2.222865 3.704776-3.704776 5.927641-2.222865 3.704776-4.445731 8.150507-6.668596 11.855282-4.445731 8.150507-8.891462 15.560058-13.337192 23.710564-17.782923 31.861071-36.306802 62.981187-54.089725 94.842258-9.632417 16.301013-95.583213 170.419682-106.69754 185.97974-19.264834 25.93343-45.939219 45.198263-76.318379 54.83068-16.301013 4.445731-20.746744 5.927641-45.939219 8.150507L963.241679 608.324168c-0.740955 0-2.963821 0.740955-2.222865-0.740955 0-0.740955 0.740955-2.222865 0.740955-2.963821 0.740955-2.222865 1.48191-3.704776 2.222865-5.927641 1.48191-3.704776 2.963821-8.150507 4.445731-11.855282 5.186686-15.560058 11.114327-31.120116 16.301013-46.680174 0.740955-2.222865 1.48191-3.704776 2.222865-5.927641 0.740955-2.222865 2.222865-2.222865 5.927641-2.222865l52.607815 0c10.373372 0 32.602026-4.445731 47.421129-14.078148 14.078148-9.632417 22.228654-22.228654 30.379161-36.306802 15.560058-27.41534 31.120116-54.83068 46.680174-82.24602 31.120116-54.83068 62.240232-109.66136 93.360347-164.492041 2.222865-3.704776 4.445731-7.409551 5.927641-11.114327 0-0.740955 1.48191-2.222865 0-2.222865l-173.383502 0c-0.740955 0 0-0.740955 0-1.48191 0-0.740955 0.740955-2.222865 0.740955-2.963821 0.740955-2.222865 1.48191-3.704776 2.222865-5.927641 5.186686-15.560058 11.114327-31.120116 16.301013-45.939219 1.48191-3.704776 2.963821-7.409551 3.704776-11.855282 0-0.740955 1.48191-4.445731 2.963821-4.445731l185.238784 0c2.222865 0 3.704776 1.48191 5.927641-1.48191 1.48191-2.222865 2.222865-4.445731 3.704776-6.668596 5.186686-8.150507 9.632417-17.041968 14.819103-25.192475 5.186686-8.891462 9.632417-17.041968 14.819103-25.192475 1.48191-2.222865 2.222865-4.445731 3.704776-6.668596 0.740955-0.740955 0-2.963821 2.222865-2.963821l142.263386 0c0.740955 0 2.963821-0.740955 2.222865 0.740955-1.48191 2.222865-2.222865 4.445731-3.704776 6.668596-2.222865 4.445731-5.186686 8.150507-7.409551 12.596237-5.186686 8.150507-9.632417 17.041968-14.078148 25.192475-2.222865 4.445731-5.186686 8.891462-7.409551 12.596237-1.48191 2.222865-2.222865 4.445731-3.704776 5.927641-0.740955 1.48191-1.48191 2.222865-2.222865 2.963821-0.740955 1.48191 1.48191 0.740955 2.222865 0.740955l351.212735 0c0.740955 0 2.222865-1.48191 1.48191 0 0 0.740955 0 1.48191 0 2.222865-0.740955 2.222865-0.740955 5.186686-1.48191 7.409551-0.740955 4.445731-1.48191 9.632417-2.963821 14.819103-1.48191 9.632417-3.704776 19.264834-5.186686 28.89725-7.409551 38.529667-14.819103 77.800289-21.487699 116.329957-7.409551 39.270622-14.819103 77.800289-21.487699 116.329957-3.704776 19.264834-7.409551 38.529667-11.114327 58.535456-1.48191 9.632417-3.704776 19.264834-5.186686 28.89725-0.740955 2.222865-0.740955 5.186686-1.48191 7.409551 0 0.740955 0 1.48191 0.740955 1.48191l99.287988 0c0.740955 0 0 0 1.48191 0 0 0 0 0 0 0 0 0 0 0 0-0.740955 0 0 0.740955-0.740955 0.740955-0.740955 0.740955-1.48191 1.48191-2.963821 2.222865-4.445731 1.48191-2.963821 3.704776-5.927641 5.186686-8.891462 17.041968-29.638205 42.975398-52.607815 73.354559-66.685962 36.306802-16.301013 60.758321-13.337192 98.547033-13.337192l360.104197 0c0.740955 0 5.186686 0.740955 5.186686-1.48191 0.740955-4.445731 1.48191-8.150507 2.222865-12.596237 1.48191-8.150507 2.963821-17.041968 4.445731-25.192475 12.596237-67.426918 25.192475-134.11288 37.788712-201.539797 6.668596-33.342981 12.596237-66.685962 18.523878-100.028944 0-2.222865 0.740955-4.445731 1.48191-5.927641 0-2.222865 4.445731-0.740955 5.927641-0.740955l137.817656 0c2.963821 0 0.740955 2.963821 0.740955 4.445731 0 2.222865-0.740955 4.445731-1.48191 6.668596-0.740955 4.445731-1.48191 8.150507-2.222865 12.596237-1.48191 8.150507-2.963821 17.041968-4.445731 25.192475-5.927641 33.342981-12.596237 66.685962-18.523878 100.028944-5.927641 33.342981-12.596237 66.685962-18.523878 100.028944-2.963821 17.041968-5.927641 33.342981-9.632417 50.384949-1.48191 8.150507-2.963821 17.041968-4.445731 25.192475-0.740955 4.445731-1.48191 8.150507-2.222865 12.596237-0.740955 2.222865-0.740955 4.445731-1.48191 5.927641 0 0.740955 0 2.222865-0.740955 2.963821 0 0.740955 1.48191 0.740955 2.222865 0.740955l191.166425 0C2728.937771 437.904486 2730.419682 437.163531 2729.678726 437.904486zM2104.31259 151.154848c-4.445731 0-8.891462 0.740955-13.337192 1.48191C2095.421129 151.895803 2099.86686 151.154848 2104.31259 151.154848zM2109.499276 151.154848c-1.48191 0-2.963821 0-4.445731 0 0.740955 0 0.740955 0 1.48191 0L2109.499276 151.154848zM2249.539797 223.768452c-0.740955 0-0.740955 0-1.48191 0L2245.094067 223.768452C2246.575977 223.768452 2248.057887 223.768452 2249.539797 223.768452zM2256.949349 223.027496c-0.740955 0-1.48191 0-2.222865 0-2.222865 0-3.704776 0-5.927641 0 1.48191 0 2.963821 0 4.445731 0C2254.726483 223.027496 2256.208394 223.027496 2256.949349 223.027496zM789.858177 507.554269c-40.011577 215.617945-188.202605 395.670043-391.965268 477.175109-25.192475 9.632417-50.384949 17.782923-75.577424 24.45152-12.596237 2.963821-25.192475 5.927641-37.788712 8.891462-5.927641 1.48191-12.596237 2.222865-18.523878 3.704776-2.963821 0.740955-5.927641 0.740955-9.632417 1.48191-1.48191 0-2.963821 0.740955-4.445731 0.740955-0.740955 0-1.48191 0-2.222865 0 0 0-0.740955 0 0 0 0 0 0.740955-0.740955 1.48191-0.740955 46.680174-28.89725 89.655572-62.240232 128.926194-100.769899 39.270622-38.529667 74.095514-80.023155 104.474674-126.703329 2.222865-2.963821 3.704776-5.927641 5.186686-8.891462 0.740955-1.48191 1.48191-2.963821 2.963821-4.445731 0 0 0.740955-0.740955 0.740955-0.740955 0-0.740955-0.740955 0-0.740955 0-0.740955 0-1.48191 0.740955-2.222865 0.740955-6.668596 1.48191-13.337192 2.963821-20.005789 3.704776-13.337192 2.222865-25.93343 3.704776-39.270622 4.445731-25.93343 2.222865-51.86686 1.48191-77.800289-2.222865-225.250362-27.41534-385.296671-234.882779-346.026049-460.13314C45.198263 103.733719 265.261939-38.529667 486.06657 9.632417c55.571635 11.855282 103.733719 33.342981 149.672938 66.685962 22.969609 17.041968 44.457308 35.565847 62.981187 57.053546 0.740955 0.740955 2.963821 2.963821 1.48191 2.222865-0.740955-0.740955-1.48191-0.740955-2.222865-1.48191-1.48191-0.740955-2.963821-1.48191-3.704776-2.222865-2.963821-1.48191-5.186686-2.963821-8.150507-4.445731-5.927641-2.963821-11.114327-5.927641-17.041968-8.891462-11.855282-5.927641-23.710564-10.373372-36.306802-14.819103C532.005789 68.167873 419.380608 82.24602 329.725036 140.781476c-47.421129 31.120116-82.986975 68.167873-111.143271 117.070912-24.45152 42.234443-44.457308 100.769899-45.198263 150.413893-1.48191 112.625181 80.023155 208.949349 191.166425 225.250362 111.884226 17.041968 218.581766-51.86686 249.701881-160.04631 31.120116-108.17945-22.228654-220.804631-126.703329-263.780029 11.855282-53.34877 66.685962-71.872648 111.884226-77.059334 17.041968-2.222865 33.342981-2.222865 50.384949-1.48191 8.891462 0 17.782923 0.740955 26.674385 2.222865 4.445731 0.740955 8.891462 0.740955 13.337192 1.48191 2.222865 0 4.445731 0.740955 6.668596 0.740955 2.222865 0 3.704776 0 5.927641 2.222865 18.523878 21.487699 34.824891 44.457308 48.903039 69.649783C805.418234 303.791606 809.863965 402.33864 789.858177 507.554269zM1218.130246 872.104197c0 2.222865 0 5.186686 0 7.409551 0 9.632417 0.740955 17.782923 2.222865 24.45152 1.48191 7.409551 3.704776 14.078148 6.668596 19.264834 2.963821 5.927641 6.668596 11.114327 11.114327 16.301013 8.150507 8.891462 17.041968 15.560058 27.41534 20.005789 10.373372 4.445731 21.487699 6.668596 33.342981 6.668596 11.114327 0 21.487699-2.222865 31.861071-5.927641 9.632417-4.445731 18.523878-10.373372 25.93343-17.782923 8.150507-8.150507 13.337192-17.041968 17.041968-27.41534 3.704776-9.632417 5.186686-22.228654 5.186686-36.306802 0-2.222865 0-5.186686 0-7.409551 0-38.529667 0-77.059334 0-115.589001-18.523878 0-37.047757 0-54.83068 0 0 40.752533 0 82.24602 0 122.998553 0 1.48191 0 3.704776 0 5.186686 0 8.150507-2.222865 14.819103-6.668596 20.005789-4.445731 5.186686-10.373372 7.409551-17.782923 7.409551-4.445731 0-8.891462-1.48191-12.596237-3.704776-3.704776-2.222865-6.668596-5.186686-8.891462-9.632417-2.222865-4.445731-2.963821-10.373372-2.963821-20.005789 0-40.752533 0-82.24602 0-122.998553-18.523878 0-37.047757 0-54.83068 0C1218.130246 795.044863 1218.130246 833.57453 1218.130246 872.104197zM2030.958032 935.085384c0 8.891462 2.963821 16.301013 9.632417 22.228654 5.927641 6.668596 13.337192 9.632417 22.228654 9.632417 8.891462 0 16.301013-2.963821 22.228654-9.632417 5.927641-5.927641 8.891462-13.337192 8.891462-22.228654 0-5.927641-1.48191-11.114327-4.445731-16.301013-2.963821-5.186686-6.668596-8.891462-11.114327-11.114327-4.445731-2.963821-10.373372-4.445731-16.301013-4.445731-5.927641 0-11.114327 1.48191-15.560058 4.445731-5.186686 2.963821-8.891462 6.668596-11.114327 11.114327C2032.439942 923.971056 2030.958032 929.157742 2030.958032 935.085384zM1603.426918 859.507959c0-19.264834 4.445731-37.047757 14.078148-53.34877 9.632417-16.301013 22.228654-29.638205 39.270622-39.270622 16.301013-9.632417 34.083936-14.078148 53.34877-14.078148 19.264834 0 37.047757 4.445731 53.34877 14.078148 16.301013 9.632417 29.638205 22.969609 39.270622 39.270622 9.632417 16.301013 14.078148 34.083936 14.078148 53.34877 0 19.264834-4.445731 37.047757-14.078148 53.34877-9.632417 16.301013-22.228654 29.638205-39.270622 39.270622-16.301013 9.632417-34.083936 14.819103-53.34877 14.819103-19.264834 0-37.047757-4.445731-53.34877-14.078148-16.301013-9.632417-29.638205-22.228654-39.270622-39.270622C1607.872648 896.555716 1603.426918 878.772793 1603.426918 859.507959zM1658.257598 859.507959c0 9.632417 2.222865 18.523878 7.409551 25.93343 4.445731 8.150507 11.114327 14.078148 19.264834 19.264834 8.150507 4.445731 17.041968 7.409551 25.93343 7.409551 9.632417 0 18.523878-2.222865 25.93343-7.409551 8.150507-4.445731 14.819103-11.114327 19.264834-19.264834 4.445731-8.150507 6.668596-17.041968 6.668596-25.93343 0-9.632417-2.222865-18.523878-6.668596-25.93343-4.445731-8.150507-11.114327-14.078148-19.264834-19.264834-8.150507-4.445731-17.041968-6.668596-25.93343-6.668596-9.632417 0-17.782923 2.222865-25.93343 6.668596-8.150507 4.445731-14.078148 11.114327-19.264834 19.264834C1660.480463 841.725036 1658.257598 849.875543 1658.257598 859.507959zM1841.273517 872.104197c0-38.529667 0-77.059334 0-115.589001 18.523878 0 37.047757 0 54.83068 0 0 40.752533 0 82.24602 0 122.998553 0 8.891462 0.740955 15.560058 2.963821 20.005789 2.222865 3.704776 5.186686 7.409551 8.891462 9.632417 3.704776 2.222865 8.150507 3.704776 12.596237 3.704776 7.409551 0 13.337192-2.222865 17.782923-7.409551 4.445731-5.186686 6.668596-11.855282 6.668596-20.005789 0-1.48191 0-3.704776 0-5.186686 0-40.752533 0-82.24602 0-122.998553 18.523878 0 37.047757 0 54.83068 0 0 38.529667 0 77.059334 0 115.589001 0 2.222865 0 5.186686 0 7.409551 0 14.078148-1.48191 25.93343-5.186686 36.306802-3.704776 9.632417-8.891462 19.264834-17.041968 27.41534-7.409551 7.409551-16.301013 13.337192-25.93343 17.782923-9.632417 4.445731-20.746744 5.927641-31.861071 5.927641-11.855282 0-22.969609-2.222865-33.342981-6.668596-10.373372-4.445731-19.264834-11.114327-27.41534-20.005789-4.445731-5.186686-8.150507-10.373372-11.114327-16.301013-2.963821-5.927641-5.186686-11.855282-6.668596-19.264834-1.48191-6.668596-2.222865-14.819103-2.222865-24.45152C1841.273517 877.290883 1841.273517 874.327062 1841.273517 872.104197zM893.591896 966.946454c-14.078148 0-28.89725 0-42.975398 0-0.740955 0-0.740955 0-1.48191 0-18.523878 0-33.342981-6.668596-44.457308-20.005789-2.963821-2.963821-5.186686-6.668596-7.409551-10.373372-2.222865-3.704776-3.704776-8.150507-5.186686-12.596237-1.48191-4.445731-2.222865-9.632417-2.963821-15.560058-0.740955-5.186686-0.740955-11.114327-0.740955-16.301013 0-2.963821 0-5.186686 0-7.409551 0-1.48191 0-8.150507 0-20.005789 18.523878 0 37.047757 0 54.83068 0 0 12.596237 0 19.264834 0 20.005789 0 0.740955 0 1.48191 0 2.963821 0 10.373372 1.48191 17.782923 4.445731 22.969609 2.963821 4.445731 7.409551 7.409551 14.078148 7.409551 0 0 0 0 0 0 6.668596 0 13.337192 0 20.005789 0 0 0 0 0 0 0 6.668596 0 11.114327-2.222865 14.078148-7.409551 2.963821-4.445731 4.445731-12.596237 4.445731-22.969609 0-1.48191 0-2.963821 0-4.445731 0-42.234443 0-100.028944 0-173.383502 18.523878 0 37.047757 0 54.83068 0 0 72.613603 0 129.667149 0 171.901592 0 2.963821 0 6.668596 0 9.632417 0 5.186686 0 10.373372-0.740955 16.301013-0.740955 5.186686-1.48191 10.373372-2.963821 15.560058-1.48191 4.445731-2.963821 8.150507-5.186686 12.596237-2.222865 4.445731-4.445731 7.409551-7.409551 10.373372-11.114327 13.337192-25.93343 20.005789-44.457308 20.005789C894.332851 966.946454 894.332851 966.946454 893.591896 966.946454zM1409.296671 712.057887c18.523878 0 37.047757 0 55.571635 0 22.228654 0 43.716353-1.48191 65.204052 8.891462 22.969609 10.373372 40.752533 30.379161 48.903039 54.089725 5.186686 15.560058 5.186686 31.120116 5.186686 47.421129 0 13.337192 0 26.674385 0 39.270622 0 30.379161-5.927641 53.34877-28.89725 74.836469-17.782923 17.041968-40.752533 25.93343-65.204052 25.93343-17.041968 0-34.083936 0-51.125904 0-6.668596 0-13.337192 0-20.005789 0-2.963821 0-6.668596 0-9.632417 0-1.48191 0-0.740955-1.48191-0.740955-2.222865 0-0.740955 0-2.222865 0-2.963821 0-8.150507 0-15.560058 0-23.710564 0-8.150507 0-15.560058 0-23.710564 0-0.740955 0-0.740955 0-1.48191 0-1.48191 1.48191 0 2.222865 0 1.48191 0 2.963821 0 5.186686 0 2.963821 0 6.668596 0 9.632417 0 6.668596 0 13.337192 0 20.005789 0 14.819103 0 28.89725 0 43.716353 0 9.632417 0 17.041968-2.222865 24.45152-7.409551 17.782923-13.337192 16.301013-28.89725 16.301013-47.421129 0-6.668596 0.740955-51.86686-1.48191-58.535456-2.963821-11.114327-8.150507-17.782923-17.782923-23.710564-11.114327-6.668596-21.487699-5.927641-32.602026-5.927641-13.337192 0-26.674385 0-39.270622 0-6.668596 0-13.337192 0-20.005789 0-2.963821 0-6.668596 0-9.632417 0-1.48191 0-0.740955-1.48191-0.740955-2.222865 0-0.740955 0-2.222865 0-2.963821C1409.296671 743.178003 1409.296671 727.617945 1409.296671 712.057887zM1964.272069 321.57453c-2.222865 2.963821-3.704776 5.927641-5.927641 8.891462-5.927641 11.114327-12.596237 21.487699-18.523878 32.602026C1947.971056 348.98987 1954.639653 334.170767 1964.272069 321.57453zM2255.467438 290.454414c-8.150507 14.078148-14.819103 28.89725-24.45152 41.493488 2.222865-2.963821 3.704776-5.927641 5.927641-8.891462C2243.612156 312.683068 2249.539797 301.568741 2255.467438 290.454414zM2255.467438 290.454414l-1.48191 0C2254.726483 290.454414 2256.208394 289.713459 2255.467438 290.454414zM2577.041968 843.206946c0-1.48191 0-2.222865 0-3.704776 0-1.48191 0-2.222865 0-2.963821 0-0.740955 0-1.48191 0-2.222865 0-5.927641 0.740955-9.632417 1.48191-13.337192 1.48191-4.445731 3.704776-8.150507 7.409551-10.373372 3.704776-2.222865 7.409551-3.704776 12.596237-3.704776 4.445731 0 7.409551 0.740955 11.114327 2.963821 2.963821 1.48191 5.927641 4.445731 7.409551 8.150507 2.222865 2.963821 2.963821 10.373372 3.704776 20.746744 0 1.48191 0 2.963821 0 4.445731 0 40.011577 0 79.2822 0 119.293777 18.523878 0 36.306802 0 54.83068 0 0-40.011577 0-79.2822 0-119.293777 0-1.48191 0-2.963821 0-4.445731 0-10.373372 1.48191-17.041968 3.704776-20.746744 1.48191-2.963821 4.445731-5.927641 7.409551-8.150507 2.963821-1.48191 6.668596-2.963821 10.373372-2.963821 3.704776 0 7.409551 0.740955 10.373372 2.222865 2.963821 2.222865 5.927641 4.445731 7.409551 7.409551 2.222865 3.704776 3.704776 10.373372 3.704776 20.005789 0 2.222865 0 4.445731 0 6.668596 0 40.011577 0 79.2822 0 119.293777 18.523878 0 36.306802 0 54.83068 0 0-39.270622 0-78.541245 0-117.070912 0-2.963821 0-5.927641 0-8.891462 0-7.409551-0.740955-14.819103-1.48191-20.746744-1.48191-6.668596-2.963821-12.596237-5.927641-17.782923-2.222865-5.186686-5.927641-10.373372-10.373372-15.560058-5.186686-5.927641-11.114327-11.114327-17.782923-15.560058-6.668596-4.445731-14.078148-8.150507-21.487699-10.373372-7.409551-2.222865-15.560058-2.963821-23.710564-2.963821-16.301013 0-31.861071 5.186686-45.939219 14.819103-14.078148-9.632417-29.638205-14.819103-45.939219-14.819103-11.114327 0-22.228654 2.222865-32.602026 6.668596-10.373372 4.445731-19.264834 11.114327-26.674385 18.523878-5.186686 5.186686-8.891462 11.114327-11.855282 17.041968-2.963821 5.927641-5.186686 12.596237-6.668596 19.264834-1.48191 7.409551-2.222865 14.819103-2.222865 23.710564 0 2.222865 0 4.445731 0 7.409551 0 39.270622 0 78.541245 0 117.070912 18.523878 0 37.047757 0 54.83068 0C2577.041968 922.489146 2577.041968 883.218524 2577.041968 843.206946zM2262.87699 908.410999c-34.824891 2.222865-56.31259 1.48191-64.463097-3.704776-8.150507-4.445731-14.819103-10.373372-19.264834-18.523878-4.445731-8.150507-7.409551-17.041968-7.409551-26.674385 0-9.632417 2.222865-18.523878 7.409551-26.674385 4.445731-8.150507 11.114327-14.078148 19.264834-18.523878 17.782923-7.409551 40.011577-8.891462 65.204052-5.186686 0-18.523878 0-37.047757 0-55.571635-17.782923-0.740955-33.342981 0-48.162084 0.740955-14.819103 0.740955-29.638205 5.186686-44.457308 12.596237-16.301013 9.632417-29.638205 22.228654-39.270622 39.270622-9.632417 16.301013-14.819103 34.083936-14.819103 54.089725 0 14.819103 2.963821 28.89725 8.891462 42.234443 5.186686 13.337192 13.337192 25.192475 24.45152 35.565847 6.668596 5.927641 13.337192 11.855282 22.228654 16.301013 4.445731 2.222865 8.150507 4.445731 11.855282 5.927641 3.704776 1.48191 7.409551 2.963821 13.337192 3.704776 8.891462 2.222865 18.523878 2.963821 28.156295 2.963821 8.150507 0 20.746744-0.740955 37.788712-2.222865C2262.87699 945.458755 2262.87699 926.934877 2262.87699 908.410999zM1409.296671 764.665702l54.83068 0 0 110.402315-54.83068 0 0-110.402315ZM2255.467438 290.454414c-5.927641 11.114327-12.596237 21.487699-18.523878 32.602026-1.48191 2.963821-3.704776 5.927641-5.927641 8.891462-0.740955 1.48191-2.222865 2.963821-3.704776 3.704776s-2.222865 2.222865-3.704776 3.704776c-2.222865 2.222865-5.186686 4.445731-7.409551 6.668596-1.48191 0.740955-2.963821 2.222865-4.445731 2.963821-1.48191 0.740955-2.222865 1.48191-3.704776 2.222865-0.740955 0.740955-2.222865 1.48191-3.704776 2.222865-1.48191 0.740955-2.963821 1.48191-4.445731 2.222865 0 0 0 0 0 0-1.48191 0.740955-2.222865 0.740955-3.704776 1.48191-1.48191 0.740955-3.704776 1.48191-5.186686 1.48191-2.963821 0.740955-5.927641 1.48191-8.891462 2.222865-1.48191 0-2.222865 0.740955-3.704776 0.740955 0 0 0 0-0.740955 0 0 0-0.740955 0-0.740955 0-0.740955 0-2.222865 0-3.704776 0.740955-1.48191 0-2.963821 0-4.445731 0s-2.963821 0-4.445731 0l-225.991317 0c5.927641-11.114327 12.596237-21.487699 18.523878-32.602026 1.48191-2.963821 3.704776-5.927641 5.927641-8.891462 4.445731-5.927641 8.891462-10.373372 14.819103-14.819103 1.48191-0.740955 2.963821-2.222865 4.445731-2.963821 1.48191-0.740955 2.222865-1.48191 3.704776-2.222865 0.740955-0.740955 2.222865-1.48191 3.704776-2.222865 1.48191-0.740955 2.963821-1.48191 4.445731-2.222865 0 0 0 0 0 0 1.48191-0.740955 2.222865-0.740955 3.704776-1.48191 1.48191-0.740955 3.704776-1.48191 5.186686-2.222865 7.409551-2.222865 14.078148-2.963821 22.228654-3.704776 1.48191 0 2.963821 0 4.445731 0L2255.467438 288.972504zM2174.703329 363.068017c1.48191 0 2.222865 0 3.704776-0.740955-0.740955 0-1.48191 0-2.222865 0C2175.444284 363.068017 2174.703329 363.068017 2174.703329 363.068017zM2025.030391 291.195369c-7.409551 0-14.819103 1.48191-22.228654 3.704776C2010.211288 291.936324 2017.620839 291.195369 2025.030391 291.195369zM2029.476122 290.454414c-1.48191 0-2.963821 0-4.445731 0 0.740955 0 0.740955 0 1.48191 0L2029.476122 290.454414zM2170.257598 363.068017c-0.740955 0-0.740955 0-1.48191 0l-2.963821 0C2167.293777 363.068017 2168.775687 363.068017 2170.257598 363.068017zM2177.667149 362.327062c-0.740955 0-1.48191 0-2.222865 0-2.222865 0-3.704776 0-5.927641 0 1.48191 0 2.963821 0 4.445731 0C2175.444284 363.068017 2176.926194 362.327062 2177.667149 362.327062zM2334.749638 151.154848c-5.927641 11.114327-12.596237 21.487699-18.523878 32.602026-0.740955 1.48191-2.222865 2.963821-2.963821 4.445731 0 0 0 0 0 0-0.740955 0.740955-1.48191 2.222865-2.222865 2.963821 0 0 0 0.740955-0.740955 0.740955 0 0 0 0 0 0-0.740955 1.48191-2.222865 2.222865-2.963821 3.704776-1.48191 1.48191-2.222865 2.963821-3.704776 4.445731-1.48191 1.48191-2.222865 2.222865-3.704776 3.704776-1.48191 1.48191-2.222865 2.222865-3.704776 3.704776-1.48191 0.740955-2.963821 2.222865-4.445731 2.963821-1.48191 0.740955-2.222865 1.48191-3.704776 2.222865-0.740955 0.740955-2.222865 1.48191-3.704776 2.222865-1.48191 0.740955-2.963821 1.48191-4.445731 2.222865l0 0 0 0c-1.48191 0.740955-2.222865 0.740955-3.704776 1.48191-1.48191 0.740955-3.704776 1.48191-5.186686 1.48191-2.963821 0.740955-5.927641 1.48191-8.891462 2.222865-1.48191 0-2.222865 0.740955-3.704776 0.740955-0.740955 0-0.740955 0-1.48191 0-1.48191 0-2.222865 0-3.704776 0.740955-1.48191 0-2.963821 0-4.445731 0s-2.963821 0-4.445731 0l-225.991317 0c5.927641-11.114327 12.596237-21.487699 18.523878-32.602026 0.740955-1.48191 1.48191-2.963821 2.963821-4.445731 0.740955-1.48191 2.222865-2.963821 3.704776-4.445731 0.740955-1.48191 2.222865-2.222865 2.963821-3.704776 0.740955-0.740955 1.48191-2.222865 2.963821-2.963821 1.48191-1.48191 2.222865-2.222865 3.704776-3.704776 1.48191-1.48191 2.222865-2.222865 3.704776-3.704776 0 0 0.740955 0 0.740955-0.740955 1.48191-0.740955 2.963821-2.222865 4.445731-2.963821 1.48191-0.740955 2.222865-1.48191 3.704776-2.222865 0.740955-0.740955 2.222865-1.48191 2.963821-2.222865 1.48191-0.740955 2.963821-1.48191 4.445731-2.222865l0 0 0 0c1.48191-0.740955 2.222865-0.740955 3.704776-1.48191 2.222865-0.740955 3.704776-1.48191 5.927641-2.222865 1.48191 0 2.963821-0.740955 3.704776-0.740955 1.48191 0 2.963821-0.740955 4.445731-0.740955 4.445731-0.740955 8.891462-1.48191 13.337192-1.48191 1.48191 0 2.963821 0 4.445731 0L2334.749638 151.154848zM2253.985528 223.768452c1.48191 0 2.222865 0 3.704776-0.740955-0.740955 0-1.48191 0-2.222865 0C2254.726483 223.768452 2253.985528 223.768452 2253.985528 223.768452zM2039.849493 186.720695c-0.740955 1.48191-2.222865 2.963821-2.963821 4.445731-5.927641 11.114327-12.596237 21.487699-18.523878 32.602026C2026.512301 211.172214 2032.439942 197.835022 2039.849493 186.720695zM2334.749638 151.154848c-6.668596 11.855282-12.596237 23.710564-20.005789 34.824891 0.740955-0.740955 0.740955-1.48191 1.48191-2.222865C2322.894356 173.383502 2328.821997 162.269175 2334.749638 151.154848zM2334.749638 151.154848 2334.008683 151.154848C2334.008683 151.154848 2335.490593 150.413893 2334.749638 151.154848zM981.024602 859.507959c0-19.264834 4.445731-37.047757 14.078148-53.34877 9.632417-16.301013 22.228654-29.638205 39.270622-39.270622 16.301013-9.632417 34.083936-14.078148 53.34877-14.078148 19.264834 0 37.047757 4.445731 53.34877 14.078148 16.301013 9.632417 29.638205 22.969609 39.270622 39.270622 9.632417 16.301013 14.078148 34.083936 14.078148 53.34877 0 19.264834-4.445731 37.047757-14.078148 53.34877-9.632417 16.301013-22.228654 29.638205-39.270622 39.270622-16.301013 9.632417-34.083936 14.819103-53.34877 14.819103-19.264834 0-37.047757-4.445731-53.34877-14.078148-16.301013-9.632417-29.638205-22.228654-39.270622-39.270622C985.470333 896.555716 981.024602 878.772793 981.024602 859.507959zM1035.855282 859.507959c0 9.632417 2.222865 18.523878 7.409551 25.93343 4.445731 8.150507 11.114327 14.078148 19.264834 19.264834 8.150507 4.445731 17.041968 7.409551 25.93343 7.409551 9.632417 0 18.523878-2.222865 25.93343-7.409551 8.150507-4.445731 14.819103-11.114327 19.264834-19.264834 4.445731-8.150507 6.668596-17.041968 6.668596-25.93343 0-9.632417-2.222865-18.523878-6.668596-25.93343-4.445731-8.150507-11.114327-14.078148-19.264834-19.264834-8.150507-4.445731-17.041968-6.668596-25.93343-6.668596-9.632417 0-17.782923 2.222865-25.93343 6.668596-8.150507 4.445731-14.078148 11.114327-19.264834 19.264834C1038.078148 841.725036 1035.855282 849.875543 1035.855282 859.507959zM2285.105644 859.507959c0-19.264834 4.445731-37.047757 14.078148-53.34877 9.632417-16.301013 22.228654-29.638205 39.270622-39.270622 16.301013-9.632417 34.083936-14.078148 53.34877-14.078148 19.264834 0 37.047757 4.445731 53.34877 14.078148 16.301013 9.632417 29.638205 22.969609 39.270622 39.270622 9.632417 16.301013 14.078148 34.083936 14.078148 53.34877 0 19.264834-4.445731 37.047757-14.078148 53.34877-9.632417 16.301013-22.228654 29.638205-39.270622 39.270622-16.301013 9.632417-34.083936 14.819103-53.34877 14.819103-19.264834 0-37.047757-4.445731-53.34877-14.078148-16.301013-9.632417-29.638205-22.228654-39.270622-39.270622C2289.551375 896.555716 2285.105644 878.772793 2285.105644 859.507959zM2339.936324 859.507959c0 9.632417 2.222865 18.523878 7.409551 25.93343 4.445731 8.150507 11.114327 14.078148 19.264834 19.264834 8.150507 4.445731 17.041968 7.409551 25.93343 7.409551 9.632417 0 18.523878-2.222865 25.93343-7.409551 8.150507-4.445731 14.819103-11.114327 19.264834-19.264834 4.445731-8.150507 6.668596-17.041968 6.668596-25.93343 0-9.632417-2.222865-18.523878-6.668596-25.93343-4.445731-8.150507-11.114327-14.078148-19.264834-19.264834-8.150507-4.445731-17.041968-6.668596-25.93343-6.668596-9.632417 0-17.782923 2.222865-25.93343 6.668596-8.150507 4.445731-14.078148 11.114327-19.264834 19.264834C2342.15919 841.725036 2339.936324 849.875543 2339.936324 859.507959z" fill="#fff"></path></g></g></svg>