<?xml version="1.0" encoding="utf-8"?>
<!-- Generator: Adobe Illustrator 15.0.0, SVG Export Plug-In . SVG Version: 6.00 Build 0)  -->
<!DOCTYPE svg PUBLIC "-//W3C//DTD SVG 1.1//EN" "http://www.w3.org/Graphics/SVG/1.1/DTD/svg11.dtd">
<svg version="1.1" id="Default" xmlns="http://www.w3.org/2000/svg" xmlns:xlink="http://www.w3.org/1999/xlink" x="0px" y="0px"
	 width="20px" height="20px" viewBox="0 0 20 20" enable-background="new 0 0 20 20" xml:space="preserve">
<path fill="#999999" d="M10,0c5.522,0,10,4.477,10,10s-4.478,10-10,10S0,15.523,0,10S4.478,0,10,0z M18.871,9.444
	c-0.116-1.86-0.672-3.35-1.801-4.832c-0.066-0.086-0.133-0.171-0.202-0.254c-0.034-0.042-0.068-0.083-0.104-0.124
	c-0.032-0.039-0.035-0.178-0.106-0.107c-0.154,0.155-0.309,0.309-0.463,0.464c-0.31,0.309-0.618,0.618-0.928,0.927
	c-0.617,0.617-1.233,1.234-1.851,1.851s-1.233,1.234-1.851,1.851c-0.038,0.039-0.077,0.077-0.115,0.116
	C11.416,9.37,11.25,9.444,11.35,9.444c0.109,0,0.218,0,0.327,0c0.218,0,0.436,0,0.653,0c0.437,0,0.872,0,1.309,0
	C15.383,9.444,17.127,9.444,18.871,9.444z M3.334,4.12c-3.001,3.402-2.959,8.519,0.099,11.87c3.058,3.353,8.15,3.864,11.813,1.186
	c1.77-1.293,2.999-3.195,3.451-5.34c0.054-0.253,0.096-0.508,0.127-0.765c0.016-0.127,0.028-0.254,0.038-0.381
	c0.004-0.057,0.037-0.133-0.052-0.133c-0.069,0-0.138,0-0.206,0c-0.549,0-1.097,0-1.646,0c-1.097,0-2.193,0-3.29,0
	c-1.082,0-2.163,0-3.244,0c-0.263,0-0.518,0.137-0.766-0.111c-0.192-0.192-0.384-0.384-0.575-0.576
	C8.699,9.485,8.315,9.102,7.932,8.718C6.399,7.185,4.867,5.652,3.334,4.12z M15.88,3.334c-1.869-1.648-4.345-2.437-6.823-2.172
	c-1.264,0.135-2.378,0.496-3.48,1.129C5.054,2.59,4.574,2.934,4.122,3.332C4.064,3.383,4.174,3.388,4.201,3.416
	c0.028,0.028,0.056,0.056,0.084,0.083C4.341,3.555,4.396,3.61,4.452,3.666c0.111,0.112,0.223,0.223,0.334,0.335
	C5.01,4.224,5.232,4.447,5.455,4.67c0.869,0.868,1.737,1.737,2.605,2.605C8.495,7.709,8.93,8.144,9.363,8.578
	c0.109,0.109,0.218,0.217,0.326,0.326c0.055,0.054,0.108,0.109,0.163,0.163C9.88,9.094,9.907,9.121,9.934,9.148
	c0.024,0.023,0.038,0.095,0.082,0.051c0.217-0.217,0.435-0.435,0.651-0.652C12.404,6.81,14.143,5.072,15.88,3.334z"/>
</svg>
