<?xml version="1.0" encoding="UTF-8" standalone="no"?>
<svg width="100px" height="100px" viewBox="0 0 100 100" version="1.1" xmlns="http://www.w3.org/2000/svg" xmlns:xlink="http://www.w3.org/1999/xlink">
    <!-- Generator: Sketch 39.1 (31720) - http://www.bohemiancoding.com/sketch -->
    <title>Slice Copy</title>
    <desc>Created with Sketch.</desc>
    <defs></defs>
    <g id="Page-1" stroke="none" stroke-width="1" fill="none" fill-rule="evenodd">
        <g id="e642.1" fill="#B697B8">
            <path d="M0.814258138,34.1472739 C0.814258138,32.1902935 1.14783349,30.7670351 1.81498647,29.8774985 C2.4376632,29.0769145 3.86092167,28.6766236 6.08476191,28.6766236 L19.7613855,28.6766236 L19.7613855,83.316407 L13.8904466,83.316407 C12.1558497,83.316407 10.5991602,83.2941677 9.22037796,83.2496915 C7.17444504,83.2052129 6.12923817,83.1829759 6.08476191,83.1829759 C4.17225776,83.2719285 2.81571481,82.9494727 2.01513305,82.2156042 C1.21454902,81.4817357 0.814258138,80.0918362 0.814258138,78.045901 L0.814258138,62.3011052 C0.814258138,61.5005211 0.936569556,60.900086 1.18119239,60.4997928 C1.42581523,60.0995019 1.94841752,59.8326421 2.74899928,59.699211 C3.01586138,59.699211 3.41615226,59.5880193 3.94987419,59.3656334 C4.43911986,59.1432498 4.92836553,58.7874352 5.41760893,58.2981896 C5.95133086,57.8089462 6.373861,57.2085087 6.68519936,56.4968795 C7.04101398,55.6962954 7.21892129,54.7622826 7.21892129,53.6948388 C7.21892129,52.0047205 6.77415416,50.6926538 5.88461533,49.7586387 C4.99508106,48.7801496 4.06106597,48.2241884 3.08257691,48.0907596 C2.28199288,47.9573286 1.70379469,47.7238254 1.34798007,47.3902478 C0.992165448,47.0566724 0.814258138,46.4895916 0.814258138,45.6890098 L0.814258138,34.1472739 Z M9.68738437,23.7396952 L9.68738437,22.4053915 L9.68738437,22.338676 L9.68738437,22.2052449 L9.68738437,20.8709389 C9.68738437,19.4476805 10.2433456,18.1133768 11.3552657,16.8680256 C12.4671881,15.6226744 13.6680607,15 14.9578904,15 L29.7686734,15 L29.7686734,23.7396952 L9.68738437,23.7396952 Z M97.0176365,47.4903222 C96.4394383,47.623751 96.0391452,47.9350893 95.8167616,48.424335 C95.5498995,48.9135807 95.4164707,49.4250633 95.4164707,49.9587853 C95.4164707,50.4925072 95.5498995,51.0484684 95.8167616,51.6266666 C96.0391452,52.2048648 96.4394383,52.6051556 97.0176365,52.8275415 C97.5958347,53.0499251 98.0406019,53.4724552 98.3519402,54.0951296 C98.7077548,54.7622826 98.8856621,55.4739119 98.8856621,56.2300174 C98.9301407,56.9416466 98.8411859,57.6310388 98.6188023,58.2981896 C98.3964165,58.9208663 98.0850804,59.3878727 97.6847872,59.699211 C96.2615288,60.5887476 95.5498995,61.5672367 95.5498995,62.6346805 C95.5498995,63.7466029 96.2615288,64.8362838 97.6847872,65.9037276 C97.9516493,66.1261112 98.2185114,66.5264043 98.4853713,67.1046025 C98.7522311,67.727277 98.8856621,68.3277144 98.8856621,68.9059126 C98.8856621,69.4841131 98.7299941,69.9733565 98.4186557,70.3736496 C98.1517959,70.8184168 97.6625502,71.0408003 96.950921,71.0408003 L91.1466953,71.0408003 C90.7019259,71.0408003 90.4795423,71.0185633 90.4795423,70.9740871 C90.4350661,70.8851323 90.4795423,70.7517012 90.6129734,70.5737939 C90.7464044,70.3958866 90.9243095,70.1957423 91.1466953,69.9733565 C91.3246026,69.7509729 91.5025099,69.4841131 91.6804172,69.1727747 C92.0362319,68.1498071 92.0362319,67.2825098 91.6804172,66.5708806 C91.3246026,65.8147751 90.7241652,65.1920984 89.8791049,64.7028527 C89.2564304,64.3915166 88.8339003,63.9467472 88.6115167,63.368549 C88.3891309,62.7458723 88.3001783,62.1009586 88.3446546,61.4338056 C88.3446546,60.7666549 88.4558464,60.1884567 88.67823,59.699211 C88.9006158,59.1654891 89.2119519,58.7874352 89.612245,58.5650517 C90.1904432,58.3426681 90.6352104,57.9423749 90.9465487,57.3641767 C91.2134108,56.8304548 91.3468396,56.2300174 91.3468396,55.5628667 C91.3468396,54.9401899 91.2578871,54.3175132 91.0799798,53.6948388 C90.8575962,53.1611168 90.5240186,52.7830629 90.0792514,52.5606794 C89.501051,52.249341 89.0562838,51.8268109 88.7449455,51.2930912 C88.4336071,50.7148908 88.2779391,50.0477378 88.2779391,49.2916323 C88.2779391,48.5355268 88.4113701,47.8238975 88.67823,47.1567446 C88.9895683,46.4451153 89.4565747,45.8891564 90.0792514,45.4888632 C90.5240186,45.2220034 90.8798332,44.8217125 91.1466953,44.2879906 C91.4135551,43.8432212 91.5692255,43.3094993 91.6137017,42.6868248 C91.658178,42.1531029 91.5469862,41.5749024 91.2801241,40.952228 C91.0577405,40.418506 90.6129734,39.9737366 89.9458204,39.617922 C89.2341912,39.2176311 88.7227085,38.6839092 88.4113701,38.0167562 C88.1000318,37.305127 87.9443637,36.5934977 87.9443637,35.8818685 C87.9443637,35.1702393 88.1000318,34.4808493 88.4113701,33.8136963 C88.7227085,33.1465456 89.1674756,32.6350607 89.7456738,32.2792461 C90.991025,31.6120931 91.658178,30.7225565 91.7471328,29.6106364 C91.8360853,28.45424 91.7471328,27.4090332 91.4802707,26.4750203 C91.2578871,25.7189149 90.8353569,25.0517619 90.2126802,24.4735637 C89.5455295,23.8953655 88.7227085,23.6062641 87.7442172,23.6062641 L36.3067676,23.6062641 L36.3067676,15 L96.6173434,15 C97.1065891,15 97.5291192,15.177905 97.8849338,15.5337197 C98.2407484,15.9340128 98.4742516,16.3787799 98.5854434,16.8680256 C98.6966352,17.3572713 98.6632786,17.8909932 98.4853713,18.4691914 C98.307464,19.0029133 97.9738886,19.4476805 97.4846429,19.8034951 C97.0398735,20.2037882 96.6618219,20.6707946 96.3504836,21.2045166 C96.0391452,21.7382385 95.8612379,22.360913 95.8167616,23.0725422 C95.7722854,23.6507427 95.8612379,24.2511801 96.0836237,24.8738546 C96.2615288,25.496529 96.6395826,25.9635377 97.2177808,26.2748738 C98.0183649,26.7196432 98.6188023,27.3200806 99.0190932,28.0761861 C99.4193841,28.8322916 99.6195307,29.5883994 99.6195307,30.3445049 C99.6195307,31.1006104 99.4193841,31.8122396 99.0190932,32.4793926 C98.6188023,33.1465456 98.0628411,33.613552 97.3512119,33.8804118 C96.5506301,34.1917502 95.9724297,34.6142803 95.616615,35.1480023 C95.305279,35.6817242 95.1051324,36.2821617 95.0161799,36.9493124 C95.0161799,37.6164653 95.1718479,38.2613791 95.4831863,38.8840558 C95.7945224,39.5067302 96.3060073,40.0404522 97.0176365,40.4852216 C97.7292658,40.8855125 98.2629877,41.4637106 98.6188023,42.2198161 C98.8856621,42.9314454 99.0190932,43.6653139 99.0190932,44.4214194 C98.9746169,45.1330486 98.7967096,45.8002016 98.4853713,46.4228783 C98.1295567,47.0455528 97.640311,47.4013674 97.0176365,47.4903222 L97.0176365,47.4903222 Z M83.0741508,45.8224409 C82.2735668,46.0448244 81.6286531,46.4673546 81.1394097,47.090029 C80.6946403,47.7127058 80.4277805,48.3576195 80.3388257,49.0247724 C80.3388257,49.6474469 80.516733,50.2923606 80.8725476,50.9595136 C81.3173147,51.6266666 81.9177522,52.093673 82.67386,52.3605351 C83.3854892,52.6718712 83.9192111,53.1166406 84.2750257,53.6948388 C84.6308404,54.273037 84.8309847,54.8957137 84.8754609,55.5628667 C84.9199395,56.1855411 84.797628,56.7970982 84.5085289,57.3975356 C84.2194299,57.9979708 83.7857801,58.4316206 83.2075819,58.6984827 C81.4285088,59.5880193 80.516733,60.6554631 80.4722567,61.9008143 C80.3833019,63.1016869 81.0504549,64.0801783 82.4737134,64.8362838 C83.1408664,65.1476221 83.652349,65.6146285 84.0081636,66.2373052 C84.4084545,66.8155034 84.6308404,67.4604172 84.6753166,68.1720464 C84.7197929,68.8836756 84.5863618,69.5063501 84.2750257,70.040072 C84.0081636,70.5737939 83.5411572,70.9518478 82.8740043,71.1742314 C82.028944,71.396615 81.3617933,71.7969081 80.8725476,72.3751063 C80.4277805,72.9533045 80.1831576,73.5759812 80.1386791,74.2431319 C80.0942028,74.9102849 80.2721101,75.5774379 80.672401,76.2445909 C81.0726942,76.8672653 81.6953686,77.4009872 82.5404289,77.8457567 C83.1186271,78.1570927 83.5411572,78.6241014 83.8080171,79.2467759 C84.0748792,79.8694526 84.1638317,80.46989 84.0748792,81.0480882 C83.9859267,81.6262864 83.7857801,82.1377691 83.4744417,82.5825385 C83.1631034,83.0717842 82.7183362,83.316407 82.140138,83.316407 L26.0993354,83.316407 L26.0993354,28.6766236 L82.8072887,28.6766236 C83.3854892,28.6766236 83.8302563,28.8990072 84.1415947,29.3437766 C84.4529331,29.83302 84.6308404,30.3667419 84.6753166,30.9449424 C84.7197929,31.5231406 84.5863618,32.1013387 84.2750257,32.6795369 C84.0081636,33.3022137 83.5411572,33.7025045 82.8740043,33.8804118 C82.2513298,34.1027954 81.7398449,34.4808493 81.339554,35.0145712 C80.9392631,35.5038169 80.6946403,36.0597758 80.6056855,36.6824525 C80.5612092,37.305127 80.7168795,37.9055644 81.0726942,38.4837649 C81.4285088,39.0619631 82.028944,39.5067302 82.8740043,39.8180686 C83.5411572,40.129407 84.0748792,40.5519371 84.47517,41.085659 C84.8754609,41.7528097 85.0756075,42.3532472 85.0756075,42.8869691 C85.1200838,43.5096458 84.986655,44.1100833 84.6753166,44.6882815 C84.3639783,45.2220034 83.8302563,45.6000573 83.0741508,45.8224409 L83.0741508,45.8224409 Z M57.2553516,53.1611168 C56.899537,53.1611168 56.5214854,53.1166406 56.1211922,53.0276858 C55.7653776,52.9387333 55.6764251,52.7163497 55.8543324,52.3605351 C56.3880544,51.6044273 56.743869,51.0929446 56.9217763,50.8260825 C57.5889293,49.8920697 58.25608,48.9802939 58.9232329,48.0907596 C59.1011403,47.8683738 59.4347179,47.4236067 59.9239613,46.7564537 C60.413207,46.0893007 60.7912608,45.6000573 61.0581207,45.2887189 C61.7252736,44.3102276 62.1033253,43.7542687 62.1922801,43.6208376 C62.5480947,43.0426394 62.3479481,42.3532472 61.5918426,41.5526654 C61.4584115,41.4192344 61.1693125,41.1968508 60.7245453,40.8855125 C60.3242522,40.6186526 59.9239613,40.3962668 59.5236704,40.2183595 C58.9454722,40.0404522 58.5451791,40.0182152 58.3227955,40.1516439 C58.0559357,40.3295513 57.7445973,40.6631289 57.3887827,41.1523723 C56.899537,41.8640015 56.5437224,42.3754865 56.3213388,42.6868248 C56.0989553,42.9981609 55.4985178,43.8876975 54.5200265,45.3554345 C53.9863045,46.1560162 53.3858694,47.0233158 52.7187164,47.9573286 C52.1849944,48.7134341 51.8958953,49.1582035 51.8514168,49.2916323 C51.6735095,49.6029706 51.39553,49.7252821 51.0174762,49.6585665 C50.6394245,49.591851 50.3836821,49.4028241 50.250251,49.091488 C50.0723437,48.8691021 49.7387684,48.4465743 49.2495227,47.8238975 C48.6268482,47.067792 48.0264108,46.2894473 47.4482126,45.4888632 C47.0479194,44.9551413 46.425245,44.1323203 45.5801847,43.0204002 C45.0019865,42.3087709 44.5794564,41.775049 44.3125943,41.4192344 C43.6899198,40.2183595 43.0227668,39.8180686 42.3111376,40.2183595 C41.8218919,40.5296978 41.3548855,40.8410362 40.9101184,41.1523723 C40.5543038,41.4637106 40.1984892,41.7528097 39.8426745,42.0196718 C39.1310453,42.5089175 39.0198535,43.1538312 39.5090992,43.954413 C40.7989266,45.5111025 41.8663705,46.8676455 42.7114308,48.0240441 C43.7788746,49.3583478 44.5349801,50.3368391 44.9797473,50.9595136 C45.6469002,51.8490501 46.0694304,52.4050113 46.2473377,52.6273949 C46.3807687,52.8942547 46.2250984,53.0276858 45.7803313,53.0276858 L44.5127408,53.0276858 C44.11245,53.0276858 43.600965,53.0499251 42.9782906,53.0944013 C42.2666613,53.1388776 41.6439869,53.1166406 41.1102627,53.0276858 C40.5320645,53.0276858 40.0650581,53.1833561 39.7092435,53.4946922 C39.3534289,53.7615543 39.2422371,54.1173689 39.3756681,54.562136 C39.4646206,54.8734744 39.5090992,55.3182438 39.5090992,55.896442 L39.5090992,57.2307457 C39.5090992,57.5865603 39.620291,57.7644676 39.8426745,57.7644676 C40.0205818,57.8089462 40.2652047,57.8311831 40.576543,57.8311831 L46.7810596,57.8311831 C47.6261199,57.8311831 48.0486501,58.0090905 48.0486501,58.3649051 L48.0486501,60.4330773 C48.0486501,60.8333704 47.9819345,61.0335147 47.8485035,61.0335147 L47.3147815,61.0335147 L46.2473377,61.0335147 L44.11245,61.0335147 L41.9775623,61.0335147 L40.6432563,61.0335147 C40.2429654,60.9445622 39.9761056,61.0335147 39.8426745,61.3003768 C39.7092435,61.6117152 39.5980517,61.9452905 39.5090992,62.3011052 C39.4201444,62.701396 39.4201444,63.0572107 39.5090992,63.368549 C39.5535754,63.6354089 39.5758124,63.902271 39.5758124,64.1691308 C39.5758124,65.1476221 40.0428188,65.6368678 40.9768339,65.6368678 L47.4482126,65.6368678 C47.8040272,65.6368678 48.0041715,65.6813441 48.0486501,65.7702966 C48.1376026,65.9037276 48.1820788,66.1483505 48.1820788,66.5041651 C48.2710336,66.904456 48.2932706,67.5493697 48.2487944,68.4389062 C48.2043181,69.5953049 48.1820788,70.2179793 48.1820788,70.3069341 C48.1820788,71.1075159 48.6490852,71.507809 49.5831003,71.507809 L52.9855762,71.507809 C53.5637744,71.507809 53.8528758,71.3299017 53.8528758,70.9740871 L53.8528758,70.1735031 L53.8528758,66.5708806 C53.8528758,65.8592514 54.1642118,65.5034367 54.7868886,65.5034367 L55.7876169,65.5034367 C56.4102913,65.5034367 56.9662525,65.4811975 57.4554982,65.4367212 C58.3005585,65.392245 58.8787567,65.3700057 59.1900951,65.3700057 L60.5911143,65.3700057 C61.6140819,65.3700057 62.1255645,65.0141911 62.1255645,64.3025618 L62.1255645,61.9008143 C62.1255645,61.2336613 61.7697499,60.900086 61.0581207,60.900086 L54.7868886,60.900086 C54.0752593,61.0335147 53.7194447,60.8778467 53.7194447,60.4330773 L53.7194447,59.6324955 C53.6749684,59.3656334 53.6527292,59.0542973 53.6527292,58.6984827 C53.6527292,58.4316206 53.763921,58.231474 53.9863045,58.0980453 C54.2531666,57.9201379 54.5200265,57.8311831 54.7868886,57.8311831 L61.1248362,57.8311831 C61.8364654,57.8311831 62.1922801,57.5865603 62.1922801,57.0973169 L62.1922801,54.4287073 C62.1922801,54.1618452 62.0810883,53.8727461 61.8587047,53.5614077 C61.5918426,53.2945479 61.2805042,53.1611168 60.9246896,53.1611168 L57.2553516,53.1611168 Z" id="Shape"></path>
        </g>
    </g>
</svg>