<?xml version="1.0" encoding="utf-8"?>
<!-- Generator: Adobe Illustrator 19.0.0, SVG Export Plug-In . SVG Version: 6.00 Build 0)  -->
<svg version="1.1" id="图形" xmlns="http://www.w3.org/2000/svg" xmlns:xlink="http://www.w3.org/1999/xlink" x="0px" y="0px"
	 viewBox="15.167 -16.333 1000.636 1000.678" enable-background="new 15.167 -16.333 1000.636 1000.678" xml:space="preserve">
<g id="XMLID_1_">
	<path id="XMLID_6_" fill="#B294B2" d="M996.057,747.985c-302.24-170.087-649.756,115.023-856.552,4.895
		c0-140.719,0-259.413,0-419.71c194.56,130.93,522.497-156.627,857.776-40.38C996.057,342.959,996.057,558.32,996.057,747.985z
		 M597.148,340.511c-88.102,0-159.074,70.971-159.074,159.074s70.971,159.074,159.074,159.074s159.074-70.971,159.074-159.074
		S685.251,340.511,597.148,340.511z M655.883,492.243l1.224,20.802l-46.499,2.447l1.224,28.144l46.499-2.447l1.224,20.802
		l-46.499,2.447l2.447,40.38l-25.697,1.224l-2.447-40.38l-47.722,2.447l-1.224-20.802l47.722-2.447l-1.224-28.144l-47.722,2.447
		l-1.224-20.802l40.38-2.447l-53.84-90.55l29.367-1.224l37.933,70.971c2.447,3.671,4.895,8.566,7.342,14.684l0,0
		c1.224-4.895,3.671-11.013,6.118-15.907l31.815-73.419l26.92-1.224l-46.499,95.444L655.883,492.243z"/>
</g>
<g>
	<path fill="#B294B2" d="M126.005,719.096"/>
	<path fill="#B294B2" d="M125.997,699.235"/>
	<polygon fill="#B294B2" points="126,719.094 126.005,719.096 126,719.094 	"/>
</g>
<g>
	<path fill="#B294B2" d="M973.936,252.529c-10.225-4.544-20.675-8.594-31.365-12.151v-60.324l-7.12-1.521
		c-154.885-33.072-291.397,11.859-411.838,51.505c-162.973,53.646-303.72,99.978-439.723-60.753l-15.871-18.756v483.358l3.913,2.608
		c1.887,1.441,10.378,9.606,16.592,15.582c8.691,8.357,13.407,12.842,16.205,15.292v40.279l4.452,2.607
		c10.583,6.197,21.058,11.615,31.468,16.338l-0.003-19.859c-5.938-2.899-11.907-6.043-17.917-9.447V294.403
		c43.947,39.07,95.877,53.373,153.02,53.37c75.655-0.003,160.438-25.077,247.833-50.928
		c147.379-43.596,299.709-88.656,437.699-30.188v15.288l18,5.067v-32.108L973.936,252.529z M924.571,234.925
		c-52.896-14.536-111.604-17.641-177.976-9.511c-76.771,9.401-153.712,32.16-228.12,54.17
		c-80.486,23.808-156.509,46.294-224.811,49.796c-75.099,3.856-130.182-16.014-173.339-62.513l-15.597-16.805v392.623
		c-1.284-1.232-2.548-2.447-3.729-3.583c-7.533-7.243-12.081-11.58-14.981-14.202V198.78c29.617,31.701,60.164,55.268,92.878,71.721
		c35.007,17.605,71.918,26.708,112.843,27.827c2.859,0.078,5.71,0.116,8.578,0.116c73.048-0.003,148.855-24.952,228.923-51.309
		c116.402-38.316,248.079-81.665,395.33-52.466V234.925z"/>
</g>
</svg>
