<?xml version="1.0" standalone="no"?><!DOCTYPE svg PUBLIC "-//W3C//DTD SVG 1.1//EN" "http://www.w3.org/Graphics/SVG/1.1/DTD/svg11.dtd"><svg width="200" height="200" viewBox="0 0 200 200" version="1.1" xmlns="http://www.w3.org/2000/svg" xmlns:xlink="http://www.w3.org/1999/xlink"><defs><style type="text/css"><![CDATA[
@font-face { font-family: ifont; src: url(http://at.alicdn.com/t/font_1442373896_4754455.eot?#iefix) format(embedded-opentype), url(http://at.alicdn.com/t/font_1442373896_4754455.woff) format(woff), url(http://at.alicdn.com/t/font_1442373896_4754455.ttf) format(truetype), url(http://at.alicdn.com/t/font_1442373896_4754455.svg#ifont) format(svg); }

]]></style></defs><g class="transform-group"><g transform="scale(0.1953125, 0.1953125)"><path d="M902.232702 666.12117 902.232702 382.832152l-0.013303-3.264347L902.219399 147.835c0-46.725184-38.012755-84.73794-84.74101-84.73794L206.415187 63.09706c-46.724161 0-84.736916 38.012755-84.736916 84.73794l0.013303 727.983099c0 46.724161 38.012755 84.74101 84.7318 84.74101l285.163715 0c13.031804 0 23.630187-10.598382 23.630187-23.63121 0-13.031804-10.598382-23.630187-23.630187-23.630187L206.415187 913.297712c-20.659529 0-37.471426-16.815991-37.471426-37.480636l0.013303-727.987193c0-20.660552 16.809851-37.47245 37.471426-37.47245l611.06218 0c20.660552 0 37.47245 16.815991 37.47245 37.47245l-0.00921 502.58456L642.063241 650.414443c-27.691689 0-50.212612 22.529109-50.212612 50.217728l0 232.763274c0 17.22429 6.499018 27.506471 17.383926 27.506471 6.502088 0 13.898545-3.960195 21.391193-11.44875l260.260535-260.265652c6.701632-6.700609 10.620895-13.423731 11.320836-19.424398C902.350382 668.536172 902.359592 667.310252 902.232702 666.12117L902.232702 666.12117 902.232702 666.12117zM819.434951 696.074366 637.509529 878.003881 637.509529 700.628078c0-2.425236 2.125407-4.553713 4.553713-4.553713L819.434951 696.074366 819.434951 696.074366 819.434951 696.074366zM242.584967 318.351582l537.803689 0c14.889105 0 27.004027-12.115945 27.004027-27.004027 0-14.893198-12.115945-27.010167-27.004027-27.010167L242.584967 264.337387c-14.897292 0-27.005051 12.116969-27.005051 27.010167C215.579917 306.235636 227.687676 318.351582 242.584967 318.351582L242.584967 318.351582 242.584967 318.351582zM242.584967 519.441483 780.397866 519.441483l0 0c7.187703 0 13.959943-2.816139 19.071358-7.93267 5.112438-5.112438 7.928576-11.886725 7.928576-19.076474 0-14.889105-12.116969-27.005051-27.009144-27.005051L242.584967 465.427288c-14.897292 0-27.005051 12.116969-27.005051 27.005051C215.579917 507.325537 227.687676 519.441483 242.584967 519.441483L242.584967 519.441483 242.584967 519.441483zM242.584967 519.441483" fill="#272636"></path></g></g></svg>