<?xml version="1.0" encoding="utf-8"?>
<!-- Generator: Adobe Illustrator 15.0.0, SVG Export Plug-In . SVG Version: 6.00 Build 0)  -->
<!DOCTYPE svg PUBLIC "-//W3C//DTD SVG 1.1//EN" "http://www.w3.org/Graphics/SVG/1.1/DTD/svg11.dtd">
<svg version="1.1" id="图层_1" xmlns="http://www.w3.org/2000/svg" xmlns:xlink="http://www.w3.org/1999/xlink" x="0px" y="0px"
	 width="56.689px" height="56.689px" viewBox="0 0 56.689 56.689" enable-background="new 0 0 56.689 56.689" xml:space="preserve">
<path fill="#F7B237" d="M48.747,30.699h-9.154l-0.536,0.269l-0.029,1.338l0.269,0.951l-0.117,2.316l-0.27,0.862l0.18,0.715h1.546
	l0.298-0.147h6.421l0.475,0.208l1.07-0.029l0.207-0.326v-4.43l0.12-1.129L48.747,30.699z M46.905,34.92h-5.587v-2.406h5.587V34.92z"
	/>
<polygon fill="#F7B237" points="45.865,44.611 45.455,44.995 45.263,45.718 45.576,46.705 46.538,47.451 47.743,48.076 
	48.657,48.344 49.62,48.294 50.294,47.716 50.535,46.874 50.416,46.561 49.379,46.488 47.719,45.815 46.612,45.043 46.323,44.635 
	"/>
<polygon fill="#F7B237" points="30.628,34.509 30.909,34.196 33.075,34.196 33.075,30.183 35.462,30.183 35.462,31.58 
	35.226,34.226 37.454,34.226 37.454,36.156 35.374,36.156 35.374,39.399 37.396,38.775 37.396,40.499 35.316,41.301 35.316,47.036 
	34.749,47.9 34.067,48.493 31.778,48.493 31.065,47.661 30.947,46.412 31.539,46.412 31.867,46.652 32.641,46.562 33.175,46.027 
	33.175,42.193 31.035,42.847 30.587,42.609 30.587,40.765 30.976,40.527 33.145,40.111 33.145,36.188 31.778,36.188 31.211,36.365 
	30.53,36.188 "/>
<polygon fill="#F7B237" points="38.965,38.13 38.555,38.735 38.731,39.769 38.731,44.625 40.915,44.625 40.915,40.101 
	47.409,40.101 47.409,44.644 49.887,44.644 49.887,40.002 50.159,39.106 50.141,38.775 49.125,38.031 39.051,38.031 "/>
<polygon fill="#F7B237" points="16.821,31.611 16.821,32.79 16.965,33.656 16.965,45.768 13.234,45.768 13.234,37.654 
	13.427,36.691 13.185,36.09 11.091,36.09 10.897,36.474 11.114,38.112 11.114,45.768 8.079,45.768 7.647,46.129 7.647,47.936 
	9.452,47.936 10.777,47.646 21.587,47.646 26.115,48.295 26.814,48.295 27.703,47.262 27.896,46.225 27.896,45.649 27.006,45.839 
	19.349,45.839 19.349,39.387 25.704,39.387 25.704,37.462 19.349,37.462 19.349,33.151 19.638,32.452 19.42,31.634 "/>
<polygon fill="#F7B237" points="43.385,40.758 42.807,41.168 42.71,43.574 42.036,44.972 40.689,45.862 39.074,46.393 
	38.112,46.561 37.318,46.536 37.292,47.139 37.992,48.03 38.932,48.365 40.351,48.365 41.773,47.74 43.193,46.61 44.157,45.283 
	44.758,43.649 45.095,42.42 45.216,41.673 45.216,41.047 44.902,40.781 "/>
<path fill="#F7B237" d="M56.616,35.422c-0.053-1.458-0.232-2.818-0.315-3.763c-0.084-0.941-0.073-1.47-0.156-2.104
	c-0.081-0.635-0.257-1.381-0.229-2.237c0.027-0.855,0.258-1.819,0.351-3.575c0.093-1.755,0.048-4.299,0.03-6.36
	c-0.017-2.063-0.004-3.642-0.02-5.319s-0.06-3.455-0.235-4.936c-0.175-1.481-0.481-2.664-0.922-3.597
	c-0.437-0.933-1.009-1.611-1.753-2.071c-0.746-0.461-1.667-0.702-4.015-0.823c-2.349-0.121-6.12-0.121-8.356,0.021
	C38.758,0.8,38.057,1.085,37.53,1.415c-0.526,0.327-0.877,0.702-0.921,1.117c-0.046,0.417,0.22,0.878,2.183,1.108
	c1.963,0.229,5.625,0.229,7.863,0.252c2.236,0.021,3.048,0.066,3.661,0.242c0.615,0.174,1.031,0.482,1.382,1.304
	c0.352,0.82,0.634,2.155,0.87,7.496c0.236,5.34,0.423,14.685,0.492,21.571s0.023,11.313-0.159,13.857
	c-0.181,2.546-0.496,3.209-0.992,3.693c-0.495,0.485-1.17,0.793-8.33,0.946c-7.162,0.154-20.807,0.154-28.004,0.154
	c-7.198,0-7.943,0-8.601-0.122c-0.66-0.118-1.229-0.36-1.635-0.877c-0.406-0.515-0.646-1.304-0.801-3.813
	c-0.153-2.513-0.22-6.745-0.252-10.463c-0.034-3.72-0.034-6.92-0.121-8.72c-0.087-1.799-0.263-2.193-0.669-2.391
	c-0.405-0.197-1.042-0.199-1.492,0.011c-0.448,0.209-0.712,0.625-0.865,1.054c-0.154,0.428-0.197,0.866-0.274,2.457
	c-0.076,1.59-0.187,4.333-0.153,7.237c0.032,2.907,0.208,5.979,0.373,8.291c0.165,2.314,0.316,3.872,0.613,5.155
	c0.297,1.282,0.735,2.292,1.283,3.005c0.549,0.713,1.208,1.13,1.943,1.394c0.733,0.263,1.547,0.372,2.841,0.48
	c1.292,0.11,3.069,0.221,4.704,0.265c1.634,0.044,3.125,0.021,4.957-0.055s4.003-0.208,5.637-0.22
	c1.635-0.01,2.73,0.099,4.902,0.166c2.171,0.064,5.417,0.087,7.743,0.097c2.324,0.014,3.729,0.014,5.012-0.107
	s2.445-0.362,4.003-0.351c1.557,0.01,3.51,0.273,5.056,0.361c1.547,0.087,2.688,0,3.576-0.165c0.888-0.164,1.523-0.405,1.986-0.887
	c0.46-0.484,0.745-1.208,0.912-2.326c0.168-1.118,0.219-2.632,0.213-4.441c-0.007-1.809-0.066-3.915-0.066-5.33
	s0.062-2.138,0.129-3.278C56.594,38.438,56.668,36.88,56.616,35.422z"/>
<path fill="#F7B237" d="M33.488,2.647c-0.037-0.474-0.28-1.051-0.985-1.417c-0.706-0.367-1.87-0.523-4.173-0.611
	c-2.303-0.086-5.743-0.101-7.765,0.037c-2.022,0.138-2.626,0.425-5.325,0.568C12.54,1.366,7.747,1.366,5.203,1.565
	C2.659,1.764,2.362,2.161,2.078,2.573c-0.28,0.413-0.548,0.839-0.894,1.925C0.839,5.581,0.411,7.322,0.207,9.694
	s-0.186,5.375-0.034,7.719c0.149,2.346,0.435,4.032,0.905,5.072s1.127,1.432,1.616,1.537c0.489,0.107,0.809-0.071,0.996-1.269
	c0.186-1.2,0.24-3.42,0.188-5.947c-0.051-2.525-0.204-5.355-0.203-7.368C3.678,7.427,3.834,6.232,4.03,5.461
	c0.194-0.771,0.424-1.116,2.129-1.287c1.705-0.173,4.886-0.173,7.383-0.231c2.496-0.057,4.31-0.173,6.642-0.043
	c2.333,0.129,5.181,0.503,7.433,0.54c2.252,0.036,3.908-0.266,4.82-0.604C33.352,3.497,33.525,3.123,33.488,2.647z"/>
<polygon fill="#F7B237" points="9.427,9.364 8.897,9.998 8.897,12.166 10.641,11.69 15.982,11.531 13.496,15.338 11.012,17.876 
	9.427,19.039 8.052,19.619 7.311,19.619 7.311,20.201 8.052,21.207 9.372,21.841 10.589,21.841 11.646,20.837 14.449,18.088 
	16.194,15.603 16.194,23.798 16.194,25.49 18.573,25.49 18.573,14.491 18.203,14.122 17.093,14.227 17.886,12.641 18.308,11.531 
	22.908,11.531 24.123,12.006 25.552,12.219 26.503,12.006 27.033,11.055 27.404,9.945 27.404,9.364 "/>
<polygon fill="#F7B237" points="20.424,15.338 21.429,15.338 22.115,16.185 24.389,18.088 26.292,18.775 27.085,19.251 
	26.822,19.885 25.765,21.048 24.971,21.048 24.123,21.048 22.063,19.357 20.424,17.083 19.948,15.92 19.948,15.603 "/>
<polygon fill="#F7B237" points="32.998,9.178 32.628,9.178 32.628,10.818 38.869,10.818 38.869,11.61 32.628,11.61 31.784,12.033 
	31.784,12.457 32.049,12.775 32.018,15.889 33.845,15.91 33.869,13.156 38.869,13.196 38.869,16.527 40.877,16.527 40.877,13.144 
	46.008,13.14 46.008,15.889 47.909,15.945 47.909,12.853 48.227,12.244 47.327,11.505 40.877,11.505 40.948,10.757 47.171,10.734 
	47.223,9.178 "/>
<polygon fill="#F7B237" points="34.744,13.831 34.481,13.831 34.481,14.993 38.286,14.993 38.286,13.831 "/>
<polygon fill="#F7B237" points="34.744,15.682 34.481,15.945 34.481,16.793 38.286,16.793 38.286,15.682 "/>
<polygon fill="#F7B237" points="41.936,13.831 41.618,14.044 41.618,14.993 45.478,14.993 45.478,13.831 "/>
<polygon fill="#F7B237" points="41.989,15.682 41.618,15.893 41.618,16.793 45.478,16.793 45.478,15.682 "/>
<polygon fill="#F7B237" points="30.987,17.268 30.51,17.692 30.51,19.066 31.886,19.066 32.466,18.801 38.389,18.801 38.389,19.699 
	34.45,19.699 33.525,19.699 32.783,20.123 32.995,20.969 32.89,25.674 34.868,25.674 34.899,21.762 37.014,21.762 37.014,25.674 
	38.865,25.674 38.865,21.762 40.821,21.709 40.821,25.674 42.669,25.674 42.669,21.762 44.945,21.762 44.945,25.674 47.113,25.674 
	47.113,21.074 47.377,20.335 46.055,19.648 45.314,19.809 40.381,19.783 40.451,18.748 45.314,18.748 46.691,19.117 48.381,19.117 
	49.281,18.219 49.281,17.268 "/>
</svg>
