<?xml version="1.0" encoding="utf-8"?>
<!-- Generator: Adobe Illustrator 15.0.0, SVG Export Plug-In . SVG Version: 6.00 Build 0)  -->
<!DOCTYPE svg PUBLIC "-//W3C//DTD SVG 1.1//EN" "http://www.w3.org/Graphics/SVG/1.1/DTD/svg11.dtd">
<svg version="1.1" id="Default" xmlns="http://www.w3.org/2000/svg" xmlns:xlink="http://www.w3.org/1999/xlink" x="0px" y="0px"
	 width="16px" height="16px" viewBox="0 0 16 16" enable-background="new 0 0 16 16" xml:space="preserve">
<polygon fill="#999999" points="4.144,13.02 10.544,3.086 11.734,3.086 5.334,13.02 "/>
<path fill="#999999" d="M2.734,5.606c0-0.812,0.218-1.457,0.653-1.936c0.435-0.479,1.022-0.718,1.76-0.718
	c0.708,0,1.261,0.22,1.658,0.66S7.4,4.666,7.4,5.452c0,0.782-0.219,1.417-0.657,1.904S5.725,8.086,5,8.086
	c-0.687,0-1.236-0.226-1.648-0.679C2.94,6.954,2.734,6.354,2.734,5.606z M3.734,5.606c0,0.254,0.031,0.511,0.123,0.747
	c0.039,0.1,0.089,0.195,0.152,0.283C4.108,6.772,4.24,6.888,4.39,6.963c0.187,0.093,0.4,0.123,0.611,0.123
	c0.126,0,0.252-0.01,0.375-0.037c0.156-0.035,0.308-0.097,0.438-0.19c0.113-0.08,0.211-0.183,0.29-0.296
	c0.159-0.23,0.241-0.504,0.278-0.783C6.43,5.423,6.403,5.06,6.298,4.715c-0.031-0.1-0.068-0.199-0.122-0.288
	C6.101,4.303,5.993,4.197,5.87,4.122C5.692,4.013,5.482,3.968,5.272,3.956C5.126,3.947,4.979,3.954,4.835,3.977
	C4.71,3.997,4.588,4.029,4.474,4.083C4.38,4.127,4.292,4.186,4.214,4.255c-0.158,0.14-0.273,0.324-0.349,0.521
	C3.764,5.038,3.734,5.324,3.734,5.606z"/>
<path fill="#999999" d="M8.667,10.682c0-0.809,0.218-1.455,0.653-1.938c0.437-0.483,1.021-0.725,1.757-0.725
	c0.705,0,1.257,0.22,1.657,0.661c0.398,0.441,0.6,1.062,0.6,1.861c0,0.775-0.223,1.404-0.664,1.887
	c-0.443,0.483-1.021,0.725-1.734,0.725c-0.691,0-1.242-0.229-1.652-0.687C8.873,12.009,8.667,11.414,8.667,10.682z M9.667,10.682
	c0,0.254,0.033,0.51,0.128,0.744c0.042,0.106,0.098,0.208,0.168,0.299c0.116,0.15,0.271,0.271,0.447,0.342
	c0.188,0.076,0.396,0.092,0.602,0.084c0.131-0.006,0.26-0.021,0.383-0.058c0.185-0.055,0.355-0.159,0.494-0.294
	c0.2-0.195,0.329-0.458,0.391-0.73c0.033-0.139,0.047-0.282,0.052-0.426c0.003-0.098,0.002-0.195-0.003-0.293
	c-0.01-0.168-0.032-0.336-0.076-0.498c-0.031-0.112-0.072-0.223-0.131-0.324c-0.073-0.127-0.174-0.241-0.294-0.322
	c-0.181-0.122-0.405-0.169-0.625-0.184c-0.152-0.01-0.304-0.004-0.452,0.023c-0.158,0.029-0.314,0.081-0.45,0.165
	c-0.219,0.138-0.383,0.356-0.483,0.599C9.701,10.084,9.667,10.384,9.667,10.682z"/>
<path fill="#999999" d="M0,16V0h16v16H0z M1,15h14V1H1V15z"/>
</svg>
