<?xml version="1.0" encoding="UTF-8" standalone="no"?>
<svg width="100px" height="100px" viewBox="0 0 100 100" version="1.1" xmlns="http://www.w3.org/2000/svg" xmlns:xlink="http://www.w3.org/1999/xlink">
    <!-- Generator: Sketch 39.1 (31720) - http://www.bohemiancoding.com/sketch -->
    <title>Slice</title>
    <desc>Created with Sketch.</desc>
    <defs></defs>
    <g id="Page-1" stroke="none" stroke-width="1" fill="none" fill-rule="evenodd">
        <g id="e60f" fill="#B695B8">
            <path d="M63.3587919,10.4217289 C64.964765,10.7845124 66.3152434,11.6551949 67.4102272,13.0337766 C68.505211,14.4123583 69.1257027,16.1537234 69.2716985,18.257872 C69.2716985,18.838327 69.2899489,19.8178454 69.326446,21.1964271 C69.3629468,22.5750087 69.3811973,24.0080064 69.3811973,25.4954201 C69.3811973,26.9828376 69.3446964,28.3251394 69.2716985,29.5223293 C69.1987006,30.7195155 69.0162039,31.4632261 68.7242085,31.7534536 C68.2862135,32.261349 67.8664689,32.4971605 67.4649784,32.4608807 C67.0634842,32.4246045 66.8627371,32.5878564 66.8627371,32.9506398 C66.8627371,33.1683114 66.8079859,33.9120183 66.6984871,35.1817641 C66.5889921,36.45151 66.2787463,38.2472949 65.7677533,40.5691151 C65.4757579,41.7300252 65.0742637,42.8002357 64.5632708,43.779754 C64.0522816,44.7592724 63.5047878,45.611815 62.9207969,46.3373857 C62.1908102,47.2080682 61.4608198,48.0061949 60.7308331,48.7317618 C60.6578314,49.6750003 60.6213343,50.5456829 60.6213343,51.3438095 L60.6213343,53.6293498 C60.6213343,54.3549205 60.6578314,54.9353755 60.7308331,55.370715 C60.803831,56.2414013 61.0228285,56.8581324 61.3878218,57.2209159 C61.7528152,57.5837031 62.4828056,57.9102067 63.5777857,58.2004342 C63.9427828,58.3455499 64.5815212,58.5450815 65.4940083,58.7990292 C66.4064917,59.0529769 67.5014755,59.4157641 68.778956,59.8873833 C70.0564365,60.3590026 71.3886645,60.8487618 72.7756437,61.3566609 C74.0896213,61.7920003 75.4401034,62.2636195 76.8270789,62.7715186 C78.0680623,63.2068618 79.1995432,63.6422012 80.2215291,64.0775406 C81.2435112,64.4403278 82.0099988,64.7305553 82.5209917,64.9482269 C83.9079709,65.6737939 84.8387047,66.4175007 85.3131968,67.1793475 C85.787689,67.941198 86.2074336,68.9388526 86.5724269,70.1723223 C86.7184265,70.8253333 86.9009232,71.9862434 87.1199207,73.6550526 C87.3389145,75.323858 87.5944128,77.101503 87.8864082,78.98798 C88.1784037,80.8019048 88.4156478,82.52513 88.5981445,84.1576594 C88.7806449,85.7901887 88.9083904,86.8241231 88.981392,87.2594663 C89.05439,88.2027048 88.89014,88.9826915 88.4886495,89.5994264 C88.0871553,90.2161575 87.1929186,90.7059167 85.8059394,91.0687039 C84.5649597,91.3589277 82.7947367,91.6672951 80.4952741,91.9938025 C78.1958077,92.3203098 75.5131013,92.6286736 72.4471474,92.9189011 C69.3811973,93.2091286 66.0050012,93.4449401 62.3185556,93.6263318 C58.6321138,93.8077236 54.7631752,93.8984194 50.71174,93.8984194 C46.6603011,93.8984194 42.7913625,93.8258635 39.1049207,93.6807479 C35.4184788,93.535636 32.0240324,93.3361043 28.9215814,93.0821566 C25.8191267,92.8282052 23.0634223,92.5379777 20.654461,92.2114741 C18.2454958,91.8849667 16.3840245,91.5403231 15.0700469,91.177536 C14.7780515,91.10498 14.4130581,90.9598681 13.9750631,90.7421965 C13.5370718,90.524525 13.1173272,90.2705773 12.7158331,89.9803498 C12.3143389,89.6901222 12.004093,89.3091988 11.7850993,88.8375796 C11.5661017,88.3659566 11.4931038,87.8399213 11.5661017,87.2594663 C11.6390997,86.7515672 11.8398468,85.6269369 12.168343,83.8855718 C12.4968355,82.1442067 12.8800793,80.2940057 13.3180743,78.334969 C13.7560656,76.448492 14.1575598,74.5982911 14.5225532,72.7843663 C14.8875502,71.0430012 15.1430449,69.9546507 15.2890444,69.5193076 C15.5810399,68.648625 15.9825341,67.7598025 16.4935233,66.8528439 C17.0045162,65.9458815 17.9170033,64.984503 19.2309809,63.9687086 C19.8879697,63.5333654 21.0559514,63.0254663 22.7349261,62.4450113 C24.4139007,61.8645562 26.1841238,61.320381 28.0455951,60.8124819 C29.9070627,60.3045866 31.6590353,59.8873833 33.3015129,59.560876 C34.9439867,59.2343723 36.0207201,58.9985609 36.5317093,58.8534452 C37.6266931,58.6357774 38.5756773,58.3636898 39.3786657,58.0371824 C40.1816541,57.7106751 40.5831483,57.2571957 40.5831483,56.6767407 L40.5831483,50.4731269 C39.7801599,49.8926719 39.0136723,49.2033811 38.2836819,48.4052544 C37.699691,47.7522435 37.0792031,46.9903967 36.4222143,46.1197141 C35.7652218,45.2490315 35.1812309,44.305793 34.6702417,43.2899948 C33.7212537,41.4035178 33.1007658,39.6621527 32.8087703,38.0658994 C32.5167749,36.4696499 32.3342782,35.5264114 32.2612766,35.2361839 C32.1882787,34.9459564 31.9145336,34.7101449 31.4400415,34.5287531 C30.9655494,34.3473614 30.6188027,33.966438 30.3998052,33.385983 C29.8158144,32.2250729 29.5420694,30.9734669 29.5785702,29.6311651 C29.6150673,28.2888596 29.7063156,26.3479628 29.8523152,23.8084748 C30.0713127,21.341539 30.4910536,18.9834427 31.1115453,16.7341784 C31.732037,14.4849142 33.064265,12.3807656 35.108233,10.4217289 C36.2032168,9.55104634 37.6449435,8.80733948 39.4334169,8.1906046 C41.2218866,7.57387344 43.0286105,7.12039038 44.853581,6.83016286 C46.6785515,6.53993534 48.4305241,6.39482343 50.1094988,6.39482343 C51.7884734,6.39482343 53.0659502,6.50365922 53.9419402,6.72132707 C54.8909244,7.0115546 55.6391615,7.31992204 56.1866516,7.64642939 C56.7341453,7.97293303 57.1721366,8.28130047 57.5006329,8.57152799 C57.8291292,8.86175551 58.1028742,9.13384312 58.3218679,9.38779452 C58.5408654,9.64174221 58.759863,9.84127386 58.9788605,9.98638948 C59.3438538,10.276617 59.8000955,10.3673129 60.3475893,10.2584771 C60.8950793,10.1496413 61.8988148,10.2040573 63.3587919,10.4217289 L63.3587919,10.4217289 Z M53.5039452,68.648625 L56.3509016,79.7498268 L61.0593256,67.2337673 L56.5698953,63.9687086 L53.5039452,68.648625 Z M45.839066,63.751037 L41.5686333,67.2337673 L46.3865561,79.7498268 L48.9050162,68.5397892 L45.839066,63.751037 Z M83.8349693,22.2847775 C84.8569551,22.4298931 85.6599435,22.9196523 86.2439344,23.754055 C86.8279252,24.5884614 87.1564178,25.6223958 87.2294194,26.8558619 C87.2294194,27.2186491 87.2659165,27.7991041 87.3389145,28.597227 C87.4119161,29.3953536 87.4484132,30.2297564 87.4484132,31.1004389 C87.4484132,31.9711215 87.4119161,32.7692481 87.3389145,33.4948188 C87.2659165,34.2203857 87.1564178,34.6557288 87.0104219,34.8008408 C86.7914244,35.0910683 86.5541765,35.218044 86.2986819,35.1817641 C86.0431873,35.145488 85.9154381,35.27246 85.9154381,35.5626875 C85.9154381,35.7078031 85.8971877,36.1431426 85.8606906,36.8687132 C85.8241898,37.5942802 85.6234427,38.6826343 85.2584493,40.1337719 C85.1124498,40.8593389 84.893456,41.4942137 84.6014568,42.0383889 C84.3094651,42.5825678 83.9809689,43.072327 83.6159755,43.5076664 C83.2509784,44.0155655 82.8494842,44.4871848 82.4114929,44.9225242 C82.338495,45.4304233 82.3019942,45.9383224 82.3019942,46.4462215 L82.3019942,48.9494334 C82.3749921,49.4573325 82.5027413,49.801976 82.685238,49.9833678 C82.8677346,50.1647595 83.2874792,50.328015 83.944468,50.4731269 C84.2364635,50.5456829 84.9117027,50.7633545 85.9701856,51.1261379 C87.0286723,51.4889251 88.1784037,51.8879847 89.4193833,52.3233279 C90.660363,52.758671 91.8283447,53.1940104 92.9233285,53.6293498 C94.0183123,54.064693 94.7847998,54.3912003 95.2227911,54.6088682 C96.0257795,54.9716554 96.5915199,55.3888549 96.9200162,55.8604741 C97.2485125,56.3320971 97.4857566,56.9669682 97.6317562,57.7650948 C97.7047542,58.1278783 97.8142529,58.7808893 97.9602488,59.7241315 C98.1062483,60.739926 98.2522442,61.8101402 98.3982438,62.9347705 C98.5442396,64.0594044 98.6902392,65.0933388 98.836235,66.0365773 C98.9822346,66.9798159 99.0552326,67.5602709 99.0552326,67.7779425 C99.1282305,68.3583975 99.0369821,68.8481567 98.7814875,69.24722 C98.5259892,69.6462833 97.9602488,69.9183709 97.0842625,70.0634865 L94.3468048,70.6076617 C93.1788231,70.8253333 91.6823488,71.006725 89.8573746,71.1518369 C89.7113787,70.2811544 89.4923812,69.4467516 89.2003858,68.648625 C88.981392,67.995614 88.7258937,67.2700471 88.4338983,66.4719205 C88.1419028,65.6737939 87.7769095,64.984503 87.3389145,64.404048 C86.6089277,63.3882535 85.8059394,62.5538471 84.9299531,61.9008361 C84.0539668,61.2478251 83.1962309,60.7036462 82.3567454,60.2683067 C81.5172562,59.8329636 80.6595203,59.5064599 79.7835341,59.2887884 C78.9075478,59.0711168 78.0680623,58.8171691 77.2650739,58.5269416 C73.6151292,57.2209159 70.6769282,56.3139572 68.4504597,55.8060581 C66.223995,55.298159 65.0012658,54.8990957 64.7822683,54.6088682 C64.6362724,54.3912003 64.5450241,54.1372489 64.5085233,53.8470214 C64.4720224,53.5567939 64.4537757,53.2302903 64.4537757,52.8675031 C64.4537757,52.5047196 64.4902728,52.1056563 64.5632708,51.6703169 C65.5122587,51.3800893 66.2422454,51.1986976 66.7532384,51.1261379 C67.2642313,51.053582 67.6657218,50.981026 67.9577209,50.9084701 C68.5417118,50.7633545 69.0709514,50.6001026 69.5454435,50.4187109 C70.0199356,50.2373192 70.2571836,50.0015077 70.2571836,49.7112802 L70.2571836,45.9020425 L70.038186,45.7932105 L69.6001948,45.6843747 C69.4541952,45.611815 69.3446964,45.4304233 69.2716985,45.1401958 C69.6366919,44.1969572 70.038186,43.072327 70.4761811,41.7663013 C70.8411744,40.6779471 71.2244182,39.3175054 71.6259124,37.6849761 C72.0274066,36.0524467 72.3741495,34.1115499 72.6661449,31.8622894 C72.8851424,30.0483646 73.0311383,28.4339752 73.10414,27.0191174 C73.1771379,25.6042559 73.2136387,24.3889298 73.2136387,23.3731316 L73.2136387,19.9992371 C74.0166233,19.8541252 74.91086,19.7815656 75.8963451,19.7815656 C76.8818301,19.7815656 77.6300673,19.8541252 78.1410602,19.9992371 C79.3820399,20.3620206 80.130277,20.7248078 80.3857753,21.0875913 C80.6412699,21.4503747 80.915015,21.7406023 81.2070104,21.9582738 C81.4990058,22.1033857 81.8092517,22.1578055 82.1377479,22.1215257 C82.4662404,22.0852495 83.0319846,22.1396656 83.8349693,22.2847775 L83.8349693,22.2847775 Z M78.3600577,56.2414013 L79.1265453,59.0711168 L81.0975116,59.7241315 L82.6304904,55.9148939 L80.3310241,54.064693 L78.3600577,56.2414013 Z M74.8561125,56.3502333 L74.4181175,57.5474232 L71.1331699,56.5679049 L71.0236711,56.1325655 L72.8851424,54.3912003 L74.8561125,56.3502333 Z M25.362885,19.8904013 C25.1438875,21.6317665 25.0343887,23.3731316 25.0343887,25.1144967 C24.9613908,26.638194 24.9978916,28.3069995 25.1438875,30.1209243 C25.289887,31.9348454 25.5453816,33.6762105 25.9103787,35.3450197 C26.2023704,36.5059298 26.5856179,37.6486999 27.06011,38.7733302 C27.5346022,39.8979604 28.0273447,40.8593389 28.5383339,41.6574655 C29.0493268,42.6732637 29.5968206,43.6165022 30.1808115,44.4871848 C30.1078098,44.9950839 30.0713127,45.3941472 30.0713127,45.6843747 C29.9983148,46.0471582 29.961814,46.4099416 29.961814,46.7727251 L29.961814,47.8610792 C29.961814,48.5140902 29.9983148,49.0401292 30.0713127,49.4391925 C30.1443106,49.8382559 30.4728069,50.1103435 31.0567978,50.2554554 C31.3487932,50.400571 31.7502874,50.5456829 32.2612766,50.6907985 L33.6847566,51.1261379 C34.2687475,51.3438095 34.8892355,51.5614811 35.5462243,51.7791526 L35.5462243,52.1056563 C35.5462243,52.2507719 35.5279776,52.4140237 35.4914767,52.5954155 C35.4549759,52.7768072 35.4367292,53.0126187 35.4367292,53.3028462 C35.3637276,53.8833012 35.0534855,54.2460847 34.5059917,54.3912003 C33.9585017,54.5363122 33.3197596,54.645148 32.5897728,54.717704 L31.494789,54.9353755 C31.1297957,55.0079315 30.8012994,55.0804912 30.509304,55.1530471 C30.2173086,55.2256031 29.888816,55.298159 29.5238189,55.370715 L27.7718463,53.9558572 L25.6913812,56.2414013 C25.5453816,56.2414013 25.3993858,56.2776774 25.2533862,56.3502333 C24.9613908,56.4953489 24.7788941,56.5679049 24.7058962,56.5679049 L23.3919149,56.8944122 L20.8734547,54.1735288 L18.5739921,55.9148939 L19.6689759,58.6357774 C18.64699,59.1436765 17.6980058,59.7241315 16.8220195,60.3771425 L14.4130581,62.1185076 C13.6100698,62.7715186 12.9165801,63.3882535 12.3325893,63.9687086 C11.7485984,64.6942755 11.2741063,65.4561223 10.909113,66.2542489 C10.5441159,67.0523755 10.2521204,67.8142223 10.0331267,68.5397892 C9.74113123,69.4104718 9.52213372,70.2811544 9.37613414,71.1518369 C8.50014784,71.079281 7.69716321,70.9704452 6.96717276,70.8253333 C6.23718605,70.6802177 5.48894518,70.5713819 4.72245764,70.4988259 C3.9559701,70.42627 3.31723173,70.3174342 2.80623879,70.1723223 C1.85725457,69.9546507 1.29151038,69.4648916 1.1090137,68.7030448 C0.926517027,67.941198 0.908266611,67.1974874 1.0542662,66.4719205 C1.20026204,65.7463498 1.45576038,64.5491636 1.82075374,62.8803544 C2.18574709,61.1389893 2.47774252,59.7241315 2.69674003,58.6357774 C3.13473505,56.1688416 4.41221179,54.4637563 6.52918148,53.5205178 C7.04017068,53.3028462 7.78841154,53.0488948 8.77389659,52.758671 C9.75937791,52.4684398 10.7266163,52.2144921 11.6756005,51.9968205 C12.2595914,51.8517086 13.1355777,51.5977609 14.3035594,51.2349737 L16.055532,50.7996343 C16.7855187,50.6545187 17.2782612,50.454987 17.5337596,50.2010393 C17.7892542,49.9470916 17.9535004,49.6024444 18.0264983,49.1671049 L18.0264983,47.316904 L18.0264983,46.0108783 C17.5885071,45.7206508 17.2235137,45.3941472 16.9315183,45.03136 C16.6395228,44.6685765 16.3475274,44.3239329 16.055532,43.9974256 C15.7635365,43.6709182 15.5080382,43.3262747 15.2890444,42.9634912 C14.8510494,42.3830362 14.4313048,41.6574655 14.0298144,40.7867829 C13.6283202,39.9161004 13.3910723,39.0091417 13.3180743,38.0658994 C13.1720748,37.1952169 13.0260789,36.7417375 12.8800793,36.7054577 C12.7340835,36.6691816 12.5515868,36.5784857 12.3325893,36.4333701 C12.1135918,36.2882582 11.9675959,36.1068665 11.894598,35.8891949 C11.8215963,35.6715233 11.730348,35.27246 11.6208493,34.692005 C11.5113505,34.1115499 11.456603,33.4585389 11.456603,32.7329683 C11.5296009,31.9348454 11.6025988,31.1004389 11.6756005,30.2297564 C11.6756005,29.7944169 11.7120976,29.2321018 11.7850993,28.542811 C11.8580972,27.8535201 12.0223434,27.0916734 12.2778418,26.2572669 C12.5333364,25.4228642 12.9165801,24.6247376 13.4275731,23.8628908 C13.9385623,23.101044 14.6320519,22.4298931 15.5080382,21.849438 C16.4570262,21.1238674 17.5155091,20.615972 18.6834909,20.3257445 C19.8514726,20.035517 20.9464527,19.8541252 21.9684385,19.7815656 C23.1364203,19.7090096 24.2679012,19.7452894 25.362885,19.8904013 L25.362885,19.8904013 Z" id="Shape"></path>
        </g>
    </g>
</svg>