<?xml version="1.0" encoding="utf-8"?>
<!-- Generator: Adobe Illustrator 19.0.0, SVG Export Plug-In . SVG Version: 6.00 Build 0)  -->
<svg version="1.1" id="图层_1" xmlns="http://www.w3.org/2000/svg" xmlns:xlink="http://www.w3.org/1999/xlink" x="0px" y="0px"
	 viewBox="0 0 80 55" style="enable-background:new 0 0 80 55;" xml:space="preserve">
<style type="text/css">
	.st0{fill:#EA5B59;}
</style>
<g id="XMLID_17_">
</g>
<g id="XMLID_22_">
</g>
<g id="XMLID_23_">
</g>
<g id="XMLID_24_">
</g>
<g id="XMLID_35_">
</g>
<g id="XMLID_36_">
</g>
<g>
	<polygon class="st0" points="18.1,47.2 18.1,47.2 18,47.2 	"/>
	<g>
		<path class="st0" d="M78.6,13.8c-1.1-0.5-2.1-0.8-3.2-1.1c0,0,0,0,0,0v-4c0,0,0,0,0,0c-1-0.4-2.1-0.8-3.1-1.1c0,0,0,0,0,0v-6
			c0,0,0,0,0,0C40.8-3.3,36.2,27,2.3,0.3c0,0,0,0,0,0v38.7c0,0,0,0,0,0c1,0.8,2,1.5,3.1,2.1c0,0,0,0,0,0V46c0,0,0,0,0,0
			c1,0.9,2.1,1.6,3.2,2.2c0,0,0,0,0,0v3.1c0,0,0,0,0,0C26,62.8,55.2,35.5,78.5,52c0,0,0,0,0,0L78.6,13.8
			C78.6,13.8,78.6,13.8,78.6,13.8z M5.4,7.3V38c-0.4-0.2-0.7-0.5-1.1-0.7c0,0,0,0,0,0V4.6c0,0,0,0,0,0c33,23,38.9-5.1,65.9-1.3
			c0,0,0,0,0,0V7c0,0,0,0,0,0C49.5,3.5,30.4,30.4,5.4,7.3C5.4,7.3,5.4,7.3,5.4,7.3z M8.3,17.9c0,0.3,0,0.6,0,1c0,0.9,0,1.8,0,2.7
			c0,0.3,0,0.5,0,0.8c0,1.6,0,3.3,0.1,4.9c0,1.3,0,2.6,0,3.9c0,0.6,0,1.2,0,1.8c0,1.1,0,2.3,0,3.4c0,0.5,0,1,0,1.5
			c0,0.6,0,1.1,0,1.7l0,2.8v0c0,0.7,0,1.5,0,2.2c0,0.2,0,0.4,0,0.6c-0.6-0.3-1.1-0.7-1.2-0.8c0,0,0,0,0,0v-2.4c0-1,0-1.9,0-2.9
			c0-9,0-17.1,0-27.5c0.4,0.3,0.8,0.6,1.3,0.9c0.7,0.5,1.5,1,2.5,1.7c0.8,0.5,1.6,1,2.4,1.4c0.7,0.4,1.4,0.7,2.2,1
			c0.2,0.1,0.5,0.2,0.7,0.3c0.5,0.2,1,0.4,1.4,0.5c0.3,0.1,0.5,0.2,0.8,0.3c0.4,0.1,0.9,0.3,1.3,0.4c0.3,0.1,0.6,0.1,0.8,0.2
			c0.4,0.1,0.8,0.2,1.2,0.3c0.3,0.1,0.6,0.1,0.8,0.1c0.4,0.1,0.8,0.1,1.2,0.2c0.3,0,0.5,0.1,0.8,0.1c0.4,0,0.8,0.1,1.2,0.1
			c0.3,0,0.5,0,0.8,0c0.4,0,0.8,0,1.2,0c0.3,0,0.5,0,0.7,0c0.4,0,0.8,0,1.2-0.1c0.2,0,0.5,0,0.7-0.1c0.4,0,0.8-0.1,1.3-0.2
			c0.2,0,0.4-0.1,0.6-0.1c0.4-0.1,0.9-0.2,1.3-0.2c0.2,0,0.3-0.1,0.5-0.1c0.5-0.1,1-0.2,1.4-0.3c0.1,0,0.3-0.1,0.4-0.1
			c0.5-0.1,1.1-0.3,1.6-0.5c0.1,0,0.1,0,0.2,0c7.1-2.1,13.7-5.7,20.3-7.5c2.3-0.6,4.6-1.1,6.9-1.1c0,0,0,0,0,0c0.5,0,1.1,0,1.6,0
			c0,0,0,0,0.1,0c0.5,0,1.1,0.1,1.6,0.1c0,0,0,0,0,0c0.5,0.1,1.1,0.2,1.6,0.3c0,0,0,0,0,0c0.7,0.1,1.3,0.3,2,0.5
			c0.4,0.1,0.7,0.2,1.1,0.4c0,0,0,0.1,0,0.1v2.1c0,0,0,0,0,0l0,0.1c0,0,0.1,0,0,0c-23.8-4.1-42.6,22-65,1.9
			C8.3,15.5,8.3,16.7,8.3,17.9z M76.6,48.3C76.6,48.3,76.6,48.3,76.6,48.3c-22-13.7-49.2,11.4-66,1.4c0-0.2,0-0.4,0-0.6v-3
			c0,0,0,0,0,0c0-1.2,0-2.3,0-3.4c0-0.9,0-1.9,0-2.8c0-3.8-0.1-7.5-0.1-11.2c0-1.4,0-2.8,0-4.2c0-0.4,0-0.8,0-1.3c0-1.6,0-3.2,0-4.9
			c0.6,0.5,1.2,0.9,1.8,1.3c0,0,0.1,0.1,0.1,0.1c0.6,0.4,1.1,0.7,1.7,1.1c0.1,0,0.1,0.1,0.2,0.1c0.5,0.3,1.1,0.6,1.6,0.8
			c0.1,0,0.2,0.1,0.2,0.1c0.5,0.2,1.1,0.5,1.6,0.7c0.1,0,0.2,0.1,0.3,0.1c0.5,0.2,1.1,0.4,1.6,0.5c0.1,0,0.2,0,0.3,0.1
			c0.5,0.1,1.1,0.3,1.6,0.4c0.1,0,0.2,0,0.3,0c0.5,0.1,1.1,0.2,1.6,0.2c0.1,0,0.2,0,0.2,0C24,24,24.6,24,25.1,24c0.1,0,0.1,0,0.2,0
			c0.6,0,1.1,0,1.7,0c0.1,0,0.1,0,0.2,0c0.6,0,1.1-0.1,1.7-0.1c0,0,0.1,0,0.1,0c0.6-0.1,1.1-0.1,1.7-0.2c0.1,0,0.1,0,0.2,0
			c0.5-0.1,1.1-0.2,1.6-0.3c0.1,0,0.2,0,0.3-0.1c0.5-0.1,1-0.2,1.6-0.3c0.1,0,0.3-0.1,0.4-0.1c0.5-0.1,1-0.2,1.5-0.4
			c0.1,0,0.3-0.1,0.4-0.1c0.5-0.1,1-0.3,1.5-0.4c0.2-0.1,0.3-0.1,0.5-0.2c0.5-0.1,0.9-0.3,1.4-0.4c0.2-0.1,0.4-0.1,0.6-0.2
			c0.4-0.1,0.8-0.3,1.3-0.4c0.3-0.1,0.6-0.2,0.8-0.3c0.2-0.1,0.4-0.1,0.6-0.2c8-2.8,16-6.3,23.7-6.5c0.5,0,1,0,1.5,0
			c0.5,0,1.1,0,1.6,0.1c0,0,0,0,0,0c0,0,0,0,0,0l2,0.3l0,0c0,0,0,0,0,0c0.4,0.1,0.7,0.1,1.1,0.2l2,0.6c0.4,0.1,0.8,0.3,1.2,0.4
			c0,0,0,0,0,0V48.3z"/>
		<path class="st0" d="M73.4,12.3L73.4,12.3C73.4,12.3,73.3,12.3,73.4,12.3z"/>
		<polygon class="st0" points="71.9,14.9 71.9,14.9 71.9,14.9 		"/>
		<path class="st0" d="M64.7,38l-44.5,7L32,32.6l9.8,2.9l14-10.3v3.4h2v-3.8v-3h-1.2h-0.8h-4.3v2h2.7l-12.8,9.5l-10.1-3.2L18,44.4
			V26.6h-2v20.9l2.1-0.3l0,0l0,0l46.7-6.9v-2.1C64.9,38.1,64.8,38,64.7,38z"/>
	</g>
</g>
</svg>
