<?xml version="1.0" encoding="utf-8"?>
<!-- Generator: Adobe Illustrator 15.0.0, SVG Export Plug-In . SVG Version: 6.00 Build 0)  -->
<!DOCTYPE svg PUBLIC "-//W3C//DTD SVG 1.1//EN" "http://www.w3.org/Graphics/SVG/1.1/DTD/svg11.dtd">
<svg version="1.1" id="图层_1" xmlns="http://www.w3.org/2000/svg" xmlns:xlink="http://www.w3.org/1999/xlink" x="0px" y="0px"
	 width="56.69px" height="56.69px" viewBox="0 0 56.69 56.69" enable-background="new 0 0 56.69 56.69" xml:space="preserve">
<path fill="#E84D4D" d="M48.773,30.703h-9.166l-0.536,0.268l-0.028,1.34l0.268,0.953l-0.119,2.32l-0.27,0.863l0.18,0.715h1.548
	l0.297-0.148h6.429l0.476,0.209l1.07-0.031l0.209-0.328V32.43l0.119-1.129L48.773,30.703z M46.929,34.928h-5.595v-2.41h5.595V34.928
	z"/>
<path fill="#E84D4D" d="M26.47,16.293l0.392-0.526v-2.11h1.054V11.9h-1.015v-1.483l0.234-0.567l-0.312-0.801h-1.446l-0.156,0.176
	h-2.48V8.054l-0.333-0.253H20.26v1.445l-3.393-0.082l-0.458,0.386v1.374h4.164v0.84h-3.709l-0.665,0.39l-0.097,1.406l2.518-0.021
	l0.235-0.023l1.815,0.021v1.077h-3.788l-0.546,0.449v1.211h3.886v0.684h-3.554l-0.254,0.176v1.445h3.788v0.781h-3.475l-0.352,0.292
	v1.388h3.867v1.249h2.343v-1.23h4.374v-1.64h-4.394V18.54h4.315v-1.562h-4.315v-0.685H26.47z M22.519,10.894h2.1v0.869h-2.1V10.894z
	 M22.519,14.648V13.56h2.1v1.089H22.519z"/>
<polygon fill="#E84D4D" points="45.888,44.631 45.477,45.016 45.283,45.738 45.598,46.727 46.561,47.477 47.768,48.102 
	48.684,48.367 49.648,48.32 50.322,47.74 50.564,46.898 50.444,46.584 49.406,46.51 47.743,45.838 46.634,45.064 46.344,44.654 "/>
<polygon fill="#E84D4D" points="30.631,34.518 30.913,34.205 33.081,34.205 33.081,30.186 35.474,30.186 35.474,31.584 
	35.234,34.234 37.466,34.234 37.466,36.168 35.383,36.168 35.383,39.41 37.407,38.787 37.407,40.514 35.323,41.316 35.323,47.061 
	34.759,47.924 34.073,48.52 31.783,48.52 31.067,47.686 30.948,46.436 31.544,46.436 31.872,46.674 32.645,46.584 33.181,46.047 
	33.181,42.209 31.039,42.865 30.593,42.625 30.593,40.779 30.979,40.543 33.152,40.125 33.152,36.197 31.783,36.197 31.217,36.375 
	30.531,36.197 "/>
<polygon fill="#E84D4D" points="38.978,38.143 38.567,38.748 38.744,39.783 38.744,44.645 40.931,44.645 40.931,40.115 
	47.433,40.115 47.433,44.664 49.913,44.664 49.913,40.018 50.187,39.119 50.168,38.787 49.151,38.043 39.064,38.043 "/>
<polygon fill="#E84D4D" points="16.807,31.615 16.807,32.795 16.951,33.664 16.951,45.789 13.215,45.789 13.215,37.666 
	13.408,36.701 13.166,36.1 11.069,36.1 10.876,36.484 11.093,38.123 11.093,45.789 8.055,45.789 7.622,46.152 7.622,47.959 
	9.429,47.959 10.756,47.67 21.579,47.67 26.112,48.32 26.811,48.32 27.703,47.283 27.897,46.248 27.897,45.668 27.004,45.861 
	19.338,45.861 19.338,39.4 25.703,39.4 25.703,37.473 19.338,37.473 19.338,33.156 19.628,32.459 19.411,31.637 "/>
<polygon fill="#E84D4D" points="43.404,40.773 42.825,41.184 42.729,43.594 42.054,44.992 40.703,45.885 39.089,46.416 
	38.125,46.584 37.329,46.561 37.305,47.162 38.004,48.055 38.944,48.391 40.365,48.391 41.789,47.766 43.21,46.633 44.176,45.307 
	44.778,43.668 45.116,42.438 45.236,41.689 45.236,41.063 44.922,40.797 "/>
<polygon fill="#E84D4D" points="40.211,9.709 40.107,10.171 40.275,10.569 42.53,12.49 42.812,12.399 43.247,11.683 43.055,10.786 
	42.517,9.172 42.196,8.992 41.529,8.979 "/>
<polygon fill="#E84D4D" points="32.938,8.896 32.133,9.006 31.799,9.607 31.53,11.046 31.926,11.426 33.618,11.552 35.026,11.521 
	35.738,11.157 35.817,10.572 35.12,10.176 33.666,9.497 "/>
<polygon fill="#E84D4D" points="38.328,11.708 37.265,12.439 37.099,13.015 37.366,13.796 39.497,18.247 40.931,20.634 
	40.968,21.039 40.048,22.031 36.667,23.686 36.339,23.686 36.339,22.068 34.685,22.766 34.391,22.729 34.574,16.521 35.106,15.71 
	35.17,14.84 34.757,14.366 34.126,14.065 32.701,14.224 30.314,14.176 29.839,14.524 29.791,16.264 32.639,16.217 32.639,22.688 
	31.967,23.459 31.724,24.159 31.918,25.146 32.519,25.629 33.194,25.556 35.364,24.665 36.354,25.653 37.245,25.844 38.427,25.726 
	40.282,24.712 42.452,22.856 42.717,22.785 44.021,24.014 45.852,25.244 47.394,25.844 48.601,25.966 49.781,25.436 50.431,24.327 
	50.431,23.675 49.975,23.556 47.781,23.242 45.538,22.061 44.452,21.072 44.331,20.47 45.15,19.047 46.164,16.805 46.839,14.901 
	47.564,12.467 47.683,11.792 47.948,11.31 47.899,10.803 45.826,10.369 45.465,10.609 45.345,12.178 45.007,14.756 44.139,16.805 
	43.175,18.734 42.669,18.999 42.332,18.685 40.812,16.059 39.824,13.744 39.164,12.132 38.911,11.705 "/>
<polygon fill="#E84D4D" points="25.754,23.441 23.32,23.127 20.307,22.598 15.124,20.862 14.666,20.669 15.124,17.727 
	15.726,16.088 15.726,15.533 14.424,14.811 12.882,14.882 14.087,12.858 15.991,11.315 16.04,10.616 14.979,9.651 9.067,9.651 
	9.072,11.508 10.447,11.508 10.761,11.363 12.93,11.388 13.002,11.653 11.99,12.809 10.906,14.136 10.327,14.882 9.411,14.932 
	9.122,15.172 9.387,16.763 10.447,16.907 12.81,16.523 13.316,16.57 13.365,17.173 13.002,19.825 12.424,19.753 11.098,19.029 
	10.519,18.765 9.868,19.15 8.928,20.332 9.122,20.862 11.531,21.513 11.869,21.633 11.556,22.333 10.375,23.248 9.676,23.754 
	8.542,24.02 8.591,24.477 9.748,25.322 11.073,25.37 12.11,24.983 13.292,23.875 13.845,22.598 14.087,22.5 16.908,23.585 
	23.175,25.635 25.442,25.948 27.104,25.659 28.889,24.477 28.889,23.394 "/>
<path fill="#E84D4D" d="M56.651,35.432c-0.052-1.461-0.232-2.824-0.316-3.768c-0.086-0.943-0.073-1.471-0.157-2.107
	c-0.081-0.636-0.258-1.383-0.229-2.24c0.027-0.856,0.258-1.823,0.35-3.58c0.093-1.758,0.05-4.305,0.032-6.37
	c-0.017-2.063-0.005-3.646-0.021-5.325c-0.017-1.681-0.06-3.459-0.235-4.942c-0.176-1.483-0.482-2.668-0.922-3.601
	c-0.438-0.934-1.011-1.614-1.758-2.075c-0.746-0.461-1.668-0.703-4.019-0.824c-2.349-0.121-6.126-0.121-8.366,0.021
	c-2.239,0.143-2.942,0.428-3.47,0.758c-0.527,0.329-0.879,0.704-0.923,1.12s0.221,0.879,2.186,1.109
	c1.965,0.231,5.634,0.231,7.873,0.253c2.239,0.021,3.052,0.066,3.667,0.242c0.614,0.175,1.032,0.483,1.383,1.305
	c0.352,0.821,0.635,2.158,0.87,7.505c0.235,5.347,0.425,14.703,0.493,21.598c0.07,6.895,0.024,11.328-0.159,13.875
	c-0.181,2.549-0.496,3.213-0.993,3.699c-0.496,0.486-1.171,0.793-8.34,0.947c-7.17,0.152-20.834,0.152-28.04,0.152
	c-7.207,0-7.952,0-8.611-0.121c-0.66-0.119-1.23-0.361-1.637-0.877c-0.406-0.518-0.648-1.307-0.801-3.822
	c-0.154-2.514-0.22-6.75-0.253-10.475c-0.033-3.723-0.033-6.928-0.121-8.729c-0.089-1.801-0.264-2.196-0.669-2.394
	c-0.406-0.198-1.043-0.198-1.494,0.01c-0.45,0.21-0.713,0.626-0.868,1.056c-0.153,0.427-0.197,0.866-0.274,2.458
	c-0.077,1.594-0.188,4.34-0.154,7.248c0.033,2.91,0.209,5.984,0.374,8.301c0.164,2.316,0.317,3.877,0.614,5.16
	c0.296,1.287,0.736,2.295,1.284,3.01c0.549,0.715,1.21,1.133,1.945,1.395c0.735,0.264,1.549,0.373,2.844,0.482
	c1.294,0.109,3.074,0.221,4.709,0.264c1.637,0.045,3.13,0.023,4.964-0.055c1.833-0.074,4.007-0.207,5.645-0.219
	c1.635-0.012,2.733,0.1,4.908,0.166c2.173,0.066,5.423,0.086,7.753,0.098c2.327,0.012,3.731,0.012,5.017-0.109
	s2.449-0.361,4.009-0.35c1.559,0.01,3.513,0.273,5.062,0.361c1.548,0.088,2.689,0,3.579-0.166c0.89-0.164,1.525-0.406,1.988-0.889
	c0.46-0.482,0.746-1.207,0.915-2.326c0.168-1.121,0.217-2.635,0.212-4.449c-0.005-1.811-0.066-3.918-0.066-5.336
	c0-1.416,0.062-2.141,0.128-3.283C56.63,38.451,56.704,36.891,56.651,35.432z"/>
<path fill="#E84D4D" d="M33.493,2.616c-0.035-0.475-0.279-1.052-0.985-1.419C31.8,0.829,30.635,0.671,28.33,0.584
	c-2.308-0.086-5.75-0.101-7.775,0.037c-2.024,0.137-2.629,0.425-5.332,0.569C12.521,1.334,7.724,1.334,5.176,1.533
	C2.627,1.731,2.329,2.13,2.046,2.542c-0.282,0.413-0.549,0.84-0.895,1.925C0.805,5.553,0.377,7.296,0.173,9.67
	c-0.205,2.375-0.187,5.381-0.036,7.729c0.152,2.348,0.436,4.037,0.908,5.078c0.47,1.041,1.129,1.433,1.618,1.539
	c0.489,0.106,0.81-0.072,0.996-1.272c0.187-1.201,0.241-3.424,0.189-5.954c-0.052-2.528-0.206-5.362-0.204-7.377
	C3.646,7.4,3.805,6.204,3.999,5.433c0.195-0.771,0.426-1.117,2.132-1.289c1.708-0.173,4.892-0.173,7.392-0.231
	c2.5-0.057,4.315-0.173,6.65-0.043c2.334,0.129,5.188,0.504,7.443,0.54c2.254,0.035,3.912-0.266,4.826-0.606
	C33.357,3.466,33.531,3.092,33.493,2.616z"/>
</svg>
