<?xml version="1.0" encoding="utf-8"?>
<!-- Generator: Adobe Illustrator 15.0.0, SVG Export Plug-In . SVG Version: 6.00 Build 0)  -->
<!DOCTYPE svg PUBLIC "-//W3C//DTD SVG 1.1//EN" "http://www.w3.org/Graphics/SVG/1.1/DTD/svg11.dtd">
<svg version="1.1" id="图层_1" xmlns="http://www.w3.org/2000/svg" xmlns:xlink="http://www.w3.org/1999/xlink" x="0px" y="0px"
	 width="40px" height="20px" viewBox="0 0 40 20" enable-background="new 0 0 40 20" xml:space="preserve">
<g>
	<polygon fill="#E61F19" points="5.598,3.518 6.219,4.139 7.124,6.569 7.124,6.851 6.361,7.134 4.863,4.986 4.863,4.083 	"/>
	<polygon fill="#E61F19" points="4.412,8.264 5.202,7.925 6.897,10.185 6.897,10.806 5.993,11.145 4.412,9.535 	"/>
	<polygon fill="#E61F19" points="6.389,12.728 5.372,13.913 4.412,15.552 4.412,16.795 4.637,17.699 5.4,17.699 6.389,15.214 
		6.897,13.065 	"/>
	<polygon fill="#E61F19" points="8.141,4.139 7.858,4.817 8.423,5.326 10.287,5.326 10.514,5.552 10.514,6.625 10.514,7.134 
		8.083,7.134 7.858,7.642 7.858,11.145 7.858,11.484 10.005,11.484 10.174,11.936 9.948,13.856 9.186,14.874 7.575,16.004 
		7.124,16.455 7.124,17.19 7.971,17.19 8.818,17.19 10.514,15.438 11.135,13.97 11.135,11.145 10.683,10.185 9.722,10.241 
		9.129,10.241 9.129,8.207 11.135,8.15 11.53,7.585 11.53,4.647 11.022,4.139 10.287,4.139 	"/>
	<polygon fill="#E61F19" points="14.129,9.111 18.197,9.111 18.536,9.535 18.536,10.354 13.395,10.354 12.49,10.665 11.813,10.298 
		11.813,9.535 12.773,9.111 12.717,4.139 13.226,3.518 13.96,3.518 14.186,4.139 	"/>
	<polygon fill="#E61F19" points="16.164,3.518 16.36,4.799 16.097,5.806 14.863,7.473 14.863,7.925 15.174,8.433 15.994,7.925 
		17.35,6.625 18.018,5.006 17.575,3.744 16.897,3.179 16.446,3.179 	"/>
	<polygon fill="#E61F19" points="13.508,11.145 13.508,16.23 14.073,16.23 15.174,15.665 15.824,15.552 15.824,16.23 15.174,16.964 
		14.073,17.699 12.943,17.699 12.435,16.682 12.435,11.54 12.717,11.145 	"/>
	<polygon fill="#E61F19" points="14.863,11.145 15.174,13.18 15.824,14.421 16.897,15.665 18.141,17.19 18.932,17.19 19.553,16.682 
		19.553,15.892 18.988,15.552 17.208,13.97 16.361,12.728 16.361,12.389 15.824,11.145 15.174,10.919 	"/>
</g>
<g>
	<polygon fill="#E61F19" points="24.427,3.461 23.523,3.857 21.376,6.512 21.093,8.151 21.093,9.168 22.28,9.168 22.619,9.732 
		22.336,14.026 21.828,15.609 21.828,16.4 22.958,16.796 23.861,16.117 24.088,10.749 23.861,9.846 22.958,8.094 22.761,7.585 
		23.466,6.342 24.427,4.874 25.048,4.308 25.048,3.688 	"/>
	<polygon fill="#E61F19" points="29.611,2.571 29.398,3.461 29.398,3.715 26.56,3.715 26.292,4.478 26.292,5.156 27.407,5.156 
		28.777,4.817 32.789,4.732 34.173,4.901 34.738,4.436 34.738,3.673 34.173,3.588 31.305,3.461 31.094,2.91 30.882,2.274 
		30.288,2.274 	"/>
	<polygon fill="#E61F19" points="29.06,5.156 28.495,5.749 28.777,6.3 30.119,6.3 32.323,6.3 33,6.597 33,7.232 32.492,7.826 
		29.398,7.826 27.873,7.826 27.873,6.49 27.322,5.961 26.856,6.49 26.856,7.656 27.194,8.588 28.086,8.885 33.213,8.503 
		33.594,8.673 34.173,8.037 33.849,5.961 32.789,5.368 32.407,5.156 	"/>
	<path fill="#E61F19" d="M26.051,9.139c0,0,0.636,0.212,0.806,0.297c0.17,0.084,2.542,0.211,2.542,0.211l4.195-0.254l1.398,0.254
		l0.933,0.481v0.621v0.89l-0.424,0.849l-0.763,0.466l-0.565-0.593l0.565-0.849v-0.847l-0.565-0.297l-4.478,0.085L27.28,10.58
		l-0.424,0.169l-0.382,0.763l-0.424,1.145l-0.382,0.297l-0.621-0.424v-1.738l0.325-1.059L26.051,9.139z"/>
	<polygon fill="#E61F19" points="30.485,12.698 30.485,15.835 29.738,16.471 28.495,16.471 27.746,15.835 27.28,15.835 
		26.856,16.471 27.491,17.19 29.145,17.699 30.246,17.699 31.094,16.796 31.602,15.835 31.602,12.953 32.139,12.571 33.127,12.656 
		33.127,11.767 32.577,11.469 28.933,11.469 28.17,11.767 27.619,12.36 27.958,12.953 	"/>
</g>
<polygon fill="#E61F19" points="3.833,0.563 2.875,0 1.75,0.281 0.375,1.313 0.013,2.43 0.013,3.68 0.013,4.492 0.438,5.313 
	0.563,9.292 0.375,15.25 0.25,17.688 0.688,19.313 2.563,20 4,19.563 7.229,19.25 6.938,18.688 2.938,18.313 2.188,17.688 
	1.688,16.896 1.438,14.313 1.75,5.313 1.595,3.136 2.438,1.938 3.542,1.563 7.354,1.75 8.375,1.188 8.875,1.625 11.292,1.438 
	10.313,0.625 "/>
<polyline fill="#E61F19" points="12.313,1.365 36.875,1.625 37.5,1.938 38.063,2.375 38.063,3.375 38.375,15.063 38.063,17.375 
	37.5,18.375 36.125,18.375 32.875,18.688 12.5,18.563 15.375,19.563 28.813,19.563 32.427,20 35.146,20 36.438,20 38.938,19.125 
	39.563,17.75 40,13.188 39.438,10.875 39.188,1.75 38.688,0.875 37.5,0.25 30.563,0.25 13.312,0.3 11.563,1.417 "/>
</svg>
