<?xml version="1.0" encoding="utf-8"?>
<!-- Generator: Adobe Illustrator 15.0.0, SVG Export Plug-In . SVG Version: 6.00 Build 0)  -->
<!DOCTYPE svg PUBLIC "-//W3C//DTD SVG 1.1//EN" "http://www.w3.org/Graphics/SVG/1.1/DTD/svg11.dtd">
<svg version="1.1" id="图层_1" xmlns="http://www.w3.org/2000/svg" xmlns:xlink="http://www.w3.org/1999/xlink" x="0px" y="0px"
	 width="40px" height="20px" viewBox="0 0 40 20" enable-background="new 0 0 40 20" xml:space="preserve">
<g>
	<polygon fill="#2CAB6F" points="6.28,4.714 8.227,4.714 8.837,5.209 8.837,7.097 8.575,7.62 6.136,7.62 5.991,5.209 5.496,4.714 
		4.829,4.714 4.654,5.586 4.916,8.056 5.468,8.81 6.746,8.81 7.239,9.043 7.269,10.958 7.646,11.279 8.198,11.046 8.343,8.84 
		9.417,8.374 9.766,8.229 9.766,5.441 9.766,4.482 9.069,3.639 6.978,3.494 6.078,3.494 5.67,3.93 	"/>
	<polygon fill="#2CAB6F" points="7.762,11.917 7.21,12.325 7.21,14.881 6.803,15.258 6.165,15.258 5.991,11.075 5.409,10.466 
		5.003,10.698 4.858,11.716 5.003,12.179 5.09,15.811 5.7,16.739 7.326,16.739 7.965,16.187 10.027,15.084 9.882,14.504 
		8.518,14.648 8.401,12.325 	"/>
	<polygon fill="#2CAB6F" points="9.766,10.698 9.272,10.698 8.924,11.279 9.186,11.977 9.766,12.325 10.202,12.179 10.609,11.511 
		10.609,10.698 	"/>
	<path fill="#2CAB6F" d="M12.816,6.53h1.976l0.464-0.335l-0.145-2.439l0.145-1.103l0.494-0.379l0.668,0.581v3.283l0.261,0.392
		l2.149-0.131l0.61,0.61l-0.203,0.667h-2.498l-0.61,0.233l0.146,1.945l0.087,0.349h0.436h2.788l0.407,0.494l-0.174,0.581
		l-0.668,0.231c0,0-2.324-0.057-2.411,0c-0.087,0.058-0.334,0.379-0.334,0.379v0.667l2.31,2.497l1.51,1.019l0.174,0.667
		l-0.319,0.697H19.41h-0.697l-2.789-4.065l-0.407-0.436l-0.523,0.027l-0.319,0.988l-1.017,1.626l-1.017,0.931l-0.987,0.929h-0.668
		l-0.667,0.145l-0.291-0.667v-0.553l2.15-1.48l1.012-0.813l0.673-1.395l0.146-0.64l0.145-0.523h-0.581h-2.237l-0.29-0.64
		l0.349-0.667h3.282h0.203l0.334-2.294l-0.276-0.263l-1.859,0.116l-0.232,0.319l-0.204,0.96h-0.581l-0.465-0.552l-0.262-1.454
		l0.233-1.451l0.232-0.872L12.38,3.93l0.465-0.261l0.436,0.318l0.029,0.495l-0.349,0.899L12.816,6.53z"/>
</g>
<g>
	<polygon fill="#2CAB6F" points="24.439,3.461 23.536,3.856 21.389,6.512 21.106,8.15 21.106,9.168 22.292,9.168 22.631,9.732 
		22.349,14.026 21.84,15.609 21.84,16.4 22.971,16.796 23.874,16.117 24.101,10.749 23.874,9.846 22.971,8.094 22.773,7.586 
		23.479,6.342 24.439,4.874 25.061,4.308 25.061,3.688 	"/>
	<polygon fill="#2CAB6F" points="29.624,2.571 29.411,3.461 29.411,3.716 26.572,3.716 26.305,4.478 26.305,5.156 27.42,5.156 
		28.79,4.817 32.802,4.732 34.186,4.901 34.751,4.436 34.751,3.673 34.186,3.589 31.317,3.461 31.106,2.91 30.895,2.274 
		30.301,2.274 	"/>
	<polygon fill="#2CAB6F" points="29.072,5.156 28.508,5.749 28.79,6.3 30.132,6.3 32.336,6.3 33.013,6.597 33.013,7.232 
		32.505,7.826 29.411,7.826 27.886,7.826 27.886,6.49 27.335,5.961 26.869,6.49 26.869,7.656 27.207,8.588 28.099,8.885 
		33.226,8.504 33.606,8.673 34.186,8.037 33.861,5.961 32.802,5.367 32.42,5.156 	"/>
	<path fill="#2CAB6F" d="M26.063,9.139c0,0,0.636,0.213,0.806,0.297c0.17,0.085,2.542,0.212,2.542,0.212l4.195-0.255l1.398,0.255
		l0.933,0.481v0.62v0.89l-0.424,0.849l-0.763,0.466l-0.565-0.593l0.565-0.849v-0.847l-0.565-0.298l-4.478,0.086l-2.415,0.127
		l-0.424,0.169l-0.382,0.763l-0.424,1.145l-0.382,0.297l-0.621-0.424v-1.738l0.325-1.059L26.063,9.139z"/>
	<polygon fill="#2CAB6F" points="30.498,12.698 30.498,15.835 29.751,16.471 28.508,16.471 27.759,15.835 27.293,15.835 
		26.869,16.471 27.504,17.19 29.157,17.699 30.259,17.699 31.106,16.796 31.614,15.835 31.614,12.953 32.151,12.571 33.14,12.656 
		33.14,11.767 32.59,11.469 28.945,11.469 28.183,11.767 27.632,12.36 27.971,12.953 	"/>
</g>
<polygon fill="#2CAB6F" points="3.846,0.563 2.888,0 1.763,0.281 0.388,1.313 0.013,2.301 0.013,3.551 0.013,4.363 0.45,5.313 
	0.575,9.292 0.388,15.25 0.263,17.688 0.7,19.313 2.575,20 4.013,19.563 7.242,19.25 6.95,18.688 2.95,18.313 2.2,17.688 
	1.7,16.896 1.45,14.313 1.763,5.313 1.607,3.136 2.45,1.938 3.554,1.563 7.367,1.75 8.388,1.188 8.888,1.625 11.305,1.438 
	10.325,0.625 "/>
<polyline fill="#2CAB6F" points="12.325,1.364 36.888,1.625 37.513,1.938 38.075,2.375 38.075,3.375 38.388,15.063 38.075,17.375 
	37.513,18.375 36.138,18.375 32.888,18.688 12.513,18.563 15.388,19.563 28.825,19.563 32.439,20 35.158,20 36.45,20 38.95,19.125 
	39.575,17.75 40.013,13.188 39.45,10.875 39.2,1.75 38.7,0.875 37.513,0.25 30.575,0.25 13.325,0.3 11.575,1.417 "/>
</svg>
