<?xml version="1.0" encoding="utf-8"?>
<!-- Generator: Adobe Illustrator 15.0.0, SVG Export Plug-In . SVG Version: 6.00 Build 0)  -->
<!DOCTYPE svg PUBLIC "-//W3C//DTD SVG 1.1//EN" "http://www.w3.org/Graphics/SVG/1.1/DTD/svg11.dtd">
<svg version="1.1" id="Default" xmlns="http://www.w3.org/2000/svg" xmlns:xlink="http://www.w3.org/1999/xlink" x="0px" y="0px"
	 width="56.69px" height="56.69px" viewBox="0 0 56.69 56.69" enable-background="new 0 0 56.69 56.69" xml:space="preserve">
<path fill="#888888" d="M12.812,20.775c4.73,0,9.461,0,14.191,0c1.873,0,3.746,0,5.619,0c0.468,0,0.936,0,1.404,0
	c0.499,0,0.251,0.457,0.251,0.746c0,0.388,0,0.775,0,1.163c0,0.194,0,0.388,0,0.582c0,0.097,0,0.194,0,0.291
	c0,0.199,0.196-0.031,0.292-0.055c0.415-0.103,0.829-0.206,1.243-0.308c0.829-0.206,1.657-0.412,2.485-0.617
	c4.588-1.138,9.177-2.276,13.765-3.414c0.144-0.036,0.287-0.071,0.431-0.106c0.071-0.018,0.144-0.036,0.215-0.053
	c0.062-0.016,0.306-0.023,0.183-0.054c-0.287-0.071-0.574-0.143-0.861-0.214c-0.574-0.142-1.149-0.285-1.723-0.427
	c-1.148-0.285-2.297-0.57-3.446-0.855c-2.297-0.569-4.595-1.139-6.892-1.709c-1.531-0.38-3.062-0.759-4.592-1.139
	c-0.191-0.047-0.383-0.095-0.574-0.142c-0.096-0.024-0.191-0.047-0.287-0.071c-0.08-0.02-0.239-0.173-0.239-0.014
	c0,0.358,0,0.716,0,1.074s0,0.716,0,1.074c0,0.179,0,0.358,0,0.537c0,0.191-0.183,0.067-0.286,0.067c-1.748,0-3.495,0-5.242,0
	c-4.736,0-9.472,0-14.208,0c-1.307,0-2.563-0.113-3.849,0.428c-1.467,0.616-2.331,1.487-2.937,2.958
	c-0.643,1.561-0.412,4.426-0.412,5.967c0,0.489,0,0.978,0,1.466c0,0.212,0,0.425,0,0.637c0,0.049,0,0.1,0,0.149
	c0,0.109,0.099,0.052,0.164,0.034c0.239-0.065,0.478-0.131,0.717-0.197c0.478-0.131,0.956-0.262,1.434-0.394
	c0.239-0.066,0.479-0.132,0.717-0.197c0.073-0.02,0.613-0.056,0.613-0.199c0-0.32,0-0.64,0-0.96c0-0.864,0-1.727,0-2.591
	c0-0.543,0-1.087,0-1.631C10.99,21.593,11.803,20.775,12.812,20.775z"/>
<path fill="#888888" d="M51.085,24.223c-0.858,0.236-1.717,0.472-2.576,0.708c-0.118,0.032-1.068,0.128-1.068,0.359
	c0,0.136,0,0.271,0,0.408c0,0.693,0,1.387,0,2.081c0,0.958,0.101,1.911-0.013,2.874c-0.106,0.899-0.855,1.584-1.76,1.609
	c-0.796,0.021-1.592,0-2.388,0c-4.733,0-9.466,0-14.199,0c-0.847,0-1.694,0-2.541,0c-0.423,0-0.847,0-1.271,0
	c-0.211,0-0.423,0-0.635,0c-0.105,0-0.212,0-0.317,0c-0.172,0-0.164-0.124-0.164-0.254c0-0.701,0-1.402,0-2.104
	c0-0.148,0.186-0.486-0.091-0.418c-0.188,0.046-0.375,0.093-0.562,0.14c-0.375,0.093-0.75,0.186-1.124,0.278
	c-1.499,0.372-2.997,0.744-4.496,1.115c-2.297,0.57-4.594,1.14-6.891,1.709c-1.148,0.285-2.297,0.569-3.446,0.854
	c-0.574,0.143-1.148,0.285-1.723,0.427c-0.072,0.018-0.144,0.035-0.215,0.053c-0.021,0.005-0.101,0.017-0.059,0.027
	c0.036,0.009,0.072,0.018,0.108,0.026c0.144,0.036,0.287,0.071,0.431,0.107c0.287,0.071,0.574,0.142,0.861,0.213
	c4.597,1.14,9.193,2.28,13.79,3.42c0.841,0.208,1.682,0.417,2.523,0.626c0.21,0.052,0.42,0.104,0.631,0.157
	c0.088,0.021,0.262,0.19,0.262,0.015c0-0.098,0-0.197,0-0.295c0-0.394,0-0.787,0-1.181s0-0.787,0-1.18
	c0-0.203,0.188-0.093,0.304-0.093c0.12,0,0.24,0,0.36,0c0.48,0,0.96,0,1.44,0c1.92,0,3.841,0,5.761,0c2.369,0,4.738,0,7.107,0
	c1.185,0,2.369,0,3.554,0c1.18,0,2.356,0.098,3.541-0.033c1.618-0.178,3.07-1.067,3.965-2.427c0.858-1.302,0.901-2.604,0.901-4.055
	C51.085,27.67,51.085,25.947,51.085,24.223z"/>
</svg>
