<?xml version="1.0" standalone="no"?><!DOCTYPE svg PUBLIC "-//W3C//DTD SVG 1.1//EN" "http://www.w3.org/Graphics/SVG/1.1/DTD/svg11.dtd"><svg width="200" height="200" viewBox="0 0 200 200" version="1.1" xmlns="http://www.w3.org/2000/svg" xmlns:xlink="http://www.w3.org/1999/xlink"><defs><style type="text/css"><![CDATA[
@font-face { font-family: ifont; src: url("//at.alicdn.com/t/font_1442373896_4754455.eot?#iefix") format("embedded-opentype"), url("//at.alicdn.com/t/font_1442373896_4754455.woff") format("woff"), url("//at.alicdn.com/t/font_1442373896_4754455.ttf") format("truetype"), url("//at.alicdn.com/t/font_1442373896_4754455.svg#ifont") format("svg"); }

]]></style></defs><g class="transform-group"><g transform="scale(0.1953125, 0.1953125)"><path d="M847.793 957.904l-672.241 0c-61.872 0-112.041-50.167-112.041-112.039l0-672.241c0-61.872 50.167-112.041 112.041-112.041l672.241 0c61.872 0 112.041 50.167 112.041 112.041l0 672.241c0.001 61.872-50.169 112.039-112.041 112.039zM903.839 173.623c0-30.961-25.084-56.02-56.045-56.02l-672.241 0c-30.935 0-56.02 25.059-56.02 56.02l0 672.241c0 30.911 25.059 56.02 56.02 56.02l672.241 0c30.935 0 56.045-25.059 56.045-56.02l0-672.241zM763.789 229.643l-504.205 0c-15.481 0-28.01-12.555-28.01-28.01s12.529-28.01 28.01-28.01l504.18 0c15.481 0 28.034 12.555 28.034 28.01s-12.554 28.01-28.009 28.01zM490.841 294.467c5.852-5.852 13.604-8.402 21.308-8.002 7.653-0.4 15.43 2.101 21.283 8.002l138.4 167.51c11.027 11.054 11.027 28.91 0 39.914-10.979 11.004-28.786 11.004-39.764 0l-92.383-111.84 0 427.803c0 15.456-12.505 28.01-28.01 28.01-15.456 0-28.01-12.555-28.01-28.01l0-426.752-91.508 110.74c-10.979 11.054-28.785 11.054-39.764 0-10.979-11.005-10.979-28.86 0-39.914l138.447-167.461z" fill="#272636"></path></g></g></svg>