<?xml version="1.0" standalone="no"?><!DOCTYPE svg PUBLIC "-//W3C//DTD SVG 1.1//EN" "http://www.w3.org/Graphics/SVG/1.1/DTD/svg11.dtd"><svg width="200" height="200" viewBox="0 0 200 200" version="1.1" xmlns="http://www.w3.org/2000/svg" xmlns:xlink="http://www.w3.org/1999/xlink"><defs><style type="text/css"><![CDATA[
@font-face { font-family: ifont; src: url("//at.alicdn.com/t/font_1442373896_4754455.eot?#iefix") format("embedded-opentype"), url("//at.alicdn.com/t/font_1442373896_4754455.woff") format("woff"), url("//at.alicdn.com/t/font_1442373896_4754455.ttf") format("truetype"), url("//at.alicdn.com/t/font_1442373896_4754455.svg#ifont") format("svg"); }

]]></style></defs><g class="transform-group"><g transform="scale(0.1953125, 0.1953125)"><path d="M859.820754 188.158381 164.585499 188.158381c-53.203736 0-96.493681 45.300742-96.493681 100.983949l0 441.517739c0 55.711859 43.289945 101.042277 96.493681 101.042277l695.235254 0c53.178153 0 96.467075-45.330418 96.467075-101.042277L956.287829 289.143353C956.286806 233.459123 912.998907 188.158381 859.820754 188.158381zM859.820754 224.836745c12.010545 0 23.158443 3.906983 32.537044 10.485819L512.179079 503.172961 131.998313 235.343029c9.389858-6.595208 20.554128-10.506285 32.587186-10.506285L859.820754 224.836745zM919.609465 730.661092c0 35.496445-26.820855 64.363913-59.788711 64.363913L164.585499 795.025005c-32.989345 0-59.812247-28.867468-59.812247-64.363913L104.773252 289.143353c0-8.816806 1.669012-17.21815 4.666276-24.873504l391.724683 275.966239 16.116049 2.962471c2.167363-0.629333 4.226255-1.657756 6.052856-3.063779l391.601886-275.897677c3.003404 7.66354 4.674463 16.07614 4.674463 24.90625L919.609465 730.661092zM506.436284 543.000038c1.866511 0.621147 3.798513 0.927115 5.713119 0.927115 0.010233 0 0.01842-0.004093 0.028653-0.004093-1.954515-0.00307-3.895727-0.314155-5.742794-0.925069L506.436284 543.000038zM512.203638 543.927153c1.699712 0 3.41068-0.2415 5.076622-0.729617-1.653663 0.479931-3.372817 0.722454-5.102205 0.724501C512.186242 543.92306 512.195451 543.927153 512.203638 543.927153z" fill="#ffab36"></path></g></g></svg>